<svg width="170" height="148" viewBox="0 0 170 148" fill="none" xmlns="http://www.w3.org/2000/svg">
<path d="M21.0806 108.391L35.0806 102.891L55.5806 106.391L70.5806 101.391L79.5806 105.391V137.891L56.5806 147.391L21.0806 139.391V108.391Z" fill="#FDC4C4"/>
<path d="M43.2339 50.9954L44.7359 49.5471C45.0984 49.1847 45.5161 48.882 45.9735 48.6504L46.9868 48.1347L45.6417 46.9824L43.3729 49.3274L43.2339 50.9954Z" fill="black"/>
<path d="M65.7869 89.0804C58.6622 87.4125 60.4826 72.3111 60.4826 72.3111L63.8589 71.2754C63.8589 71.2754 61.2897 79.7945 62.8142 83.1529C64.3387 86.5112 65.7869 89.0804 65.7869 89.0804Z" fill="black"/>
<path d="M41.2024 56.9273C41.3369 56.1874 41.458 55.4387 41.5746 54.6854C41.6149 54.4119 41.6194 54.1339 41.6687 53.8559C41.8257 52.8829 42.0364 51.9099 42.274 50.9459C42.3757 50.5125 42.4788 50.082 42.5834 49.6546C42.6956 49.0878 42.9148 48.5477 43.2291 48.0629C43.3322 47.9149 43.4891 48.0315 43.6012 48.2467C43.733 48.4924 43.7713 48.7776 43.7088 49.0493C43.4129 50.0626 43.2605 51.1342 42.9959 52.2283C42.8811 52.9051 42.8033 53.5876 42.7628 54.2729C42.6821 55.0306 42.6014 55.7929 42.5027 56.5551C42.4489 57.0259 42.3772 57.5012 42.3099 57.972C42.1971 58.6965 42.0474 59.4149 41.8615 60.1242C41.7562 60.7252 41.5403 61.3014 41.2248 61.8235C41.1464 61.9533 41.0514 62.0724 40.9424 62.1778C40.494 62.5723 40.2339 62.5365 40.0456 62.2674C39.9939 62.2088 39.9474 62.1458 39.9066 62.0791C39.8546 61.9672 39.8389 61.8417 39.8618 61.7204C39.8879 61.6095 39.9318 61.5035 39.9918 61.4066C40.1818 61.0884 40.3238 60.7439 40.4133 60.3843C40.5572 59.9594 40.6769 59.5268 40.772 59.0885C40.9289 58.398 41.0769 57.6671 41.189 56.9228L41.2024 56.9273Z" fill="black"/>
<path d="M32.6521 44.8884C33.2524 43.663 33.9496 42.4875 34.737 41.3731C35.4992 40.2656 36.3018 39.2075 37.1313 38.1493L38.0281 37.0059L38.9697 35.8895C40.122 34.6071 41.3237 33.383 42.5567 32.1948C43.7897 31.0066 45.099 29.8947 46.4352 28.8141C47.6368 27.8815 48.8474 26.9443 50.1119 26.1238C50.9234 25.5858 51.7484 25.0567 52.6138 24.5993C53.0493 24.3687 53.4985 24.1651 53.9589 23.9895C54.4116 23.8003 54.8759 23.64 55.3489 23.5098C55.9363 23.3349 55.9138 23.5501 55.5148 23.9357C55.2536 24.1841 54.9749 24.4134 54.6808 24.6217C54.2935 24.9276 53.8844 25.2048 53.4567 25.4512C51.777 26.3854 50.1703 27.4451 48.6501 28.6213C47.1167 29.805 45.6012 31.0246 44.1305 32.3249C42.3603 33.9377 40.7118 35.6792 39.1984 37.535C38.75 38.0372 38.3644 38.5573 37.9474 39.0685C37.5304 39.5796 37.1448 40.1087 36.7547 40.6512C35.9708 41.706 35.2434 42.8015 34.5756 43.9333C33.7552 45.3066 33.1504 46.7976 32.7821 48.3543C32.2063 50.7578 31.7573 53.1899 31.4369 55.6405C31.1903 57.5371 31.0513 59.4068 30.881 61.2945C30.8406 61.7115 30.8182 62.1195 30.7554 62.5365C30.5402 64.0834 30.3833 64.5632 30.0604 64.8591C29.9942 64.9323 29.9206 64.9984 29.8407 65.0564C29.6165 65.1774 29.5134 64.5228 29.5403 63.3794C29.5403 61.6801 29.7242 59.9494 29.8901 58.1872C30.056 56.4251 30.2936 54.6406 30.5671 52.8516C30.7734 51.5064 31.0155 50.1972 31.3024 48.8745C31.4504 48.2153 31.5939 47.5517 31.8136 46.8612C32.0263 46.1892 32.2824 45.5317 32.5803 44.8929L32.6521 44.8884Z" fill="black"/>
<path d="M49.0179 54.551C48.9128 53.8634 48.763 53.1835 48.5695 52.5154C48.4933 52.2688 48.3947 52.0311 48.305 51.7845C48.02 50.9061 47.6662 50.0515 47.2468 49.2288C47.0504 48.8674 46.8317 48.5185 46.5922 48.184C46.2688 47.7743 45.9693 47.3461 45.6954 46.9017C45.6192 46.7537 45.7851 46.6371 46.0362 46.6147C46.1816 46.5986 46.3288 46.616 46.4664 46.6658C46.604 46.7156 46.7283 46.7963 46.8298 46.9017C47.5664 47.751 48.171 48.7063 48.6233 49.7354C48.8834 50.3587 49.251 50.955 49.5201 51.5917C49.8181 52.2952 50.0507 53.0247 50.2151 53.7708C50.2644 53.9995 50.3227 54.2192 50.363 54.4613L50.4661 55.1608C50.5244 55.515 50.5155 55.8827 50.5424 56.2369C50.5693 56.5911 50.5424 56.9633 50.5424 57.322C50.511 57.6044 50.4975 57.8824 50.4886 58.1694C50.4561 58.4555 50.4021 58.7388 50.3272 59.0168C50.3083 59.1429 50.2705 59.2653 50.2151 59.38C50.0043 59.8284 49.8474 59.9091 49.5111 59.8284C49.4351 59.8122 49.3603 59.7913 49.2869 59.7656C49.1693 59.7069 49.0747 59.6106 49.0178 59.4921C48.961 59.3736 48.9452 59.2395 48.9731 59.111C49.0627 58.694 49.0403 58.2546 49.1031 57.8511C49.1031 57.6403 49.139 57.4296 49.1703 57.2233V56.5732C49.1703 56.2504 49.139 55.9141 49.139 55.5823C49.139 55.2505 49.0627 54.9097 49 54.5689L49.0179 54.551Z" fill="black"/>
<path d="M80.1757 69.1636C80.1757 69.1636 80.9155 96.3173 79.5883 97.3396C78.2611 98.3619 75.813 98.6623 75.813 98.6623C75.813 98.6623 79.9067 89.2464 78.8575 81.198C78.0728 75.1942 76.3197 75.1898 76.3197 75.1898L80.1757 69.1636Z" fill="black"/>
<path d="M64.128 113.051C64.0608 113.279 64.4867 113.342 65.2355 113.293C72.0598 112.817 77.2296 117.732 77.6062 124.565C77.9605 131.026 75.3644 138.958 75.3644 138.958L80.2965 135.689L80.6866 106.096L64.128 113.051Z" fill="black"/>
<path d="M144.603 49.1346C144.603 49.1346 156.099 42.9739 155.722 22.7925L167.77 32.603C167.77 32.603 164.555 33.5715 163.986 38.2929C163.416 43.0143 164.555 46.1933 162.098 49.1346C159.641 52.076 154.924 51.1299 154.736 54.3403C154.548 57.5507 152.095 56.2504 152.095 56.2504L144.603 49.1346Z" fill="black"/>
<path d="M52.8606 24.4873C45.144 27.7425 40.1895 34.3875 40.1895 34.3875L40.8889 34.7237L52.8606 24.4873Z" fill="black"/>
<path d="M59.3306 57.7972L61.2541 58.3801C61.4873 58.4518 61.7294 58.5011 61.9626 58.5729L64.4421 59.3262L65.5451 59.631C66.0212 59.7461 66.4911 59.8852 66.953 60.048C67.0965 60.1018 67.0561 60.196 66.9127 60.2677C66.698 60.3596 66.4618 60.3892 66.2311 60.3529C65.7424 60.2633 65.2447 60.2005 64.756 60.1018C64.2672 60.0032 63.7919 59.8283 63.3122 59.6535C62.7427 59.4607 62.124 59.3486 61.5187 59.2051L59.5593 58.676L58.3531 58.3487C57.7433 58.1828 57.1336 58.0079 56.5238 57.8734C56.053 57.7658 55.5732 57.712 55.0979 57.6313C54.9923 57.6218 54.8875 57.6053 54.7841 57.582C54.3984 57.4923 54.2908 57.4071 54.2639 57.1739C54.2571 57.1219 54.2571 57.0691 54.2639 57.017C54.2639 56.8466 54.4567 56.7525 54.7527 56.7659C55.6419 56.8411 56.5218 57.0018 57.3802 57.2457C58.0348 57.4116 58.6849 57.5999 59.3351 57.7793L59.3306 57.7972Z" fill="black"/>
<path d="M35.2078 143.702C28.6032 143.886 11.7891 141.989 10.7399 139.128C9.88346 136.792 20.223 135.824 20.223 135.824L20.5055 139.128L35.2078 143.702Z" fill="black"/>
<path d="M36.7234 144.397C34.8492 143.88 32.9809 143.328 31.1187 142.742C30.4416 142.523 29.7511 142.357 29.0831 142.115C26.6799 141.333 24.3487 140.346 22.1153 139.164L21.7476 138.958L21.5593 138.859C21.4741 138.808 21.3957 138.747 21.3261 138.676C21.091 138.432 20.9186 138.135 20.824 137.81C20.6491 137.257 20.5407 136.685 20.5011 136.106C20.414 134.693 20.4005 133.275 20.4608 131.86C20.4608 131.448 20.5818 131.461 20.7836 131.82C21.0523 132.409 21.2161 133.04 21.2678 133.685C21.3306 134.403 21.3934 135.111 21.492 135.797C21.5598 136.433 21.7013 137.059 21.9135 137.662C21.9505 137.747 22.0004 137.826 22.0615 137.895L22.1198 137.922L22.3484 138.043L23.2721 138.532C23.9178 138.819 24.541 139.146 25.2046 139.429C26.8262 140.104 28.4849 140.686 30.1726 141.173C32.0289 141.747 33.8941 142.303 35.7728 142.81C36.9297 143.123 38.0865 143.433 39.2522 143.706C41.0144 144.155 42.7855 144.603 44.5521 144.948C45.9241 145.231 47.2872 145.397 48.6502 145.657C48.9506 145.706 49.2421 145.746 49.547 145.805C50.6634 146.016 51.0087 146.141 51.2105 146.432C51.2627 146.491 51.3078 146.556 51.345 146.625C51.4212 146.827 50.9369 146.912 50.094 146.858C48.8475 146.76 47.5651 146.648 46.2828 146.441C45.0004 146.235 43.7091 145.993 42.4133 145.746C40.4898 145.37 38.5797 144.895 36.683 144.401L36.7234 144.397Z" fill="black"/>
<path d="M30.7732 64.6441C30.6266 64.6101 30.487 64.5509 30.3607 64.4692C30.3248 64.4692 30.3607 64.4109 30.3921 64.4199L30.679 64.4647C30.7373 64.4647 31.661 64.6799 31.9748 64.7293L32.8716 64.9041C33.4903 65.0252 34.1091 65.1328 34.7324 65.227C34.8713 65.2494 35.0103 65.2763 35.1449 65.3077C35.6125 65.4145 36.0855 65.4968 36.5617 65.5543C36.6408 65.5611 36.7203 65.5611 36.7994 65.5543C36.9294 65.5543 38.2162 65.7112 38.3821 65.7516C38.7902 65.8368 39.2027 65.904 39.6197 65.9713C39.6794 65.9741 39.7384 65.9862 39.7945 66.0071C39.9164 66.048 40.043 66.0736 40.1712 66.0834L40.7047 66.1686C40.7925 66.1847 40.8793 66.2057 40.9648 66.2313C41.0455 66.2537 41.0007 66.2941 40.9648 66.2986C40.9289 66.3031 40.9648 66.3389 40.9648 66.3569C40.9648 66.3748 40.9648 66.3569 40.9648 66.3793H40.7944L40.4178 66.4017C40.2102 66.4143 40.0021 66.4143 39.7945 66.4017L38.9874 66.3434L38.0907 66.2672C37.9999 66.2573 37.91 66.2408 37.8217 66.2179L36.5259 66.0475C36.2758 66.0129 36.0286 65.9604 35.786 65.8906C35.7394 65.8754 35.6913 65.8648 35.6426 65.8592C35.1942 65.7874 34.7906 65.6843 34.3736 65.5812L33.728 65.4287L33.6114 65.3973L33.4679 65.357C32.9568 65.2314 32.4546 65.0924 31.9479 64.9624L31.1498 64.7203C31.0826 64.7562 30.8404 64.6575 30.7732 64.6441Z" fill="black"/>
<path d="M34.8356 62.8998C34.7108 62.8753 34.5947 62.818 34.4993 62.7339C34.4679 62.7339 34.4993 62.6666 34.5307 62.6711L34.7728 62.7025C34.8222 62.7025 35.5889 62.8863 35.8534 62.9177L36.6157 63.0478L38.1715 63.2809L38.5168 63.3347C38.9114 63.4109 39.3104 63.4647 39.7095 63.5051C39.7767 63.5096 39.8441 63.5096 39.9112 63.5051C40.0189 63.5051 41.1039 63.6217 41.2564 63.6441L42.2921 63.8369C42.3427 63.8404 42.3925 63.851 42.4401 63.8683C42.5398 63.91 42.646 63.9343 42.7539 63.94L43.2023 64.0252C43.2756 64.0459 43.3475 64.0714 43.4175 64.1014C43.4803 64.1014 43.4175 64.1732 43.4175 64.1732C43.4175 64.1732 43.4175 64.2135 43.4175 64.236V64.2584H43.2741H42.9647L42.4491 64.2315L41.7855 64.1552L41.0277 64.079C40.9538 64.0714 40.8805 64.0595 40.808 64.0432L39.7229 63.9311C39.5146 63.9102 39.308 63.8757 39.1042 63.8279H38.9786C38.6199 63.7831 38.2657 63.7203 37.907 63.6575L37.36 63.5679H37.2658L37.1403 63.5365C36.6919 63.4558 36.2839 63.3527 35.8579 63.2585C35.7593 63.2585 35.2974 63.0926 35.1853 63.0612C35.0733 63.0298 34.8894 62.9088 34.8356 62.8998Z" fill="black"/>
<path d="M40.79 61.1062C40.7378 61.1116 40.6851 61.1046 40.636 61.0859C40.587 61.0672 40.543 61.0373 40.5076 60.9986C40.4807 60.9986 40.5076 60.9044 40.5076 60.8955L40.6959 60.8461C40.7362 60.8461 41.3595 60.8103 41.5926 60.8103C41.798 60.8064 42.0034 60.8184 42.2069 60.8461C42.6194 60.8999 43.0319 60.9537 43.4399 61.0255C43.5308 61.0411 43.6206 61.0621 43.709 61.0883C44.0139 61.1779 44.3232 61.2407 44.6326 61.299C44.6832 61.3056 44.7345 61.3056 44.7851 61.299C45.1298 61.3422 45.4713 61.4081 45.8074 61.4963L46.5876 61.7519C46.6277 61.7558 46.6662 61.7696 46.6996 61.7922C46.7686 61.842 46.8486 61.8743 46.9328 61.8864C47.0494 61.9133 47.1615 61.9447 47.2736 61.9805C47.3286 62.0036 47.3812 62.0322 47.4305 62.0657C47.4753 62.0971 47.4305 62.1599 47.4305 62.1644C47.4305 62.1689 47.4305 62.2137 47.4305 62.2451C47.4305 62.2765 47.4305 62.2451 47.4305 62.272C47.1737 62.2898 46.9161 62.2898 46.6593 62.272L45.5608 62.0792C45.5027 62.0675 45.4457 62.051 45.3904 62.0299L44.5609 61.8684C44.4079 61.8363 44.2579 61.7913 44.1125 61.7339C44.0832 61.7189 44.0512 61.7097 44.0184 61.707C43.7448 61.6532 43.4758 61.5815 43.2068 61.5187C43.0678 61.4828 42.9288 61.4649 42.7898 61.438L42.7136 61.4156H42.6194C42.2921 61.3618 41.9603 61.299 41.6285 61.2676C41.5523 61.2676 41.1801 61.1779 41.1039 61.1779C41.0015 61.1453 40.8965 61.1213 40.79 61.1062Z" fill="black"/>
<path d="M46.5206 59.1914C46.404 59.1914 46.3188 59.1331 46.2471 59.0075C46.2471 58.9672 46.2471 58.864 46.2785 58.8506C46.3461 58.8299 46.415 58.8135 46.4847 58.8013C46.5251 58.8013 47.1662 58.8327 47.3815 58.8551C47.5913 58.8707 47.7996 58.9022 48.0047 58.9492C48.4262 59.0344 48.8432 59.1241 49.2557 59.2227C49.3474 59.2422 49.4374 59.2692 49.5247 59.3034C49.829 59.4134 50.1406 59.5018 50.4573 59.568C50.5076 59.5862 50.5608 59.5954 50.6143 59.5949C50.9644 59.6588 51.3103 59.7442 51.65 59.8505C51.9101 59.9536 52.1746 60.0433 52.4392 60.1329C52.4795 60.1329 52.5199 60.1329 52.5512 60.1778C52.6202 60.2322 52.7021 60.2677 52.7889 60.2809C52.9055 60.3168 53.022 60.3482 53.1341 60.3885C53.1913 60.4138 53.2454 60.4454 53.2955 60.4827C53.3449 60.5096 53.2955 60.5724 53.2955 60.5768C53.2955 60.5813 53.2731 60.6306 53.2731 60.6575V60.6979C53.1477 60.7057 53.0219 60.7057 52.8965 60.6979C52.7562 60.7084 52.6153 60.7084 52.475 60.6979L51.3361 60.4961C51.2765 60.483 51.218 60.465 51.1613 60.4423L50.3049 60.2675C50.1397 60.2362 49.9797 60.1819 49.8296 60.106C49.7992 60.089 49.7656 60.0783 49.731 60.0747C49.453 60.0029 49.1839 59.9132 48.9059 59.828C48.7669 59.7832 48.6235 59.7563 48.4845 59.7204L48.4082 59.6891C48.3783 59.6746 48.3467 59.664 48.3141 59.6577C47.9778 59.5814 47.646 59.4783 47.3052 59.429C47.229 59.429 46.8569 59.2945 46.7762 59.2855C46.6954 59.2765 46.5654 59.1824 46.5206 59.1914Z" fill="black"/>
<path d="M52.9634 58.1202C52.8872 58.1471 52.8379 58.0753 52.7886 57.9453C52.769 57.8856 52.769 57.8212 52.7886 57.7615C52.8312 57.7287 52.8779 57.7016 52.9276 57.6808C53.1271 57.6599 53.3278 57.6509 53.5284 57.6539C53.6671 57.653 53.8056 57.668 53.9409 57.6987C54.2189 57.7525 54.4924 57.8108 54.7614 57.8825C54.8205 57.8968 54.8776 57.9178 54.9318 57.9453C55.1209 58.0385 55.3214 58.1063 55.5281 58.1471C55.5615 58.1587 55.5979 58.1587 55.6313 58.1471C55.8571 58.1817 56.0793 58.2372 56.2949 58.313C56.4518 58.4027 56.6177 58.4654 56.7791 58.5461C56.8015 58.5461 56.8329 58.5461 56.8464 58.5865C56.8598 58.6268 56.9405 58.6627 56.9943 58.6807C57.0676 58.7051 57.1394 58.7336 57.2096 58.7658C57.2451 58.791 57.2769 58.8212 57.3037 58.8555C57.3351 58.8824 57.3037 58.9631 57.3037 58.9676C57.3037 58.9721 57.2813 59.0304 57.2813 59.0663C57.2813 59.1021 57.2813 59.0932 57.2813 59.1021C57.1048 59.1441 56.9246 59.1682 56.7432 59.1739C56.7432 59.1739 56.0707 59.0663 55.9989 59.0483C55.9604 59.0385 55.924 59.0218 55.8913 58.999L55.3398 58.9048C55.2333 58.8821 55.1326 58.8379 55.0439 58.7748C55.0232 58.7705 55.0018 58.7705 54.9811 58.7748C54.8063 58.73 54.6359 58.6582 54.461 58.5955C54.3758 58.5641 54.2817 58.5506 54.1965 58.5237C54.1113 58.4968 54.1651 58.5237 54.1471 58.5013H54.0889C53.8814 58.4363 53.6682 58.3913 53.4522 58.3668C53.3439 58.3265 53.233 58.2936 53.1204 58.2681C53.089 58.2054 52.9948 58.1067 52.9634 58.1202Z" fill="black"/>
<path d="M39.8396 61.9804C39.7826 61.9836 39.726 61.9689 39.6778 61.9384C39.6295 61.9078 39.592 61.8629 39.5706 61.81C39.5482 61.7741 39.5706 61.6755 39.602 61.6665L39.7993 61.6172C39.8396 61.6172 40.4718 61.6531 40.696 61.6665C40.9021 61.6824 41.1071 61.7093 41.3103 61.7472L42.5433 61.958C42.633 61.9759 42.7227 61.9983 42.8124 62.0252C43.1163 62.1125 43.4266 62.1754 43.7405 62.2135C43.7924 62.2228 43.8455 62.2228 43.8974 62.2135C44.2455 62.2383 44.5915 62.2862 44.9332 62.357C45.1977 62.4287 45.4668 62.4826 45.7358 62.5364C45.7745 62.5384 45.8125 62.5475 45.8479 62.5633C45.9228 62.6068 46.0078 62.6299 46.0945 62.6305C46.2111 62.6305 46.3276 62.6529 46.4442 62.6754C46.5041 62.6891 46.5615 62.7118 46.6146 62.7426C46.6684 62.765 46.6415 62.8413 46.6146 62.8457C46.5877 62.8502 46.6146 62.9085 46.6146 62.9399C46.6146 62.9713 46.6146 62.9623 46.6146 62.9713C46.3582 63.0324 46.0973 63.0729 45.8344 63.0923H45.2964L44.6866 63.0565C44.6254 63.0499 44.5653 63.0364 44.5072 63.0161C44.4803 63.0161 43.6732 62.9264 43.6463 62.913C43.4803 62.8919 43.3175 62.8497 43.1621 62.7875C43.1303 62.7757 43.0972 62.7682 43.0635 62.765C42.781 62.7157 42.5075 62.6395 42.2295 62.5722C42.0905 62.5364 41.947 62.5095 41.7811 62.4826C41.755 62.4756 41.7295 62.4666 41.7049 62.4557L41.6107 62.4287C41.2744 62.3615 40.9426 62.2718 40.6064 62.227C40.5256 62.227 40.158 62.1014 40.0773 62.0969C39.9966 62.0925 39.8845 61.9759 39.8396 61.9804Z" fill="black"/>
<path d="M45.592 60.1826C45.5023 60.1826 45.453 60.1064 45.4351 59.9539C45.4351 59.9001 45.4709 59.7656 45.4978 59.7566C45.5495 59.7305 45.6035 59.7095 45.6592 59.6938C45.6906 59.6938 46.1435 59.7342 46.3004 59.7387C46.4518 59.7483 46.602 59.7723 46.7488 59.8104L47.6456 59.9943C47.7115 60.0075 47.7761 60.027 47.8384 60.0526C48.0522 60.1415 48.2768 60.2018 48.5064 60.2319C48.5445 60.2431 48.585 60.2431 48.623 60.2319C48.8813 60.2489 49.1361 60.3001 49.3808 60.3844C49.5646 60.4785 49.7574 60.5547 49.9457 60.6354C49.9726 60.6354 50.004 60.6354 50.022 60.6803C50.0399 60.7251 50.1296 60.761 50.1923 60.7834C50.2753 60.8105 50.3562 60.8434 50.4345 60.8821C50.4746 60.9116 50.5108 60.9463 50.5421 60.9852C50.5735 61.021 50.5421 61.1062 50.5152 61.1107C50.4883 61.1152 50.4883 61.1825 50.4838 61.2228C50.4793 61.2632 50.4838 61.2497 50.4838 61.2587C50.2918 61.2975 50.0967 61.3185 49.9009 61.3215L49.5198 61.2677C49.327 61.2452 49.1252 61.2183 49.0714 61.2183C49.0283 61.2122 48.987 61.1969 48.9503 61.1735L48.3271 61.0883C48.2059 61.0738 48.0895 61.0324 47.9863 60.9672C47.9641 60.9634 47.9413 60.9634 47.9191 60.9672C47.7153 60.9257 47.5145 60.8702 47.3182 60.8013C47.2151 60.77 47.1075 60.752 47.0044 60.7251H46.9551C46.9345 60.7111 46.9118 60.7005 46.8878 60.6937C46.6412 60.6399 46.4036 60.5503 46.1525 60.5099C46.0942 60.5099 45.8431 60.3619 45.7758 60.353C45.7086 60.344 45.6279 60.1781 45.592 60.1826Z" fill="black"/>
<path d="M51.354 58.6443C51.2644 58.6443 51.215 58.5771 51.1837 58.4695C51.1818 58.4466 51.1848 58.4235 51.1925 58.4019C51.2002 58.3802 51.2125 58.3605 51.2285 58.3439C51.2807 58.3398 51.3332 58.3398 51.3854 58.3439L52.0176 58.4471C52.1656 58.4695 52.3136 58.5053 52.466 58.5412L53.3628 58.7475C53.4297 58.7628 53.4956 58.7822 53.5601 58.8058C53.7803 58.8877 54.0067 58.9521 54.2371 58.9986C54.2757 59.0051 54.3151 59.0051 54.3537 58.9986C54.6115 59.0522 54.8649 59.1257 55.1114 59.2183L55.6809 59.4873C55.7078 59.4873 55.7392 59.4873 55.7571 59.5321C55.8028 59.579 55.86 59.6131 55.923 59.6308C56.0059 59.6666 56.0867 59.707 56.1651 59.7518C56.201 59.7743 56.2324 59.8101 56.2682 59.837C56.3041 59.8639 56.2682 59.9043 56.2458 59.9043C56.2234 59.9043 56.2458 59.9402 56.2189 59.9626C56.2189 59.9626 56.0889 59.9626 55.9544 59.9267C55.8199 59.8908 55.6809 59.8908 55.654 59.8819L55.2818 59.7832L54.8334 59.6891C54.7909 59.6809 54.75 59.6657 54.7124 59.6442C54.7124 59.6442 54.116 59.5321 54.0936 59.5276C53.9733 59.5065 53.8569 59.4672 53.7484 59.4111C53.7275 59.3996 53.7047 59.392 53.6811 59.3887C53.4749 59.3393 53.2776 59.2721 53.0758 59.2093L52.7664 59.1286C52.7475 59.1239 52.7293 59.1163 52.7126 59.1062C52.6898 59.0945 52.6657 59.0855 52.6409 59.0793C52.3943 59.0165 52.1522 58.9313 51.9055 58.8775C51.8473 58.8775 51.5872 58.743 51.5199 58.7251C51.4527 58.7071 51.3899 58.6443 51.354 58.6443Z" fill="black"/>
<path d="M35.0242 63.9983C34.9398 63.9788 34.8607 63.941 34.7925 63.8875C34.7244 63.834 34.6688 63.7663 34.6296 63.689C34.6027 63.6396 34.6521 63.5455 34.7059 63.55C34.7597 63.5544 34.9211 63.55 35.0242 63.5858C35.1273 63.6217 36.0555 63.8952 36.3963 63.9445L37.3647 64.1642C38.0283 64.3077 38.7099 64.4243 39.369 64.5274C39.5169 64.5498 39.6649 64.5767 39.8174 64.6126C40.3266 64.725 40.8415 64.8103 41.3598 64.8682C41.4462 64.8771 41.5334 64.8771 41.6198 64.8682C41.6916 64.8682 42.0682 64.9085 42.4718 64.9623C42.8753 65.0161 43.2609 65.1103 43.3685 65.1327C43.8169 65.2672 44.2653 65.3704 44.7136 65.5273C44.7802 65.5397 44.844 65.564 44.902 65.599C45.024 65.6727 45.1573 65.7257 45.2965 65.756C45.4848 65.8143 45.6732 65.8815 45.857 65.9577C45.9459 65.9981 46.0327 66.043 46.1171 66.0923C46.1933 66.1326 46.1171 66.1685 46.1171 66.1685C46.1171 66.1685 46.0857 66.2044 46.0902 66.2268C46.0946 66.2492 46.0902 66.2268 46.0902 66.2537H45.9063L45.5028 66.2043C45.2113 66.1685 44.8975 66.1461 44.8392 66.1326C44.7809 66.1192 44.3908 66.0788 43.9873 66.0026C43.5837 65.9264 43.0905 65.877 43.0188 65.8725C42.9217 65.8585 42.8258 65.8376 42.7318 65.8098L41.3374 65.6304C41.0672 65.5972 40.8003 65.5418 40.5392 65.4645C40.4864 65.4498 40.4324 65.4393 40.3778 65.4331C39.9295 65.3659 39.4542 65.2717 38.9924 65.1731L38.2839 65.0341L38.1584 64.9982L38.0014 64.9534C37.441 64.8368 36.8895 64.6844 36.3335 64.5364C36.2034 64.5095 35.6206 64.2629 35.4726 64.218C35.3336 64.1867 35.1184 64.0163 35.0242 63.9983Z" fill="black"/>
<path d="M53.9811 58.9046C54.31 58.777 54.6453 58.6662 54.9855 58.5728C55.0841 58.5728 55.0886 58.5952 54.9855 58.649C54.7747 58.7431 54.5685 58.8552 54.3488 58.9449C54.286 58.9718 53.721 59.196 53.0709 59.3933C52.4207 59.5906 51.6809 59.8103 51.3088 59.9089C50.5869 60.1062 49.8605 60.2721 49.1297 60.438C47.651 60.7517 46.1889 61.1393 44.749 61.5993L43.7895 61.9087C42.691 62.2539 41.6014 62.635 40.5119 63.0296C40.3325 63.0969 40.1442 63.1597 39.9738 63.2359C39.6958 63.3659 36.732 64.3972 36.333 64.5003C35.369 64.7962 34.396 65.0787 33.4141 65.3298C33.2751 65.3657 33.1271 65.4105 32.9971 65.4329C32.6947 65.4896 32.3954 65.5614 32.1003 65.6481C31.6788 65.7513 31.2529 65.8544 30.8314 65.9396C30.6207 65.9844 30.4099 66.0158 30.2037 66.0517C29.9974 66.0876 30.1095 66.0248 30.1723 66.0068C30.3606 65.9486 30.1992 65.971 30.1723 65.9575L30.5624 65.8454C30.791 65.7827 31.1004 65.6975 31.4188 65.5988C32.0465 65.4195 32.7011 65.1953 32.8312 65.1504L33.4141 64.9666L34.6605 64.5586C35.5573 64.2537 36.5303 63.9264 36.7231 63.8546C36.9159 63.7829 37.1356 63.7201 37.3418 63.6574L40.2832 62.6081C40.8526 62.4153 41.4176 62.2091 41.996 62.0432C42.1081 62.0118 42.2247 61.9715 42.3412 61.9311C43.3187 61.5963 44.3066 61.281 45.305 60.985C45.8162 60.8371 46.3318 60.707 46.8474 60.5815L47.1299 60.5232L47.4841 60.447C48.7082 60.1735 49.9367 59.9448 51.1518 59.6533C51.4343 59.5906 52.766 59.2767 53.0799 59.1646C53.2413 59.1377 53.8287 58.9853 53.9811 58.9046Z" fill="black"/>
<path d="M51.7306 60.1871C51.9954 60.0407 52.2863 59.9478 52.587 59.9136C52.6767 59.9136 52.6991 59.9808 52.6139 60.0346L52.1027 60.335C52.0041 60.4068 50.2644 61.2318 49.6546 61.4739C49.0448 61.716 48.4843 61.9492 47.888 62.1689C46.6818 62.6173 45.4623 63.0208 44.2337 63.3885C43.9602 63.4737 43.6867 63.5544 43.4087 63.6217C42.4626 63.8683 41.5255 64.1418 40.5929 64.4242C40.436 64.4736 40.279 64.5184 40.1445 64.5767C39.9024 64.6709 37.3735 65.4376 37.0462 65.5273C36.2257 65.747 35.4141 65.9756 34.5981 66.2357C34.4838 66.2749 34.3669 66.3064 34.2484 66.3298C33.9916 66.378 33.7396 66.4485 33.4951 66.5406C33.1454 66.6527 32.8046 66.7737 32.4548 66.8769C32.28 66.9307 32.1051 66.971 31.9302 67.0159C31.7554 67.0607 31.8406 66.989 31.8899 66.9621C32.0379 66.8858 31.8899 66.9127 31.8899 66.9038L32.8763 66.415C33.383 66.1819 33.921 65.9667 34.0287 65.9084L34.5129 65.7201L35.5621 65.3479L37.3197 64.7695C37.4901 64.7157 37.6695 64.6709 37.8488 64.626L40.3732 63.8503C40.8619 63.7158 41.3462 63.5544 41.8439 63.4557C41.9425 63.4557 42.0411 63.4064 42.1353 63.3795L44.6507 62.6532C45.0991 62.5321 45.4981 62.3886 45.9241 62.2541L46.1572 62.1958L46.4487 62.1106C47.4486 61.7788 48.4529 61.465 49.4304 61.0749C49.6591 60.9942 50.7441 60.5996 50.9997 60.483C51.1163 60.4068 51.6095 60.2499 51.7306 60.1871Z" fill="black"/>
<path d="M45.0047 60.0258C45.252 59.9088 45.5147 59.8273 45.7849 59.7837C45.8611 59.7837 45.8745 59.8285 45.7849 59.8734C45.6279 59.9586 45.4755 60.0482 45.3096 60.1289C45.2603 60.1558 44.8343 60.3442 44.3411 60.5414C43.8479 60.7387 43.2964 60.927 42.996 61.0257C42.4489 61.214 41.8974 61.3844 41.3414 61.5413L37.9966 62.4919L37.2522 62.6937C36.4003 62.9223 35.5574 63.2048 34.7234 63.5052C34.5844 63.559 34.4409 63.6039 34.3109 63.6666C34.1002 63.7653 31.8359 64.5993 31.5354 64.6934C30.7956 64.9266 30.0558 65.1866 29.2936 65.3884C29.1875 65.4211 29.0797 65.448 28.9707 65.4691C28.7356 65.5126 28.5035 65.571 28.2757 65.644C27.9529 65.7336 27.6301 65.8144 27.3028 65.8906C27.1414 65.9265 26.9799 65.9489 26.8185 65.9758C26.6571 66.0027 26.7423 65.9399 26.7916 65.922C26.9306 65.8682 26.7916 65.8771 26.7916 65.8637L27.0831 65.765L27.7332 65.5408C28.2085 65.3705 28.7017 65.1777 28.8003 65.1463L30.1903 64.6441L31.7641 64.0657C31.9166 64.0074 32.078 63.9581 32.2394 63.9043L34.4813 63.0703C34.9297 62.9223 35.3556 62.7564 35.8264 62.6219L36.0909 62.5412C36.8487 62.2901 37.6244 62.0928 38.4001 61.8821L39.5793 61.5727L39.7945 61.5234L40.0636 61.4651C40.9962 61.223 41.9333 61.0167 42.848 60.7118C43.0587 60.6535 44.0721 60.3576 44.3097 60.2635C44.4352 60.2007 44.8881 60.0841 45.0047 60.0258Z" fill="black"/>
<path d="M50.5826 62.3975C50.7184 62.3199 50.8758 62.2884 51.031 62.3079C51.0412 62.3094 51.0508 62.3138 51.0585 62.3207C51.0663 62.3275 51.0719 62.3364 51.0747 62.3463C51.0776 62.3562 51.0775 62.3668 51.0745 62.3766C51.0715 62.3865 51.0658 62.3953 51.0579 62.402L50.8158 62.559C50.7665 62.5948 49.919 62.9804 49.6276 63.1015C49.3361 63.2226 49.0626 63.3346 48.7757 63.4423C48.1928 63.6575 47.6099 63.8682 47.0225 64.07C46.8925 64.1148 46.758 64.1597 46.6279 64.1955C46.1796 64.3256 45.7312 64.4735 45.2828 64.6439C45.2076 64.6669 45.1341 64.6953 45.0631 64.7291C44.9465 64.7874 43.7404 65.1775 43.579 65.2447C43.1844 65.3568 42.7943 65.4824 42.3998 65.6034C42.3465 65.626 42.2908 65.6426 42.2339 65.6528C42.1079 65.6734 41.9845 65.708 41.8662 65.7559L41.3685 65.9263C41.2829 65.9504 41.1961 65.9699 41.1084 65.9846C41.0322 65.9846 41.0546 65.9352 41.077 65.9218C41.0995 65.9083 41.077 65.8769 41.077 65.859L41.225 65.7783L41.5523 65.6169C41.7989 65.5003 42.0545 65.3837 42.1083 65.3658L43.6373 64.7336C43.718 64.7022 43.8032 64.6843 43.8884 64.6574L45.0945 64.209C45.3277 64.1372 45.5429 64.0476 45.7985 63.9982L45.9374 63.9579C46.3365 63.8189 46.74 63.6934 47.1436 63.5678L47.7534 63.3571L47.8655 63.3257L48.0045 63.2808C48.4842 63.106 48.9685 62.949 49.4393 62.7518C49.5469 62.7114 50.0804 62.5365 50.2015 62.4783C50.3226 62.42 50.5243 62.4334 50.5826 62.3975Z" fill="black"/>
<path d="M48.8834 58.8595C49.1236 58.7254 49.3841 58.6315 49.6546 58.5815C49.7353 58.5815 49.7577 58.6354 49.6815 58.6892C49.6053 58.743 49.3856 58.8999 49.2331 58.994C49.1838 59.021 48.7848 59.2451 48.2871 59.4693C47.7894 59.6935 47.2513 59.9177 46.9733 60.0343C46.4308 60.2495 45.8838 60.4423 45.3367 60.6306C44.2158 60.9848 43.1173 61.3794 42.0053 61.7695C41.7587 61.8547 41.5121 61.9354 41.261 62.0116C40.4046 62.2762 39.5572 62.5542 38.7142 62.8546C38.5725 62.8995 38.4334 62.9519 38.2972 63.0115C38.082 63.1146 35.7908 63.9083 35.4904 64.0114C34.7461 64.2445 34.0063 64.4956 33.2709 64.7512C33.1666 64.791 33.0604 64.8254 32.9526 64.8543C32.7195 64.9079 32.4915 64.9814 32.271 65.074L31.3294 65.4238C31.1725 65.4776 31.0111 65.5179 30.8542 65.5628C30.6972 65.6076 30.7645 65.5179 30.8093 65.491C30.9394 65.4193 30.8093 65.4372 30.8093 65.4193C30.8093 65.4014 30.8093 65.4193 30.8093 65.3969L30.8856 65.3565L31.0873 65.2579L31.7151 64.9575C32.1634 64.7422 32.6656 64.5091 32.7643 64.4822L35.728 63.303C35.885 63.2402 36.0464 63.1909 36.2033 63.1415L38.4721 62.2851C38.9205 62.1327 39.3688 61.9578 39.8172 61.8368C39.9069 61.8143 39.9921 61.7785 40.0818 61.7471C40.8395 61.4825 41.6018 61.2449 42.364 60.9983L43.5298 60.6037L43.745 60.5454L44.014 60.4647C44.9377 60.1598 45.8748 59.9132 46.785 59.5949C46.9957 59.5276 48.0046 59.2093 48.2377 59.1017C48.3184 59.0568 48.7713 58.9044 48.8834 58.8595Z" fill="black"/>
<path d="M34.4993 111.544C36.239 111.943 37.9787 112.324 39.7273 112.665C40.3685 112.791 41.0097 112.889 41.6509 113.002C43.8928 113.45 46.1616 113.8 48.4303 114.122C49.4392 114.257 50.457 114.333 51.4614 114.414L53.4028 114.495C54.0485 114.495 54.6897 114.495 55.3398 114.553C55.7389 114.575 55.6941 114.741 55.3398 114.916C54.7926 115.158 54.2026 115.287 53.6046 115.297C50.921 115.289 48.2426 115.059 45.5966 114.611C44.803 114.463 43.9914 114.347 43.1754 114.226L40.7362 113.836L38.0728 113.329L35.4229 112.782L32.1677 112.06C30.5311 111.688 28.8901 111.28 27.267 110.89C26.007 110.58 24.7516 110.347 23.5051 109.993C23.2271 109.917 22.9581 109.854 22.6801 109.773C22.3118 109.664 21.9569 109.513 21.6219 109.325C21.4515 109.206 21.3253 109.034 21.2632 108.836C21.2361 108.772 21.2195 108.704 21.2139 108.634C21.2139 108.54 21.3349 108.509 21.5322 108.509C21.6493 108.51 21.7661 108.519 21.882 108.536C22.0486 108.554 22.2135 108.585 22.3752 108.63L29.2353 110.289C30.975 110.71 32.7282 111.127 34.4858 111.508L34.4993 111.544Z" fill="black"/>
<path d="M70.6789 111.441C69.7643 111.809 68.8451 112.165 67.9214 112.508C67.5852 112.638 67.2534 112.786 66.9171 112.903C65.7214 113.33 64.5078 113.708 63.2762 114.037C62.7337 114.194 62.1822 114.338 61.6397 114.486C60.9454 114.707 60.2206 114.817 59.4919 114.813C59.2633 114.813 59.2857 114.669 59.4516 114.477C59.6621 114.201 59.9671 114.012 60.308 113.948L61.3437 113.705L62.3795 113.436L64.4824 112.889C65.337 112.633 66.178 112.334 67.0023 111.993C67.9199 111.646 68.8376 111.289 69.7553 110.921L71.4412 110.222C72.2841 109.863 73.1405 109.504 73.9745 109.137C74.6247 108.845 75.2389 108.518 75.8846 108.24L76.333 108.06C76.88 107.859 77.0728 107.845 77.2297 107.93C77.2673 107.945 77.3034 107.963 77.3373 107.984C77.427 108.051 77.2477 108.235 76.889 108.459L76.0684 108.962L75.2076 109.41C74.6292 109.706 74.0328 109.997 73.4141 110.307C72.5173 110.71 71.6205 111.096 70.6834 111.482L70.6789 111.441Z" fill="black"/>
<path d="M80.6823 128.255C80.4716 130.654 80.2339 133.043 79.9335 135.429L79.8349 136.092L79.8035 136.267C79.8035 136.357 79.7452 136.442 79.7138 136.532C79.6958 136.573 79.6733 136.612 79.6466 136.648C79.6466 136.711 79.5928 136.72 79.5659 136.761C79.4984 136.812 79.428 136.86 79.3551 136.904C78.983 137.146 78.6108 137.384 78.2297 137.603C75.5394 139.173 72.7864 140.576 69.9885 141.908C68.7465 142.491 67.5045 143.092 66.2625 143.652C64.6772 144.405 63.0499 145.067 61.3887 145.634C60.8641 145.804 60.882 145.634 61.2586 145.325C61.8852 144.86 62.5676 144.476 63.2898 144.181C66.554 142.787 69.7464 141.226 72.9658 139.644C74.8893 138.693 76.8308 137.577 78.6781 136.42L79.0009 136.218C79.0127 136.213 79.0229 136.206 79.0301 136.195C79.0373 136.185 79.0412 136.172 79.0413 136.16V136.124V136.025C79.0906 135.738 79.1309 135.438 79.1713 135.128L79.3775 133.335C79.5031 132.133 79.6197 130.927 79.7228 129.726C79.8483 128.241 79.9649 126.757 80.0636 125.273C80.2115 123.031 80.346 120.789 80.3998 118.547C80.4447 116.808 80.3998 115.104 80.364 113.391C80.364 113.014 80.3371 112.642 80.3191 112.266C80.2878 110.853 80.3191 110.405 80.5209 110.091C80.5533 110.02 80.5908 109.951 80.633 109.885C80.7316 109.741 80.9782 110.306 81.0814 111.351C81.3034 114.549 81.3318 117.758 81.1666 120.96C81.0634 123.381 80.8886 125.811 80.7182 128.232L80.6823 128.255Z" fill="black"/>
<path d="M56.8642 135.909C56.945 134.393 57.0167 132.873 57.0705 131.358L57.1019 129.694C57.1602 127.744 57.2364 125.789 57.2723 123.834C57.2723 122.969 57.2723 122.099 57.2723 121.238C57.2723 120.13 57.2185 119.023 57.2499 117.92C57.2499 117.575 57.3709 117.615 57.5009 117.92C57.6954 118.383 57.8106 118.876 57.8417 119.377C58.0101 121.634 58.058 123.899 57.9852 126.161C57.9448 127.506 57.9852 128.945 57.9583 130.34C57.9344 131.873 57.8955 133.407 57.8417 134.94L57.7296 137.769C57.6758 139.2 57.5727 140.635 57.5009 142.051C57.4651 142.603 57.4427 143.15 57.4292 143.697L57.3395 145.338C57.3126 145.585 57.2947 145.822 57.2633 146.064C57.2319 146.307 57.205 146.477 57.1691 146.634C57.1348 146.764 57.0914 146.891 57.0391 147.015C57.0096 147.097 56.9638 147.171 56.9045 147.234C56.8451 147.298 56.7734 147.348 56.6939 147.383C56.6369 147.417 56.5768 147.445 56.5145 147.468C56.3486 147.508 56.2186 147.1 56.2948 146.481C56.389 144.54 56.4921 142.522 56.5952 140.491L56.8239 135.909H56.8642Z" fill="black"/>
<path d="M65.693 104.325L63.7157 104.953C63.4736 105.029 63.2404 105.128 63.0028 105.204L60.456 105.984C60.0793 106.105 59.7072 106.24 59.3395 106.379C58.8771 106.573 58.4023 106.736 57.9182 106.868C57.6133 106.939 57.8464 106.356 58.3666 106.128C59.3136 105.734 60.2804 105.39 61.2631 105.096C61.8549 104.926 62.4468 104.648 63.0566 104.455L65.0249 103.787L66.24 103.375C66.8498 103.159 67.4641 102.958 68.0649 102.725C68.5133 102.541 68.9617 102.321 69.4101 102.119C69.5087 102.074 69.6029 102.025 69.706 101.985C70.0826 101.832 70.2216 101.837 70.3786 101.985C70.4168 102.021 70.4528 102.06 70.4862 102.101C70.5803 102.24 70.4862 102.424 70.2082 102.572C69.396 103.005 68.5485 103.368 67.6749 103.657C67.0202 103.89 66.3297 104.106 65.693 104.33V104.325Z" fill="black"/>
<path d="M47.5379 106.536L44.0854 105.805C43.664 105.715 43.238 105.662 42.821 105.563C41.3414 105.236 39.8662 104.881 38.3955 104.532C37.7409 104.375 37.0773 104.24 36.4227 104.115C35.5756 103.973 34.7418 103.762 33.9297 103.482C33.6741 103.384 33.7593 103.191 34.0284 103.034C34.3978 102.837 34.8227 102.771 35.2345 102.846C36.0954 102.985 36.9383 103.187 37.7857 103.388C38.6332 103.59 39.4806 103.81 40.328 104.047C41.3459 104.33 42.4264 104.496 43.4667 104.711L46.9461 105.406C47.659 105.54 48.3764 105.68 49.0893 105.805C50.1744 105.998 51.264 106.195 52.349 106.339C53.192 106.451 54.0304 106.487 54.8644 106.554C55.0483 106.554 55.2321 106.554 55.4159 106.585C55.6605 106.613 55.9003 106.673 56.1288 106.765C56.258 106.831 56.3619 106.938 56.4248 107.069C56.4562 107.122 56.4832 107.178 56.5055 107.235C56.5324 107.321 56.4696 107.392 56.3351 107.455C56.1469 107.544 55.9425 107.595 55.7343 107.603C54.1594 107.626 52.5864 107.488 51.0398 107.191C49.8695 107.007 48.6992 106.783 47.529 106.563L47.5379 106.536Z" fill="black"/>
<path d="M26.98 67.9933L26.1371 67.9395C26.034 67.9395 25.9308 67.9395 25.8277 67.9395C25.4578 67.9079 25.0906 67.8495 24.7292 67.7647L24.2494 67.6615C24.0393 67.6264 23.8372 67.5535 23.6531 67.4463C23.541 67.3791 23.8279 67.1235 24.0342 67.1683C24.4153 67.2535 24.7964 67.3028 25.1955 67.3791C25.4423 67.4107 25.6914 67.4197 25.9398 67.406H26.7783H27.3029C27.5674 67.406 27.8364 67.406 28.101 67.406C28.3655 67.406 28.5135 67.3791 28.7242 67.406C28.7705 67.4036 28.8169 67.4036 28.8632 67.406C29.0336 67.4463 29.0784 67.5001 29.0829 67.6481C29.0829 67.6795 29.0829 67.7154 29.0829 67.7467C29.0754 67.8007 29.0502 67.8507 29.0112 67.8888C28.9723 67.9269 28.9218 67.9511 28.8677 67.9575C28.5193 68.0365 28.1603 68.0577 27.805 68.0202L26.9755 67.9844L26.98 67.9933Z" fill="black"/>
<path d="M35.0821 69.9749C36.6753 70.3336 38.273 70.6759 39.8752 71.0017L41.6374 71.3201C43.6999 71.7236 45.7669 72.1227 47.8429 72.4634C48.7621 72.6114 49.6902 72.7324 50.6094 72.8311C51.7931 72.9611 52.9813 73.0687 54.1516 73.2795C54.5147 73.3467 54.4475 73.5485 54.1157 73.7278C53.6126 73.9755 53.0513 74.081 52.4926 74.0327C51.2685 73.952 50.0579 73.7861 48.8473 73.5844C47.6366 73.3826 46.435 73.1763 45.2289 72.9208C43.7896 72.6159 42.2741 72.4096 40.7989 72.1316C39.1728 71.8327 37.5512 71.5099 35.934 71.1631L32.9478 70.5623L28.4641 69.5355C27.3028 69.271 26.1504 69.0871 25.0026 68.7688C24.747 68.706 24.4959 68.6477 24.2403 68.567C23.8981 68.4675 23.573 68.3163 23.2763 68.1187C23.1162 68.0068 23.0041 67.8387 22.9625 67.6479C22.95 67.5797 22.95 67.5098 22.9625 67.4416C22.9625 67.3609 23.1104 67.3474 23.2449 67.3564C23.3531 67.3577 23.4609 67.3667 23.5678 67.3833C23.7186 67.4018 23.8683 67.4287 24.0162 67.464C26.0069 67.9124 28.1592 68.4056 30.2934 68.9033C31.8941 69.271 33.5038 69.6431 35.1135 69.9839L35.0821 69.9749Z" fill="black"/>
<path d="M80.5295 87.982C80.3725 90.3225 80.2021 92.6585 79.969 95.0035C79.9241 95.4295 79.8883 95.8555 79.83 96.2949L79.8031 96.4697C79.8031 96.5549 79.7448 96.6401 79.7179 96.7253C79.7042 96.7676 79.6829 96.8071 79.6551 96.8419C79.6551 96.8419 79.6237 96.8419 79.6551 96.8867L79.6327 96.9091L79.5834 96.954C79.5161 97.0142 79.4424 97.0668 79.3637 97.1109L78.8167 97.4517C76.1902 98.9555 73.4773 100.303 70.6921 101.487C69.4635 102.025 68.235 102.568 67.0109 103.083C65.4371 103.747 63.8723 104.428 62.2267 104.926C61.2134 105.244 62.2895 104.249 64.092 103.514C67.3068 102.213 70.4724 100.823 73.6469 99.3528C74.5929 98.9044 75.5435 98.456 76.4806 97.918C76.929 97.6579 77.4177 97.3979 77.8706 97.1199C78.0993 96.9809 78.319 96.8508 78.5566 96.7074L78.8929 96.4921L78.9915 96.4294C79.0018 96.4258 79.0107 96.4191 79.0171 96.4103C79.0235 96.4015 79.0271 96.3909 79.0274 96.38C79.0274 96.38 79.0633 96.1828 79.0767 96.0527L79.1305 95.6044L79.2202 94.73L79.3726 92.9724C79.4668 91.7976 79.5475 90.6229 79.6237 89.4481C79.7164 87.9984 79.7971 86.5501 79.8659 85.1034C79.9645 82.9108 80.0587 80.7048 80.0766 78.5257C80.0766 76.8308 80.0452 75.1718 79.978 73.4994L79.9241 72.4053C79.8838 71.0288 79.9241 70.6118 80.1169 70.2845C80.1523 70.2153 80.1912 70.1479 80.2335 70.0827C80.3322 69.9438 80.5743 70.4953 80.6819 71.5086C80.9111 74.6253 80.968 77.7522 80.8523 80.8752C80.794 83.2381 80.6684 85.6056 80.5339 87.973L80.5295 87.982Z" fill="black"/>
<path d="M56.694 94.8104C56.7657 93.25 56.833 91.6718 56.8733 90.1204V88.4076C56.9182 86.3988 56.9854 84.3722 57.0034 82.3724C57.0034 81.4757 57.0034 80.5789 56.972 79.6822C56.9451 78.5433 56.8958 77.4044 56.9137 76.2655C56.9137 75.9068 57.0303 75.9472 57.1648 76.2431C57.3643 76.7189 57.4898 77.2224 57.5369 77.7362C57.7374 80.0665 57.8122 82.406 57.7611 84.7443C57.7297 86.1478 57.7611 87.6095 57.7611 89.0488C57.7611 90.627 57.7312 92.2068 57.6715 93.7881C57.6416 94.7626 57.6117 95.734 57.5818 96.7025C57.5369 98.1777 57.4428 99.6529 57.3845 101.115C57.3307 102.253 57.3262 103.356 57.2634 104.504C57.2634 104.751 57.2276 104.998 57.2007 105.249C57.1738 105.5 57.1469 105.697 57.1199 105.836C57.0879 105.97 57.0475 106.102 56.9989 106.231C56.972 106.314 56.9288 106.392 56.8718 106.459C56.8149 106.526 56.7453 106.581 56.6671 106.621C56.6101 106.657 56.5501 106.689 56.4877 106.715C56.3218 106.764 56.1784 106.352 56.2411 105.706C56.2904 103.733 56.3891 101.635 56.4653 99.5183C56.5326 97.949 56.5953 96.3797 56.6626 94.7969L56.694 94.8104Z" fill="black"/>
<path d="M56.9943 94.0482C57.0257 92.3847 57.0392 90.7167 57.0392 89.0533C57.0392 88.4435 56.9943 87.8382 56.9943 87.2284C56.9943 85.0851 56.9943 82.9419 56.9943 80.7942C56.9943 79.8436 56.9271 78.8886 56.8912 77.947C56.8329 76.7364 56.7567 75.5168 56.7746 74.3062C56.7746 73.9295 56.9271 73.9654 57.1109 74.2748C57.3759 74.7656 57.5434 75.3031 57.6041 75.8575C57.8951 78.3295 58.0448 80.8161 58.0525 83.3051C58.0525 84.8027 58.1646 86.354 58.2094 87.883C58.2543 89.5689 58.2767 91.2503 58.2857 92.9362C58.2857 93.972 58.2857 95.0077 58.2857 96.0435C58.2857 97.6128 58.2453 99.1821 58.2319 100.751C58.2319 101.962 58.2722 103.155 58.2319 104.37C58.2319 104.639 58.2319 104.899 58.196 105.172C58.1845 105.535 58.1102 105.893 57.9763 106.231C57.9397 106.325 57.8831 106.409 57.8103 106.479C57.7375 106.549 57.6503 106.602 57.5548 106.634C57.4821 106.673 57.4055 106.705 57.3261 106.728C57.1064 106.773 56.8778 106.32 56.9316 105.643C56.9047 103.567 56.9047 101.325 56.9316 99.079C56.9316 97.411 56.9764 95.7296 56.9764 94.0527L56.9943 94.0482Z" fill="black"/>
<path d="M50.5961 58.9048C48.2735 59.5026 45.9554 60.1184 43.6418 60.7521L41.1219 61.483C38.1327 62.299 35.1615 63.136 32.2081 63.9939C30.8944 64.3795 29.5851 64.801 28.2983 65.2314L23.3886 66.9307C22.9402 67.1056 22.8281 66.8949 23.1509 66.4824C23.3735 66.2168 23.6369 65.9883 23.9311 65.8053C24.316 65.5456 24.7317 65.3347 25.1686 65.1776C26.8545 64.5544 28.5494 63.9894 30.2577 63.4513C31.966 62.9133 33.6833 62.4066 35.4275 61.9538C37.5124 61.4067 39.6378 60.7028 41.7541 60.093C44.0812 59.4204 46.4172 58.7793 48.7533 58.1426L53.0756 56.9992C54.1786 56.7167 55.2592 56.4432 56.3891 56.1832C56.5794 56.1271 56.7817 56.1271 56.972 56.1832L57.3935 56.3222L58.2006 56.5867L59.7788 57.1113C60.6083 57.3803 61.4333 57.6269 62.2584 57.8735L64.7155 58.6313C65.0787 58.7434 65.4329 58.842 65.7961 58.9631C67.1188 59.4608 67.5133 59.6939 67.7286 60.0123C67.784 60.0812 67.8335 60.1547 67.8765 60.232C67.9617 60.4383 67.3474 60.4427 66.3162 60.232C65.5495 60.102 64.7917 59.9002 64.0295 59.6984C63.2672 59.4967 62.496 59.2814 61.7293 59.0573C60.2003 58.5775 58.6579 58.0529 57.1244 57.5462L56.703 57.4072H56.6268L55.8511 57.5911C55.2682 57.7256 54.6853 57.878 54.0979 58.0394C52.9276 58.3309 51.7574 58.6358 50.5916 58.9362L50.5961 58.9048Z" fill="black"/>
<path d="M81.3011 88.4976C81.198 91.3089 81.1128 94.0844 80.8842 96.9315C80.8842 96.9764 80.8842 97.1109 80.8483 97.2185C80.8358 97.3273 80.8163 97.4351 80.79 97.5413C80.7673 97.5876 80.7418 97.6326 80.7138 97.6759L80.6689 97.7386L80.6465 97.7655L80.6779 97.7879L80.4358 97.9807L79.6018 98.4291C79.1534 98.6578 78.6737 98.8775 78.2073 99.0927C76.5528 99.8325 74.8849 100.519 73.2124 101.196C71.54 101.873 69.8631 102.541 68.1772 103.164L63.7158 104.899C61.8277 105.686 59.8966 106.366 57.9317 106.935C57.313 107.096 57.3264 106.832 57.7614 106.437C58.4673 105.856 59.2682 105.401 60.1288 105.092C63.9938 103.621 67.8319 102.061 71.7417 100.586C74.0823 99.6891 76.4497 98.613 78.7364 97.5189L79.2072 97.2902L79.5839 97.0974L79.6691 97.0571C79.6833 97.0306 79.6925 97.0017 79.696 96.9719V96.8643L79.7184 96.6132C79.7722 95.9227 79.8081 95.2187 79.8439 94.5193C79.9067 93.1203 79.9605 91.7124 80.0009 90.3045C80.0502 88.5738 80.0905 86.8431 80.113 85.1078C80.1443 82.4893 80.1712 79.8484 80.113 77.2478C80.0681 75.2256 79.9246 73.2438 79.7677 71.2575C79.7273 70.8091 79.6915 70.3921 79.6511 69.9527C79.539 68.3206 79.5614 67.805 79.8663 67.4149C79.9179 67.3263 79.9748 67.241 80.0367 67.1593C80.1847 66.9755 80.5972 67.6077 80.7721 68.8273C81.2415 72.536 81.4662 76.2716 81.4446 80.0098C81.4671 82.8346 81.4088 85.6683 81.346 88.4976H81.3011Z" fill="black"/>
<path d="M57.277 135.129C57.3428 133.512 57.3921 131.89 57.425 130.264C57.425 129.672 57.425 129.08 57.425 128.47C57.4563 126.381 57.5146 124.292 57.5281 122.193C57.5281 121.265 57.4967 120.337 57.4788 119.418C57.4429 118.234 57.3891 117.05 57.4205 115.871C57.4205 115.508 57.5774 115.539 57.7568 115.84C58.0083 116.322 58.1608 116.849 58.2051 117.391C58.4594 119.805 58.5657 122.232 58.5235 124.659C58.5011 126.116 58.5773 127.632 58.5863 129.121C58.5863 130.762 58.5863 132.403 58.5594 134.053C58.5594 135.062 58.519 136.07 58.5011 137.079C58.4742 138.608 58.3935 140.146 58.3441 141.666C58.3127 142.845 58.3441 144.007 58.2769 145.19C58.2769 145.455 58.25 145.71 58.2186 145.971C58.2013 146.327 58.1176 146.676 57.972 147.002C57.931 147.095 57.8694 147.178 57.7917 147.244C57.714 147.31 57.6223 147.358 57.5236 147.383C57.4483 147.416 57.3703 147.443 57.2904 147.464C57.0752 147.495 56.8735 147.047 56.9273 146.396C56.9497 144.374 56.9945 142.191 57.0528 140.007C57.1021 138.38 57.1559 136.743 57.2053 135.111L57.277 135.129Z" fill="black"/>
<path d="M19.9494 134.873C19.7207 129.524 19.5997 124.17 19.6669 118.808C19.6983 116.853 19.7163 114.893 19.8687 112.929C19.9539 111.903 20.057 110.876 20.2453 109.84C20.2947 109.58 20.3485 109.316 20.4157 109.051C20.4854 108.768 20.5754 108.491 20.6848 108.221C20.8199 107.828 21.0878 107.493 21.4425 107.275C21.6191 107.184 21.8191 107.148 22.0164 107.172C22.216 107.219 22.4077 107.295 22.5859 107.396L22.7249 107.459L22.819 107.495L23.0118 107.567L23.4199 107.706C23.7023 107.796 23.9803 107.885 24.2718 107.961C24.8412 108.132 25.4241 108.284 26.007 108.437C27.1683 108.737 28.343 109.024 29.5133 109.302C31.8628 109.855 34.2198 110.384 36.5842 110.889C39.5569 111.53 42.5656 112.113 45.5517 112.683C49.3674 113.382 53.2055 114.064 57.0033 114.831C58.187 115.068 57.9852 115.319 56.9271 115.436C55.1951 115.569 53.4533 115.48 51.7438 115.171C47.8205 114.539 43.9241 113.772 40.0322 112.961C36.1403 112.149 32.2439 111.284 28.3744 110.302L25.3165 109.522C24.8053 109.387 24.2897 109.248 23.7696 109.1L22.9849 108.863L22.5904 108.728L22.2227 108.585C22.1752 108.557 22.1238 108.535 22.0702 108.522C22.0426 108.524 22.0159 108.533 21.9924 108.548C21.969 108.563 21.9495 108.583 21.9357 108.607C21.9033 108.652 21.8776 108.702 21.8595 108.755C21.8053 108.902 21.7589 109.052 21.7205 109.203C21.5593 109.848 21.4439 110.502 21.3753 111.163C21.2183 112.508 21.1376 113.893 21.0793 115.265C20.8731 120.61 20.9897 125.991 21.1825 131.358C21.2392 133.008 21.314 134.652 21.4066 136.29L21.4784 137.527L21.5098 138.07C21.5181 138.121 21.5367 138.17 21.5644 138.214C21.5921 138.258 21.6285 138.296 21.6712 138.325C21.9706 138.553 22.2938 138.747 22.6352 138.904C22.9894 139.079 23.3616 139.24 23.7382 139.388C26.0714 140.265 28.4479 141.023 30.8584 141.657C33.2707 142.316 35.6964 142.912 38.1221 143.45C41.8885 144.302 45.619 144.979 49.3764 145.634L51.8469 146.042C53.3894 146.329 54.4027 146.522 55.1067 146.71C55.6047 146.826 56.0823 147.017 56.5235 147.275C56.6682 147.352 56.8075 147.439 56.9405 147.535C57.075 147.661 56.8195 147.737 56.2366 147.768C55.3533 147.806 54.4684 147.77 53.5911 147.661C51.8783 147.49 50.1566 147.212 48.4213 146.934C46.6861 146.656 44.9464 146.325 43.1933 145.97C39.6915 145.262 36.1582 144.459 32.634 143.554C30.02 142.872 27.4104 142.15 24.8143 141.253C24.1686 141.029 23.5185 140.805 22.8728 140.514C22.1658 140.241 21.4955 139.881 20.8776 139.442C20.8289 139.408 20.7824 139.37 20.7386 139.33C20.674 139.272 20.6126 139.211 20.5547 139.146C20.4466 139.024 20.3533 138.891 20.2767 138.747C20.238 138.674 20.2123 138.595 20.2005 138.514V138.456V138.424V138.308L20.1736 137.953L20.1153 136.94L20.0077 134.913L19.9494 134.873Z" fill="black"/>
<path d="M71.2078 110.468L68.0333 111.71C67.6477 111.862 67.2755 112.042 66.8899 112.19C65.5209 112.71 64.1473 113.213 62.7693 113.701L60.9444 114.387C60.5499 114.526 60.1732 114.696 59.7652 114.835C59.3628 114.993 58.9327 115.067 58.5008 115.055C58.2273 115.055 58.2452 114.871 58.4111 114.606C58.6011 114.242 58.9212 113.962 59.3078 113.822C60.0746 113.557 60.8503 113.248 61.6304 112.961C62.4106 112.674 63.2177 112.418 64.0293 112.163C64.9977 111.867 65.9528 111.409 66.9123 111.019L70.0913 109.746L72.0462 108.957L75.001 107.746C75.7588 107.428 76.4762 107.047 77.2429 106.733C77.4133 106.666 77.5702 106.594 77.7451 106.535C78.3818 106.32 78.615 106.325 78.8122 106.45C78.8592 106.474 78.9042 106.5 78.9468 106.531C79.0499 106.63 78.8436 106.858 78.4222 107.114L77.4761 107.692L76.4762 108.208C75.7991 108.54 75.1311 108.872 74.4137 109.194C73.3689 109.643 72.3063 110.091 71.2481 110.513L71.2078 110.468Z" fill="black"/>
<path d="M61.9489 72.0151L60.949 72.3379C60.8235 72.3783 60.7159 72.4456 60.5948 72.4814L59.29 72.8805C59.1011 72.942 58.9168 73.0169 58.7385 73.1047C58.5166 73.2374 58.2717 73.3272 58.0166 73.3692C57.8507 73.3692 57.7879 72.6877 58.039 72.5487C58.4977 72.3037 58.9839 72.1141 59.4873 71.9837C59.7951 71.8914 60.095 71.7745 60.3841 71.634L61.3794 71.2618L61.9892 71.0332C62.2986 70.9166 62.6125 70.809 62.9129 70.6745C63.2133 70.54 63.3613 70.4054 63.5855 70.2844C63.6348 70.2548 63.6857 70.2279 63.7379 70.2037C63.9352 70.123 64.0249 70.1678 64.1414 70.3965C64.1695 70.4474 64.195 70.4998 64.2177 70.5534C64.2515 70.6271 64.2623 70.7094 64.2487 70.7894C64.2351 70.8693 64.1978 70.9434 64.1414 71.0018C63.7879 71.2942 63.3836 71.5191 62.9488 71.6654C62.6259 71.7909 62.2941 71.903 61.9668 72.0241L61.9489 72.0151Z" fill="black"/>
<path d="M30.1544 105.034C29.437 105.249 28.7196 105.482 28.0112 105.706C27.7511 105.791 27.5001 105.903 27.24 105.989L24.478 106.885C24.07 107.02 23.6754 107.186 23.2719 107.334C22.7665 107.544 22.2446 107.712 21.7115 107.836C21.5411 107.867 21.5142 107.715 21.5949 107.518C21.7029 107.263 21.9008 107.057 22.1509 106.939C23.1628 106.465 24.2127 106.076 25.2896 105.778C25.9352 105.594 26.5719 105.298 27.2131 105.056L29.3474 104.289C29.7958 104.132 30.2441 103.98 30.6701 103.841C31.3382 103.617 32.0152 103.392 32.6788 103.168C33.19 102.98 33.6832 102.774 34.1943 102.594C34.3064 102.558 34.414 102.509 34.5306 102.478C34.979 102.348 35.118 102.388 35.257 102.536C35.2908 102.568 35.3222 102.603 35.3511 102.639C35.4318 102.76 35.2928 102.931 35.0104 103.088C34.134 103.554 33.2261 103.959 32.2932 104.298C31.5893 104.558 30.8853 104.818 30.1724 105.069L30.1544 105.034Z" fill="black"/>
<path d="M81.5698 120.736C81.525 124.148 81.4173 127.555 81.2694 130.959C81.2111 132.205 81.1842 133.447 81.1035 134.689L81.0452 135.514L81.0138 135.927V136.146C81.0182 136.205 81.0182 136.263 81.0138 136.321L80.96 136.478C80.96 136.527 80.9241 136.586 80.9017 136.635L80.8658 136.702C80.83 136.702 80.9152 136.734 80.9017 136.734L80.8748 136.765C80.8012 136.85 80.715 136.922 80.6192 136.98L80.2067 137.245C79.9691 137.393 79.7584 137.545 79.5028 137.693C78.5567 138.263 77.5972 138.81 76.6332 139.334C74.7051 140.388 72.7457 141.379 70.7729 142.334C69.0242 143.181 67.2621 144.033 65.5134 144.849C63.2608 145.964 60.9288 146.912 58.5367 147.683C57.7789 147.894 57.8058 147.593 58.3394 147.136C59.2018 146.447 60.1612 145.89 61.1866 145.482C65.8049 143.527 70.3604 141.374 74.8845 139.088C76.2296 138.393 77.5748 137.639 78.8975 136.819L79.8301 136.214L79.9108 136.16C79.913 136.128 79.913 136.097 79.9108 136.066L79.9467 135.546C79.987 134.765 80.0274 133.99 80.0722 133.214C80.2381 129.802 80.3502 126.376 80.4085 122.955C80.4444 120.848 80.4578 118.74 80.4309 116.637C80.4316 113.46 80.2535 110.285 79.8973 107.127C79.857 106.823 79.8122 106.522 79.7583 106.231L79.727 106.065C79.727 106.024 79.727 105.98 79.6911 105.948C79.658 105.922 79.6219 105.899 79.5835 105.881L79.4445 105.814C78.9199 105.576 78.3415 105.365 77.772 105.177C76.6287 104.791 75.4674 104.433 74.3106 104.069L72.7816 103.59C70.8805 102.966 70.2931 102.693 69.9658 102.307C69.8846 102.232 69.8138 102.146 69.7551 102.052C69.6385 101.81 70.4545 101.922 71.8759 102.298C73.9788 102.863 76.1265 103.482 78.3056 104.213C78.8526 104.406 79.3862 104.585 79.9691 104.854C80.1753 104.971 80.4937 105.092 80.6013 105.334L80.6282 105.379V105.401C80.6058 105.401 80.6641 105.401 80.6596 105.401L80.6955 105.495C80.7217 105.558 80.7427 105.622 80.7582 105.688L80.821 106.029C80.8748 106.32 80.9241 106.607 80.9645 106.899C81.1304 108.06 81.2559 109.221 81.3322 110.383C81.5608 113.831 81.5832 117.283 81.5698 120.727V120.736Z" fill="black"/>
<path d="M39.8664 104.504C39.9299 104.467 40.0035 104.45 40.0771 104.455C40.0819 104.457 40.086 104.461 40.0889 104.465C40.0918 104.469 40.0933 104.475 40.0933 104.48C40.0933 104.485 40.0918 104.49 40.0889 104.495C40.086 104.499 40.0819 104.502 40.0771 104.504L39.9606 104.585C39.9381 104.585 39.5122 104.814 39.3866 104.877C39.2611 104.939 39.1131 104.998 38.9741 105.056L38.1222 105.383C38.0594 105.41 37.9922 105.428 37.9294 105.451C37.7094 105.518 37.4938 105.599 37.2838 105.693C37.2478 105.704 37.2144 105.723 37.1851 105.746L36.5036 106.074L35.961 106.316C35.9375 106.331 35.9118 106.344 35.8848 106.352C35.8233 106.365 35.7653 106.391 35.7144 106.428C35.6427 106.468 35.571 106.518 35.4992 106.563C35.4601 106.583 35.4197 106.601 35.3782 106.616C35.3423 106.616 35.3423 106.594 35.3468 106.585C35.3512 106.576 35.3468 106.558 35.3468 106.554L35.5306 106.361C35.6292 106.267 35.7368 106.172 35.7593 106.155C35.7907 106.127 35.8237 106.102 35.8579 106.078L36.0821 105.926L36.4767 105.715L36.6022 105.67C36.6022 105.67 37.1582 105.419 37.1806 105.415C37.2942 105.369 37.4111 105.331 37.5304 105.303L37.6021 105.28C37.7949 105.213 37.9967 105.155 38.194 105.092L38.4944 104.993H38.5527L38.6199 104.971C38.8576 104.89 39.0952 104.818 39.3239 104.724C39.3777 104.724 39.6422 104.621 39.7005 104.59C39.7588 104.558 39.835 104.522 39.8664 104.504Z" fill="black"/>
<path d="M42.1397 104.764C42.205 104.737 42.2752 104.724 42.346 104.724C42.346 104.724 42.3729 104.747 42.346 104.76L42.2249 104.832L41.6555 105.105C41.5214 105.168 41.3837 105.221 41.243 105.267L40.4045 105.572L40.2162 105.63C39.9991 105.687 39.7875 105.764 39.584 105.859C39.5476 105.869 39.514 105.888 39.4853 105.912C39.4315 105.944 38.8979 106.213 38.8262 106.24C38.6501 106.313 38.478 106.395 38.3106 106.486C38.2891 106.503 38.2648 106.515 38.2388 106.522C38.178 106.529 38.1212 106.556 38.0774 106.598C38.0111 106.647 37.9422 106.692 37.8712 106.733C37.8301 106.747 37.7882 106.759 37.7456 106.769C37.7053 106.769 37.6828 106.728 37.6873 106.715C37.6918 106.701 37.6649 106.679 37.647 106.666C37.6927 106.583 37.7468 106.504 37.8084 106.432C37.8755 106.353 37.949 106.28 38.0281 106.213C38.2597 106.055 38.5025 105.914 38.7545 105.791C38.793 105.772 38.8336 105.757 38.8755 105.746C38.8755 105.746 39.4315 105.509 39.4539 105.504C39.5673 105.462 39.6844 105.43 39.8037 105.41H39.8709C40.0682 105.347 40.2655 105.294 40.4628 105.244L40.7632 105.159H40.8215H40.8887C41.1264 105.087 41.364 105.029 41.5972 104.957C41.651 104.957 41.9155 104.886 41.9783 104.863C42.0348 104.835 42.0888 104.802 42.1397 104.764Z" fill="black"/>
<path d="M44.31 104.98C44.3474 104.963 44.3879 104.955 44.4288 104.955C44.4698 104.955 44.5102 104.963 44.5476 104.98C44.5745 104.98 44.5835 105.038 44.5476 105.052L44.4131 105.132C44.3862 105.132 43.9289 105.316 43.7764 105.388C43.624 105.46 43.4805 105.509 43.328 105.563C43.0231 105.675 42.7227 105.796 42.4313 105.921C42.3659 105.952 42.2985 105.977 42.2295 105.998C41.9934 106.065 41.7638 106.154 41.5435 106.262C41.5044 106.277 41.468 106.298 41.4359 106.325C41.3821 106.365 40.7947 106.661 40.714 106.697C40.5167 106.773 40.3239 106.863 40.1311 106.957C40.1042 106.957 40.0818 106.993 40.0504 106.989C39.9822 106.996 39.9179 107.024 39.8666 107.069L39.6334 107.208C39.5888 107.227 39.5422 107.241 39.4944 107.249C39.4496 107.249 39.4227 107.195 39.4316 107.177C39.4406 107.159 39.4047 107.132 39.3823 107.114C39.4369 107.031 39.4984 106.953 39.5662 106.881C39.6424 106.799 39.7233 106.721 39.8083 106.648L40.167 106.415C40.3508 106.303 40.5481 106.195 40.5885 106.173C40.6301 106.147 40.6755 106.129 40.723 106.119C40.723 106.119 41.3103 105.818 41.3372 105.814C41.4572 105.757 41.5837 105.715 41.7139 105.688L41.7901 105.666C41.9999 105.581 42.2157 105.512 42.4358 105.46L42.7676 105.357H42.8259H42.9066L43.6912 105.137C43.7495 105.137 44.0454 105.07 44.1127 105.047C44.18 105.025 44.2786 104.993 44.31 104.98Z" fill="black"/>
<path d="M46.6636 105.437C46.7311 105.397 46.8102 105.382 46.8878 105.393C46.8915 105.395 46.8945 105.398 46.8966 105.402C46.8987 105.406 46.8998 105.411 46.8998 105.415C46.8998 105.419 46.8987 105.424 46.8966 105.428C46.8945 105.432 46.8915 105.435 46.8878 105.437L46.7757 105.536L46.1704 105.832C46.0314 105.904 45.8879 105.966 45.722 106.029L44.8477 106.41L44.6504 106.487C44.4221 106.567 44.1989 106.661 43.9823 106.769C43.9442 106.784 43.9081 106.804 43.8747 106.827C43.8209 106.863 43.2425 107.173 43.1663 107.204C42.9735 107.28 42.7807 107.37 42.5879 107.455C42.561 107.455 42.5386 107.486 42.5072 107.486C42.4403 107.489 42.3752 107.509 42.3188 107.545C42.2388 107.587 42.1565 107.624 42.0722 107.657C42.0274 107.672 41.9805 107.679 41.9332 107.679C41.8929 107.679 41.8794 107.616 41.8884 107.603C41.8974 107.59 41.866 107.558 41.8525 107.536V107.513C41.9903 107.372 42.1403 107.243 42.3009 107.128L42.6641 106.944C42.8479 106.859 43.0363 106.769 43.0856 106.751C43.1272 106.732 43.1708 106.716 43.2156 106.706L43.8254 106.451C43.9407 106.398 44.0608 106.356 44.1841 106.325C44.2095 106.321 44.2339 106.312 44.2558 106.298C44.4576 106.218 44.6683 106.15 44.8701 106.079L45.184 105.962H45.2423L45.314 105.94C45.5606 105.845 45.8117 105.765 46.0538 105.666C46.1076 105.666 46.3856 105.554 46.4484 105.527C46.5112 105.5 46.6322 105.451 46.6636 105.437Z" fill="black"/>
<path d="M49.466 105.948C49.5162 105.919 49.5759 105.911 49.6319 105.926C49.6319 105.926 49.6588 105.957 49.6319 105.966L49.5423 106.029C49.5423 106.029 49.206 106.195 49.0939 106.24L48.7711 106.374L48.1209 106.625L47.9774 106.674C47.8093 106.725 47.6458 106.789 47.4887 106.867C47.4612 106.876 47.4354 106.89 47.4125 106.908C47.3721 106.934 46.9641 107.154 46.9058 107.181C46.7713 107.244 46.6368 107.311 46.5068 107.387C46.5068 107.387 46.4754 107.414 46.453 107.419C46.4061 107.428 46.3626 107.449 46.3274 107.482L46.1705 107.594C46.141 107.61 46.1093 107.622 46.0763 107.629C46.0449 107.629 46.027 107.598 46.0315 107.589C46.036 107.58 46.0091 107.558 45.9956 107.544C46.0748 107.418 46.1714 107.303 46.2826 107.204C46.4571 107.074 46.6398 106.955 46.8296 106.849C46.8616 106.834 46.8946 106.82 46.9282 106.809C46.9282 106.809 47.3542 106.603 47.3766 106.603C47.462 106.562 47.5525 106.534 47.6456 106.518H47.6994C47.8474 106.459 48.0043 106.419 48.1478 106.374L48.381 106.298H48.4213H48.4751C48.659 106.24 48.8428 106.19 49.0221 106.123C49.067 106.123 49.2688 106.056 49.3136 106.038C49.3667 106.012 49.4177 105.982 49.466 105.948Z" fill="black"/>
<path d="M52.7754 106.038C52.8132 106.015 52.8567 106.003 52.9009 106.003C52.9452 106.003 52.9886 106.015 53.0265 106.038C53.0579 106.038 53.0758 106.123 53.0534 106.141L52.9323 106.249L52.3001 106.572C52.1559 106.651 52.006 106.72 51.8517 106.778L50.9191 107.15L50.7039 107.222C50.4588 107.287 50.2189 107.371 49.9865 107.473C49.9446 107.487 49.9052 107.509 49.8699 107.536C49.6167 107.661 49.3544 107.768 49.0852 107.854L48.4351 108.02C48.4043 108.028 48.3717 108.028 48.3409 108.02C48.2687 108.01 48.1953 108.023 48.1302 108.056C48.0388 108.084 47.946 108.108 47.8522 108.127C47.8016 108.134 47.7504 108.134 47.6998 108.127C47.6504 108.127 47.646 108.047 47.6549 108.033C47.6639 108.02 47.6549 107.975 47.6235 107.948V107.921C47.7898 107.791 47.9668 107.676 48.1526 107.576L48.9911 107.226C49.0359 107.226 49.0852 107.204 49.1301 107.19L49.7713 106.93C49.8944 106.877 50.0241 106.841 50.1569 106.823L50.2376 106.8C50.4483 106.715 50.6859 106.652 50.8922 106.585L51.2195 106.468H51.2823H51.363L52.1477 106.195C52.2059 106.173 52.5064 106.11 52.596 106.083C52.6567 106.071 52.7165 106.057 52.7754 106.038Z" fill="black"/>
<path d="M54.5146 106.881C54.5399 106.859 54.5708 106.844 54.6039 106.837C54.637 106.831 54.6712 106.834 54.7029 106.845C54.7029 106.845 54.7478 106.894 54.7343 106.908L54.6536 107.002C54.6536 107.002 54.3174 107.244 54.2053 107.32C54.0932 107.397 53.9856 107.455 53.8735 107.518C53.6448 107.639 53.4251 107.76 53.183 107.872C53.1327 107.899 53.0802 107.921 53.026 107.939C52.8396 108.001 52.6582 108.078 52.4835 108.168C52.4515 108.177 52.4222 108.194 52.3983 108.217C52.2087 108.323 52.0108 108.413 51.8064 108.486L51.3132 108.63C51.2898 108.636 51.2649 108.636 51.2415 108.63C51.1889 108.614 51.1327 108.614 51.0801 108.63L50.8648 108.679C50.8261 108.683 50.787 108.683 50.7483 108.679C50.7124 108.679 50.7124 108.625 50.7169 108.616C50.7214 108.607 50.7169 108.576 50.7169 108.558C50.7169 108.558 50.8021 108.486 50.8917 108.41C50.9579 108.354 51.0284 108.303 51.1025 108.258L51.7392 107.988L51.8468 107.962L52.331 107.755C52.4228 107.714 52.5191 107.684 52.618 107.666C52.6372 107.67 52.6571 107.67 52.6763 107.666C52.8377 107.598 53.0036 107.545 53.165 107.482L53.4071 107.379H53.452H53.5103C53.7031 107.289 53.8959 107.213 54.0797 107.11C54.1201 107.087 54.3353 107.007 54.3846 106.975C54.4339 106.944 54.4922 106.912 54.5146 106.881Z" fill="black"/>
<path d="M57.0123 106.796C57.0474 106.777 57.0867 106.767 57.1266 106.767C57.1665 106.767 57.2058 106.777 57.2409 106.796C57.2501 106.806 57.2551 106.82 57.2551 106.834C57.2551 106.848 57.2501 106.861 57.2409 106.872L57.1244 106.957C57.0975 106.957 56.7029 107.19 56.5774 107.285C56.4518 107.379 56.3218 107.446 56.1917 107.518C55.9272 107.67 55.6402 107.827 55.3578 107.966C55.2969 107.995 55.2339 108.019 55.1695 108.038C54.9452 108.105 54.7263 108.189 54.5148 108.289C54.478 108.303 54.4444 108.324 54.4162 108.352C54.3669 108.396 53.8109 108.661 53.7391 108.692C53.5511 108.753 53.3669 108.825 53.1876 108.908C53.1652 108.908 53.1428 108.939 53.1114 108.935C53.08 108.93 52.9903 108.966 52.9365 108.993C52.8669 109.041 52.7934 109.083 52.7168 109.118C52.6742 109.137 52.6286 109.147 52.5823 109.15C52.542 109.15 52.5016 109.083 52.5061 109.069C52.5106 109.056 52.4702 109.015 52.4478 108.993L52.4209 108.966C52.5264 108.79 52.658 108.631 52.811 108.495C52.811 108.495 53.4836 108.087 53.5598 108.047C53.6008 108.027 53.6447 108.013 53.6898 108.006C53.6898 108.006 54.2503 107.737 54.2727 107.733C54.388 107.685 54.5083 107.65 54.6314 107.63C54.6536 107.634 54.6764 107.634 54.6987 107.63C54.894 107.555 55.0931 107.491 55.295 107.437C55.3981 107.406 55.4878 107.365 55.5864 107.325H55.6447H55.712C55.9407 107.226 56.1604 107.137 56.407 107.024C56.4608 106.998 56.7343 106.917 56.7971 106.89C56.8598 106.863 56.9809 106.814 57.0123 106.796Z" fill="black"/>
<path d="M64.5629 105.293C64.674 105.243 64.7918 105.21 64.9127 105.195C64.9485 105.195 64.953 105.217 64.9127 105.235L64.7019 105.343L63.7065 105.791C63.4734 105.894 63.2582 105.993 63.0026 106.087L61.5723 106.674L61.2539 106.8C60.8882 106.928 60.5304 107.078 60.1823 107.248C60.1235 107.276 60.0666 107.308 60.0119 107.343C59.9177 107.401 58.9941 107.894 58.873 107.957C58.5681 108.1 58.2767 108.266 57.9763 108.432C57.938 108.461 57.8957 108.483 57.8507 108.499C57.7495 108.531 57.6552 108.581 57.5727 108.647C57.4517 108.724 57.3396 108.813 57.2096 108.885C57.1439 108.919 57.0747 108.946 57.0033 108.966C56.9405 108.993 56.9226 108.916 56.936 108.894C56.9495 108.872 56.9091 108.845 56.8867 108.822V108.8L56.9764 108.692C57.0425 108.611 57.1129 108.533 57.1871 108.459C57.353 108.298 57.5413 108.145 57.5772 108.118C57.6326 108.074 57.6911 108.033 57.7521 107.997L58.1377 107.751L58.7968 107.374C58.8631 107.339 58.9321 107.309 59.0031 107.284C59.03 107.257 59.9357 106.836 59.976 106.836C60.1666 106.753 60.3629 106.684 60.5634 106.63C60.6035 106.62 60.6426 106.607 60.68 106.589C61.0118 106.464 61.3481 106.356 61.6844 106.244L62.1955 106.069L62.2897 106.042L62.4062 106.011C62.8098 105.872 63.2178 105.746 63.6213 105.603C63.711 105.571 64.1594 105.432 64.267 105.392C64.3746 105.352 64.5136 105.316 64.5629 105.293Z" fill="black"/>
<path d="M66.9752 105.41C67.0983 105.342 67.2384 105.311 67.3787 105.32C67.388 105.323 67.3965 105.327 67.4035 105.334C67.4104 105.34 67.4155 105.348 67.4183 105.357C67.421 105.367 67.4213 105.376 67.4191 105.386C67.4168 105.395 67.4122 105.403 67.4056 105.41C67.3354 105.469 67.2621 105.525 67.1859 105.576C67.1411 105.616 66.3385 106.024 66.0605 106.114C65.7825 106.204 65.5269 106.334 65.2624 106.437C64.9978 106.54 64.7198 106.643 64.4642 106.755C64.2087 106.867 63.9576 107.002 63.6886 107.123C63.572 107.177 63.4509 107.226 63.3299 107.271C62.9159 107.426 62.5129 107.608 62.1237 107.818C62.0547 107.846 61.9899 107.884 61.9309 107.93C61.8412 108.011 60.7696 108.553 60.6261 108.616C60.2674 108.755 59.9132 108.912 59.5545 109.064C59.5077 109.096 59.4537 109.114 59.3976 109.118C59.2762 109.129 59.1593 109.169 59.0568 109.235C58.9104 109.302 58.7608 109.362 58.6084 109.414C58.5278 109.437 58.4453 109.454 58.3618 109.463C58.2856 109.463 58.2901 109.401 58.308 109.383C58.326 109.365 58.308 109.324 58.2766 109.307C58.2453 109.289 58.2766 109.307 58.2766 109.28C58.3116 109.24 58.3507 109.204 58.3932 109.172L58.6622 108.939C58.8029 108.81 58.9528 108.692 59.1106 108.585L60.5051 107.818C60.5793 107.782 60.6557 107.751 60.7338 107.724L61.8054 107.168C62.0143 107.063 62.2318 106.976 62.4555 106.908C62.5005 106.896 62.5441 106.879 62.5855 106.858C62.9442 106.688 63.3209 106.54 63.693 106.41L64.2759 106.186L64.388 106.163L64.5225 106.128C64.9709 105.975 65.4641 105.867 65.917 105.72C66.0246 105.688 66.5358 105.567 66.6523 105.518C66.7618 105.488 66.8696 105.452 66.9752 105.41Z" fill="black"/>
<path d="M39.7364 104.948C39.6305 104.919 39.5304 104.872 39.4405 104.809C39.4136 104.787 39.4405 104.76 39.4629 104.769L39.6781 104.805C39.7185 104.805 40.3955 104.975 40.6331 105.002L41.3102 105.11L42.6912 105.325L42.9961 105.383C43.3458 105.455 43.6956 105.509 44.0498 105.554C44.1094 105.56 44.1695 105.56 44.2291 105.554C44.3278 105.554 45.2873 105.697 45.4084 105.728L46.3051 105.962C46.3495 105.965 46.3924 105.979 46.4307 106.002C46.5183 106.047 46.6119 106.078 46.7087 106.096C46.8387 106.127 46.9642 106.168 47.0943 106.213C47.1562 106.238 47.2161 106.268 47.2736 106.302C47.2815 106.305 47.2884 106.31 47.2932 106.317C47.2981 106.324 47.3007 106.332 47.3007 106.34C47.3007 106.349 47.2981 106.357 47.2932 106.364C47.2884 106.371 47.2815 106.376 47.2736 106.379C47.2108 106.379 47.2512 106.414 47.2512 106.441C47.2529 106.449 47.2529 106.456 47.2512 106.464H47.1256L46.8566 106.428L46.4082 106.37L45.8298 106.257L45.1707 106.15C45.1041 106.139 45.0382 106.124 44.9734 106.105C44.9465 106.105 44.0767 105.979 44.0229 105.971C43.8382 105.948 43.6554 105.912 43.4759 105.863H43.3682C43.0499 105.814 42.736 105.751 42.4222 105.693L41.9379 105.603L41.8527 105.58L41.7451 105.554C41.364 105.473 40.9874 105.37 40.6152 105.271C40.5255 105.271 40.122 105.11 40.0233 105.078C39.9247 105.047 39.7857 104.962 39.7364 104.948Z" fill="black"/>
<path d="M39.7946 106.15C39.5121 106.15 39.288 106.15 39.0683 106.15C39.001 106.15 38.9965 106.101 39.0683 106.074C39.2263 106.019 39.3904 105.985 39.557 105.971C39.8793 105.954 40.2025 105.972 40.521 106.025C41.0008 106.092 41.5209 106.213 41.7809 106.267C42.2966 106.379 42.7718 106.473 43.2964 106.536C44.3412 106.675 45.3859 106.841 46.4351 106.984C46.6638 107.02 46.8835 107.06 47.1256 107.105C47.9147 107.258 48.7084 107.383 49.5065 107.5C49.6371 107.521 49.7688 107.536 49.901 107.545C50.1163 107.545 52.273 107.89 52.5509 107.948L54.618 108.343C54.7168 108.357 54.8142 108.38 54.9094 108.41C55.1155 108.476 55.3271 108.524 55.5416 108.553C55.8375 108.603 56.1335 108.666 56.4384 108.733C56.5863 108.764 56.7253 108.809 56.8868 108.849C57.0482 108.89 56.9361 108.93 56.8868 108.926C56.7522 108.926 56.8554 108.966 56.8643 108.988C56.8733 109.011 56.8643 108.988 56.8643 109.011H56.5819L55.9586 108.966C55.5102 108.93 55.0215 108.881 54.9273 108.867L52.0981 108.455C51.9501 108.455 51.8022 108.401 51.6497 108.37L49.4975 108.051C49.085 107.98 48.668 107.93 48.2645 107.827L48.0179 107.782C47.3049 107.675 46.601 107.545 45.8925 107.419L44.803 107.244L44.6057 107.204L44.3591 107.159L43.0767 106.93C42.6284 106.863 42.18 106.747 41.7854 106.639C41.5926 106.581 40.6824 106.312 40.4403 106.285C40.2284 106.225 40.0126 106.18 39.7946 106.15Z" fill="black"/>
<path d="M48.2782 106.432C48.1277 106.394 47.9861 106.327 47.8612 106.235C47.8253 106.213 47.8612 106.19 47.8926 106.204L48.1795 106.276C48.2378 106.298 49.1928 106.482 49.5246 106.509C49.8564 106.536 50.1613 106.585 50.4752 106.643L52.4122 106.948C52.5557 106.97 52.6947 106.997 52.8606 107.029C53.3448 107.141 53.8335 107.222 54.3312 107.289C54.4132 107.298 54.4959 107.298 54.5778 107.289C55.1285 107.352 55.675 107.448 56.2144 107.576L57.4788 107.921C57.5399 107.931 57.5989 107.951 57.6537 107.979C57.7714 108.05 57.9003 108.1 58.0348 108.127C58.2173 108.174 58.3969 108.231 58.5729 108.298C58.6601 108.334 58.7441 108.377 58.824 108.428C58.9002 108.468 58.824 108.513 58.824 108.513C58.824 108.513 58.7926 108.558 58.7971 108.585C58.8016 108.612 58.7971 108.607 58.7971 108.612C58.7971 108.616 58.5236 108.612 58.2411 108.58C57.9586 108.549 57.6582 108.544 57.5999 108.535L57.3399 108.495L56.7839 108.401L55.8557 108.257C55.7646 108.241 55.6747 108.219 55.5867 108.19C55.5419 108.19 54.3043 107.997 54.2416 107.97C53.9856 107.925 53.7338 107.859 53.4883 107.773C53.4387 107.756 53.3877 107.744 53.3358 107.737C52.8875 107.648 52.466 107.535 52.0356 107.432L51.3675 107.284L51.2464 107.248L51.0984 107.208C50.5694 107.092 50.0448 106.962 49.5202 106.823L48.6951 106.567C48.592 106.558 48.3454 106.432 48.2782 106.432Z" fill="black"/>
<path d="M40.0101 106.729C39.8155 106.693 39.6279 106.626 39.4541 106.531C39.4048 106.505 39.4272 106.473 39.49 106.487C39.5528 106.5 39.7366 106.536 39.8666 106.554C39.9967 106.572 41.1804 106.792 41.6019 106.85L42.8214 107.07L45.301 107.518C45.4848 107.549 45.6686 107.585 45.848 107.63C46.4712 107.769 47.1034 107.881 47.7312 107.998C47.8388 107.998 47.9464 108.038 48.0495 108.047C48.2199 108.047 49.9237 108.388 50.1434 108.442L51.7755 108.832C51.8536 108.845 51.9302 108.866 52.0042 108.894C52.165 108.958 52.3317 109.006 52.5019 109.038C52.735 109.092 52.9503 109.145 53.2014 109.208C53.3135 109.24 53.4255 109.284 53.5376 109.325C53.6497 109.365 53.569 109.392 53.5376 109.388C53.43 109.388 53.5107 109.423 53.5376 109.441L52.0042 109.253L51.6724 109.199L50.955 109.069L49.7623 108.859L49.4126 108.778L47.6729 108.495C47.3456 108.428 47.0138 108.374 46.6954 108.276C46.6329 108.254 46.5683 108.239 46.5026 108.231C45.9421 108.114 45.3817 107.984 44.8212 107.863L43.9648 107.679L43.8079 107.639L43.6151 107.594L41.5839 107.146L40.5078 106.872C40.4226 106.881 40.0998 106.747 40.0101 106.729Z" fill="black"/>
<path d="M56.918 107.361C56.8846 107.353 56.8544 107.335 56.8318 107.31C56.8092 107.284 56.7955 107.251 56.7925 107.217C56.7925 107.195 56.7925 107.141 56.8328 107.141H56.9539C56.9763 107.141 57.3216 107.253 57.4426 107.276C57.5637 107.298 57.6758 107.334 57.7879 107.37C58.0165 107.437 58.2363 107.495 58.4873 107.549L58.6443 107.598C58.8188 107.66 58.9991 107.703 59.1823 107.728C59.2135 107.733 59.2453 107.733 59.2765 107.728C59.4817 107.746 59.6855 107.777 59.8863 107.823C60.0387 107.876 60.1957 107.917 60.3347 107.966C60.3588 107.967 60.3822 107.975 60.4019 107.989C60.4208 108.007 60.4432 108.022 60.4678 108.032C60.4925 108.042 60.5188 108.047 60.5454 108.047L60.7472 108.105C60.7805 108.123 60.8121 108.144 60.8413 108.168C60.8682 108.19 60.8413 108.249 60.8413 108.253C60.8413 108.258 60.8413 108.298 60.8413 108.325C60.8434 108.334 60.8434 108.343 60.8413 108.352C60.6931 108.376 60.5431 108.386 60.3929 108.383L59.7294 108.289C59.6936 108.281 59.659 108.269 59.6262 108.253L59.124 108.168C59.0268 108.149 58.932 108.119 58.8416 108.078C58.8241 108.072 58.8052 108.072 58.7878 108.078C58.6222 108.036 58.4591 107.985 58.299 107.926L58.0479 107.854L58.0076 107.832L57.9538 107.809C57.7565 107.746 57.5637 107.67 57.3709 107.603C57.3261 107.603 57.1243 107.477 57.075 107.459C57.0256 107.442 56.9449 107.365 56.918 107.361Z" fill="black"/>
<path d="M60.3706 106.504C60.2944 106.504 60.245 106.464 60.2002 106.356C60.2002 106.325 60.2002 106.231 60.2271 106.222L60.3616 106.168C60.3885 106.168 60.81 106.168 60.9445 106.195C61.0808 106.207 61.2158 106.231 61.348 106.267C61.6171 106.334 61.8816 106.401 62.1461 106.477C62.2044 106.496 62.2613 106.518 62.3165 106.545C62.5025 106.631 62.6961 106.7 62.8949 106.751C62.929 106.757 62.964 106.757 62.9981 106.751C63.221 106.794 63.44 106.855 63.6527 106.935C63.8141 107.015 63.9755 107.078 64.1414 107.15C64.1638 107.15 64.1908 107.15 64.2087 107.186C64.2266 107.222 64.3028 107.249 64.3567 107.266L64.5719 107.347C64.6075 107.367 64.6393 107.393 64.666 107.423C64.6974 107.446 64.666 107.509 64.666 107.513C64.666 107.518 64.666 107.562 64.666 107.589C64.666 107.616 64.666 107.612 64.666 107.621C64.4938 107.645 64.3196 107.652 64.1459 107.643C64.1459 107.643 63.4868 107.5 63.4151 107.482C63.377 107.473 63.3407 107.457 63.3074 107.437L62.7694 107.293C62.6638 107.27 62.5634 107.228 62.4735 107.168C62.4544 107.156 62.433 107.148 62.4107 107.145C62.2358 107.096 62.0654 107.024 61.8951 106.962C61.8084 106.93 61.7201 106.903 61.6305 106.881H61.5722L61.5139 106.854C61.3048 106.789 61.0923 106.735 60.8772 106.693C60.8324 106.693 60.6037 106.594 60.5454 106.589C60.4872 106.585 60.3975 106.5 60.3706 106.504Z" fill="black"/>
<path d="M62.837 105.612C62.7914 105.615 62.7459 105.605 62.706 105.583C62.6662 105.561 62.6338 105.527 62.6128 105.487C62.6128 105.455 62.6128 105.379 62.6128 105.37C62.6654 105.351 62.7193 105.336 62.7742 105.325C62.8056 105.325 63.3257 105.325 63.5006 105.352C63.6709 105.365 63.8401 105.389 64.0072 105.424C64.3435 105.491 64.6798 105.563 65.0116 105.648C65.0847 105.666 65.1566 105.688 65.2268 105.715C65.4694 105.806 65.7181 105.88 65.9711 105.935C66.0127 105.942 66.0551 105.942 66.0967 105.935C66.3756 105.991 66.651 106.063 66.9217 106.15C67.1279 106.235 67.3432 106.307 67.5539 106.379C67.586 106.384 67.6166 106.396 67.6436 106.415C67.698 106.458 67.7631 106.486 67.8319 106.495L68.1099 106.585C68.1546 106.605 68.198 106.627 68.2399 106.652C68.2457 106.655 68.2507 106.659 68.2543 106.664C68.2578 106.669 68.2597 106.675 68.2597 106.682C68.2597 106.688 68.2578 106.694 68.2543 106.699C68.2507 106.704 68.2457 106.708 68.2399 106.711C68.1951 106.711 68.2399 106.742 68.2399 106.76H68.1458L67.9395 106.787C67.8245 106.793 67.7092 106.793 67.5943 106.787C67.5943 106.787 66.7648 106.652 66.6751 106.634C66.6268 106.626 66.58 106.611 66.5361 106.59C66.5137 106.59 65.8725 106.455 65.8501 106.442C65.7175 106.41 65.5895 106.362 65.469 106.298C65.4446 106.287 65.419 106.278 65.3927 106.271C65.173 106.213 64.9443 106.132 64.7381 106.061C64.626 106.025 64.5094 106.002 64.3973 105.971L64.339 105.944L64.2628 105.984C63.9985 105.911 63.7307 105.851 63.4602 105.805C63.3975 105.805 63.106 105.706 63.0343 105.702C62.9625 105.697 62.8729 105.603 62.837 105.612Z" fill="black"/>
<path d="M65.7691 105.029C65.7108 105.029 65.6839 104.98 65.6704 104.886C65.657 104.792 65.6928 104.774 65.7108 104.769C65.7452 104.753 65.7813 104.741 65.8184 104.733C65.8184 104.733 66.1278 104.774 66.2309 104.787C66.3251 104.803 66.418 104.825 66.5089 104.854L67.0694 105.025L67.1859 105.074C67.3181 105.142 67.4582 105.193 67.6029 105.227C67.6264 105.233 67.6512 105.233 67.6747 105.227C67.8273 105.252 67.9774 105.291 68.1231 105.343C68.2365 105.405 68.3533 105.46 68.4728 105.509C68.4728 105.509 68.5087 105.509 68.5221 105.536C68.5356 105.563 68.5894 105.585 68.6297 105.599C68.6819 105.613 68.7328 105.631 68.7822 105.653C68.8091 105.67 68.8333 105.691 68.8539 105.715C68.8763 105.715 68.8539 105.787 68.8539 105.792C68.8539 105.796 68.8539 105.836 68.8539 105.859C68.7303 105.887 68.604 105.902 68.4773 105.904L67.9437 105.823C67.9164 105.816 67.8905 105.803 67.8675 105.787L67.4684 105.702C67.3916 105.684 67.3187 105.652 67.2532 105.608C67.2461 105.605 67.2385 105.603 67.2308 105.603C67.2231 105.603 67.2155 105.605 67.2084 105.608C67.0819 105.567 66.9576 105.519 66.8362 105.464C66.7734 105.437 66.7062 105.424 66.6434 105.401H66.612L66.5672 105.379C66.4147 105.33 66.2713 105.262 66.1188 105.227C66.0829 105.227 65.926 105.128 65.8857 105.119C65.8453 105.11 65.7915 105.025 65.7691 105.029Z" fill="black"/>
<path d="M32.3964 125.201C32.8448 124.753 33.2708 124.345 33.7102 123.924C33.8716 123.767 34.0196 123.601 34.1586 123.448L35.8938 121.866C36.1494 121.632 36.387 121.381 36.6202 121.126C36.9019 120.786 37.2124 120.471 37.5483 120.184C37.7725 120.018 38.0191 120.736 37.6649 121.108C37.0409 121.768 36.3728 122.385 35.6651 122.955C35.2167 123.3 34.858 123.717 34.459 124.103C34.0599 124.489 33.5622 124.946 33.1452 125.376C32.8807 125.645 32.6161 125.91 32.3606 126.183C31.975 126.596 31.5894 127.022 31.2396 127.461C30.9706 127.807 30.7374 128.165 30.4998 128.524L30.3429 128.762C30.1456 129.053 30.0469 129.12 29.8945 129.102C29.8557 129.105 29.8167 129.105 29.7779 129.102C29.6658 129.067 29.6658 128.892 29.7779 128.654C30.1327 127.908 30.5851 127.213 31.123 126.587C31.5221 126.112 31.9481 125.654 32.374 125.21L32.3964 125.201Z" fill="black"/>
<path d="M41.6331 124.058L42.6554 123.184C42.7809 123.077 42.8885 122.955 43.0141 122.852L44.3592 121.749C44.552 121.583 44.7358 121.404 44.9107 121.22C45.1165 120.967 45.3547 120.743 45.6191 120.552C45.7985 120.449 46.0899 121.122 45.8164 121.386C45.3325 121.85 44.8122 122.274 44.2606 122.655C43.9334 122.903 43.6191 123.168 43.319 123.449L42.2922 124.314L41.66 124.857C41.3416 125.13 41.0233 125.408 40.7273 125.7C40.4942 125.924 40.279 126.148 40.0817 126.412L39.9427 126.569C39.7633 126.762 39.6737 126.794 39.5302 126.726L39.4315 126.681C39.3329 126.619 39.3419 126.475 39.454 126.314C39.8097 125.83 40.209 125.38 40.6466 124.969C40.9695 124.655 41.3102 124.35 41.642 124.045L41.6331 124.058Z" fill="black"/>
<path d="M31.0559 83.4399L32.0916 82.3773C32.2172 82.2473 32.3338 82.1082 32.4638 81.9782C32.9122 81.5298 33.3605 81.0815 33.8448 80.669C34.051 80.4717 34.2483 80.2699 34.4411 80.0681C34.6742 79.7932 34.9357 79.5437 35.2213 79.3238C35.4096 79.1983 35.571 79.7722 35.2841 80.0681C34.7774 80.5883 34.2528 81.0904 33.6923 81.5657C33.3561 81.8527 33.0691 82.2069 32.7552 82.5297L31.7419 83.6058C31.5356 83.83 31.3294 84.0542 31.1321 84.2829C30.8317 84.6326 30.5089 84.9689 30.2354 85.3276C30.0156 85.6056 29.8228 85.897 29.6211 86.184C29.5762 86.2468 29.5359 86.3095 29.4866 86.3723C29.3027 86.592 29.2131 86.6458 29.0875 86.6279C29.0592 86.6306 29.0306 86.6306 29.0023 86.6279C28.9171 86.5965 28.9306 86.4575 29.0023 86.2647C29.3035 85.6752 29.6593 85.1153 30.065 84.5923C30.3654 84.1913 30.6888 83.8081 31.0335 83.4444L31.0559 83.4399Z" fill="black"/>
<path d="M37.0506 85.4307L37.7142 84.785C37.7949 84.7088 37.8666 84.6236 37.9473 84.5474L38.8441 83.7627C38.9741 83.6462 39.0997 83.5251 39.2162 83.3996C39.3593 83.2298 39.5235 83.0791 39.705 82.9512C39.8215 82.875 39.9695 83.2875 39.7946 83.4668C39.4786 83.7877 39.1415 84.0873 38.7858 84.3636C38.5775 84.5448 38.3799 84.738 38.1939 84.942L37.5527 85.5921C37.4182 85.7266 37.2927 85.8611 37.1672 86.0001C36.9743 86.2109 36.7815 86.4216 36.6112 86.6458C36.4867 86.8236 36.3714 87.0077 36.2659 87.1973L36.1942 87.3184C36.0955 87.4663 36.0372 87.4932 35.9072 87.4484L35.8175 87.4125C35.7234 87.3677 35.701 87.2601 35.7548 87.1345C35.934 86.7641 36.1633 86.4201 36.4363 86.1122C36.6381 85.8746 36.8488 85.6639 37.064 85.4217L37.0506 85.4307Z" fill="black"/>
<path d="M81.5253 66.7021C79.8051 69.8059 78.266 73.0067 76.9159 76.2884C76.5707 77.1089 76.2299 77.9339 75.9026 78.7634L75.6515 79.3867C75.5798 79.5795 75.5125 79.7633 75.4453 79.9651C75.3152 80.3641 75.2031 80.7856 75.0866 81.2116C74.673 83 74.1351 84.7575 73.4769 86.471C73.2013 87.1405 72.8461 87.7743 72.4187 88.3587C71.9486 89.0241 71.2962 89.5394 70.54 89.8428C70.1429 89.9844 69.7241 90.0558 69.3025 90.0536L68.751 90.0311C68.5672 90.0311 68.3833 89.9818 68.1995 89.9594C67.4608 89.837 66.7492 89.5866 66.0966 89.2196C64.9878 88.5592 64.0687 87.6231 63.4288 86.5024C62.8128 85.4418 62.3508 84.2989 62.0567 83.1082C61.7626 81.9446 61.5809 80.7554 61.5142 79.5571C61.4341 78.3575 61.5034 77.1525 61.7204 75.97C61.9332 74.7945 62.2606 73.6427 62.6979 72.531C63.1169 71.4346 63.5944 70.3614 64.1282 69.3161C65.1685 67.2267 66.3342 65.2404 67.3207 63.1823C67.7636 62.2792 68.1573 61.3527 68.4999 60.4069C68.8272 59.4743 69.0962 58.4789 69.3563 57.5059C69.8786 55.5645 70.2297 53.5811 70.4055 51.5783C70.4369 50.9416 70.4862 50.3049 70.4548 49.6727C70.4427 47.77 70.1045 45.8834 69.4549 44.0949C69.2484 43.4979 69.0058 42.9139 68.7286 42.3463C68.4596 41.7723 68.1098 41.2388 67.8318 40.6693C67.1829 39.5582 66.4211 38.5169 65.5586 37.5621C64.4869 36.3649 64.7201 36.4097 65.8321 37.2617C66.1713 37.5086 66.4934 37.7782 66.7961 38.0687L67.37 38.6023C67.5899 38.7928 67.798 38.9964 67.9932 39.2121C69.0077 40.2099 69.834 41.3825 70.4324 42.6736C70.5863 42.9892 70.724 43.3124 70.8449 43.6421L71.0377 44.1353L71.1364 44.3774L71.2081 44.633L71.4906 45.6508C71.5847 45.9916 71.6296 46.3413 71.7013 46.6865C71.8253 47.378 71.9136 48.0754 71.9659 48.776C71.9659 49.1212 71.9883 49.471 71.9972 49.8207V50.3453L71.9748 50.8654L71.93 51.9057L71.8179 52.9369C71.7596 53.6319 71.6251 54.282 71.5175 54.9815C71.244 56.3266 70.9256 57.6718 70.54 58.9541L70.2531 59.9271L69.9168 60.9225C69.6747 61.5727 69.4146 62.2183 69.1276 62.8416C68.5627 64.097 67.9305 65.2987 67.2893 66.4779C66.0159 68.8408 64.7066 71.1455 63.8144 73.5802C63.2604 75.026 62.9468 76.5527 62.8862 78.0998C62.8526 79.6782 63.0382 81.2536 63.4377 82.7809C63.7929 84.2845 64.4963 85.6836 65.4913 86.8656C65.969 87.4153 66.5626 87.8523 67.2293 88.1454C67.896 88.4384 68.6193 88.5802 69.3473 88.5605C69.6981 88.5482 70.0411 88.4538 70.3487 88.2848C70.6563 88.1158 70.92 87.877 71.1184 87.5875C71.6126 86.923 71.9985 86.1845 72.2618 85.3994C72.8626 83.7718 73.2168 82.0142 73.6921 80.2386C73.8177 79.7902 73.9522 79.3418 74.1405 78.8934L74.6337 77.6245C74.9715 76.7816 75.3137 75.9416 75.6605 75.1047C76.3555 73.4277 77.0908 71.7598 77.8755 70.1187C79.7339 66.0058 82.089 62.1359 84.8881 58.5954C85.4804 57.9254 86.1554 57.3333 86.8968 56.8333C87.6142 56.3401 88.3421 55.8828 89.0804 55.4613C90.5556 54.6049 92.0531 53.8157 93.5417 53.0311C96.5324 51.4618 99.5007 49.8924 102.366 48.211C104.575 46.9142 106.713 45.4983 108.769 43.9694C110.812 42.4719 112.723 40.8024 114.481 38.9789C114.858 38.5754 115.239 38.1808 115.579 37.7549C115.92 37.3289 116.274 36.9343 116.593 36.486C117.853 34.8673 118.539 33.715 119.063 32.9259C119.28 32.5972 119.515 32.2813 119.767 31.9798C119.939 31.7583 120.134 31.5568 120.35 31.379C120.518 31.216 120.698 31.0661 120.888 30.9306C121.144 30.805 121.175 31.1682 121 31.9529C120.956 32.1502 120.906 32.3744 120.83 32.621C120.754 32.8676 120.646 33.1231 120.534 33.4101C120.269 34.0706 119.953 34.7092 119.588 35.3202C118.347 37.3829 116.851 39.281 115.136 40.9697C113.41 42.6831 111.552 44.2588 109.58 45.6822C105.587 48.5063 101.391 51.0316 97.0256 53.2373L92.2325 55.7662C90.6724 56.5724 89.1617 57.4708 87.7084 58.4564L87.2107 58.8286L86.7623 59.2142C86.6278 59.3442 86.5112 59.4743 86.3812 59.5998C86.2511 59.7253 86.1077 59.9361 85.9687 60.102C85.6907 60.4383 85.4172 60.7835 85.1571 61.1377C84.8971 61.4919 84.628 61.8372 84.3814 62.2049C83.3672 63.6506 82.4274 65.1471 81.5656 66.6886L81.5253 66.7021Z" fill="black"/>
<path d="M49.336 43.0323C50.6184 42.2073 51.9097 41.4047 53.2234 40.6425C53.7032 40.3645 54.1605 40.0506 54.6493 39.7816C56.3576 38.8266 58.1063 37.9433 59.8863 37.1182C60.6799 36.7595 61.4646 36.3739 62.2717 36.0377C62.7867 35.8081 63.3189 35.6192 63.8634 35.4727C64.4226 35.3119 65.0037 35.2407 65.5852 35.262C65.9618 35.262 65.8856 35.4951 65.6211 35.7462C65.2548 36.0801 64.833 36.3471 64.3746 36.5354C64.128 36.6295 63.8858 36.7371 63.6392 36.8358L63.2716 37.0062L62.8949 37.1541C62.3972 37.3604 61.8995 37.5756 61.3973 37.7998L58.3798 39.2077C57.1592 39.8296 55.9737 40.5182 54.8286 41.2702C53.5373 42.0594 52.2549 42.8635 50.9815 43.6825C50.2014 44.1892 49.4212 44.7003 48.659 45.2339C47.4977 46.0365 46.3319 46.8525 45.2468 47.7313C44.424 48.4202 43.6383 49.1521 42.8928 49.9239L42.4131 50.4306C41.8033 51.0448 41.5611 51.148 41.1397 51.0269C41.0419 51.008 40.946 50.981 40.8527 50.9462C40.5613 50.8341 40.6106 50.3498 41.0231 49.7939C42.3503 48.2308 43.867 46.8391 45.5383 45.6509C46.7668 44.7272 48.0402 43.8574 49.3136 43.001L49.336 43.0323Z" fill="black"/>
<path d="M71.338 3.13551C80.4225 3.67233 89.5334 3.57195 98.6038 2.83509L101.079 2.59745L103.536 2.27014C105.181 2.08182 106.8 1.75002 108.432 1.49893C109.867 1.24335 111.279 0.916039 112.71 0.629078C113.459 0.494564 114.198 0.319698 114.952 0.216572L116.09 0.095508C116.468 0.0461599 116.848 0.0192135 117.229 0.0148034C120.276 -0.092276 123.316 0.363736 126.197 1.35993L127.26 1.73657C127.616 1.85387 127.967 1.99007 128.309 2.14459L130.362 3.04135L132.349 4.07261L132.846 4.32819L133.313 4.65102L134.272 5.21597C135.572 5.94683 136.783 6.80323 138.03 7.60582C138.639 8.02281 139.231 8.46671 139.823 8.89266C140.415 9.31862 141.034 9.74458 141.617 10.2064C145.795 13.3719 149.822 16.7662 153.682 20.2276L154.62 21.0526C154.92 21.3217 155.234 21.5907 155.552 21.8552L157.476 23.429L161.368 26.5677C163.968 28.6526 166.542 30.7645 168.99 33.0333C169.734 33.7686 169.999 34.1677 169.887 34.2215C169.775 34.2753 169.322 34.0287 168.542 33.6072C167.761 33.1857 166.685 32.5266 165.403 31.7106C164.771 31.2981 164.085 30.8497 163.376 30.343C162.668 29.8363 161.942 29.2714 161.193 28.6751L157.22 25.4826C155.897 24.402 154.584 23.3483 153.265 22.1781L149.477 18.8108C148.185 17.7212 146.925 16.5913 145.612 15.5286C144.298 14.466 143.007 13.3764 141.657 12.3631C140.984 11.8564 140.334 11.3139 139.644 10.8341L137.59 9.35898C134.849 7.41682 131.952 5.70561 128.928 4.24299L127.555 3.62872C127.107 3.41798 126.614 3.27899 126.143 3.10412L125.435 2.84854C125.199 2.75828 124.958 2.68339 124.713 2.62436L123.256 2.23875C123.013 2.16934 122.766 2.1169 122.516 2.08182L121.803 1.96076C121.309 1.86172 120.808 1.79581 120.305 1.76347C119.803 1.7276 119.296 1.67828 118.794 1.66035L117.279 1.69173H116.898L116.521 1.73208L115.768 1.81728L115.01 1.90247L114.261 2.05492C113.759 2.15804 113.279 2.24772 112.755 2.3643L111.194 2.70058C109.123 3.18931 107.024 3.50317 104.944 3.83946C100.348 4.49857 95.7252 4.8483 91.1069 5.04559C86.4887 5.24287 81.8614 5.25184 77.2431 5.13078C74.4004 5.06353 71.5622 4.92901 68.724 4.77208L64.4823 4.51202H63.9667C63.8174 4.5021 63.6676 4.5021 63.5183 4.51202C63.2119 4.54531 62.9107 4.61609 62.6216 4.72276C61.985 4.95741 61.3661 5.23762 60.7698 5.56122C58.913 6.5908 57.1166 7.72555 55.3892 8.95992C53.6406 10.1885 51.9233 11.4708 50.2374 12.7891C46.8611 15.421 43.588 18.1696 40.4404 21.0347C37.9967 23.2542 35.6472 25.5185 33.4277 27.9038C32.3203 29.092 31.2442 30.3027 30.2577 31.5671C29.775 32.1882 29.326 32.8348 28.9126 33.5041C28.7154 33.819 28.543 34.1488 28.397 34.4905C28.332 34.6343 28.2824 34.7846 28.249 34.9389C28.2415 34.9984 28.2415 35.0587 28.249 35.1182C28.249 35.1631 28.249 35.2931 28.249 35.3738C28.3595 36.726 28.6755 38.0535 29.1861 39.3106C29.5808 40.3424 30.0298 41.3527 30.5312 42.3371C30.9393 43.1531 31.289 43.8078 31.5715 44.3503C31.9928 45.0858 32.3412 45.8607 32.6117 46.6639C32.6834 46.9374 32.8359 47.2603 32.8538 47.4441C32.9749 48.0674 31.1231 46.5922 29.1547 43.05C28.4075 41.7203 27.7774 40.328 27.2715 38.8891C27.0144 38.139 26.8165 37.3699 26.6797 36.5889C26.6483 36.3871 26.6124 36.1898 26.59 35.9836L26.5496 35.3559C26.5275 35.0901 26.5457 34.8226 26.6034 34.5622C26.6545 34.3212 26.7281 34.0856 26.8232 33.8583C27.1534 33.0994 27.5638 32.3779 28.0472 31.7061C28.4956 31.0559 28.9754 30.4372 29.4686 29.8363C30.4505 28.6392 31.4863 27.4958 32.5489 26.3749C36.8683 21.9184 41.4451 17.7189 46.2558 13.7979C49.8305 10.8069 53.5731 8.02243 57.4652 5.4581C58.4695 4.80731 59.5066 4.20868 60.5725 3.66459C61.1497 3.37193 61.7495 3.12603 62.366 2.92925C62.7317 2.80802 63.1114 2.73418 63.4959 2.70955H63.6663C63.7066 2.70729 63.747 2.70729 63.7873 2.70955H64.025L64.4734 2.73197C66.796 2.87096 69.0782 3.02341 71.3739 3.12205L71.338 3.13551Z" fill="black"/>
<path d="M39.3733 34.5399C39.3011 34.3596 39.2142 34.1857 39.1133 34.0198C39.0819 33.957 39.0191 33.9256 38.9832 33.8628C38.8595 33.646 38.7088 33.4456 38.5349 33.2665C38.4547 33.1937 38.3621 33.1359 38.2613 33.0961C38.1313 33.0423 37.9923 33.0378 37.8982 32.8943C37.804 32.7509 38.23 32.1007 38.4317 32.1545C38.7761 32.2489 39.0781 32.4577 39.2881 32.7464C39.4257 32.8977 39.5757 33.0372 39.7365 33.1634C39.8882 33.3262 40.0275 33.5001 40.1535 33.6835C40.2342 33.7911 40.297 33.9077 40.3732 34.0198C40.4692 34.1911 40.5787 34.3545 40.7005 34.5085C40.8081 34.6161 40.9337 34.7058 41.0413 34.8089C41.0637 34.8313 41.0951 34.8493 41.113 34.8717C41.1848 34.9703 41.113 35.06 40.9606 35.2214L40.844 35.329C40.7891 35.3825 40.7237 35.4241 40.6519 35.4511C40.5802 35.4781 40.5036 35.49 40.427 35.486C40.2713 35.4513 40.1207 35.397 39.9786 35.3246C39.8612 35.2504 39.7604 35.1527 39.6827 35.0376C39.5572 34.8851 39.4585 34.7148 39.3419 34.5623L39.3733 34.5399Z" fill="black"/>
<path d="M142.751 49.2735C141.182 47.9283 139.545 46.6639 137.877 45.4443C137.272 44.9959 136.613 44.6193 135.998 44.1844C133.815 42.6593 131.545 41.2611 129.201 39.9965L128.421 39.5751C128.156 39.445 127.883 39.324 127.618 39.2029L126.004 38.4855L123.897 37.6874C123.188 37.4363 122.48 37.1987 121.789 36.8893C121.341 36.701 121.498 36.4409 121.969 36.2571C122.667 36.0445 123.413 36.0445 124.112 36.2571C127.108 37.2445 129.969 38.6 132.631 40.2925L135.084 41.799C135.918 42.2878 136.738 42.8168 137.541 43.3549C139.303 44.5341 140.993 45.8165 142.661 47.1213L144.172 48.3633C144.679 48.7713 145.172 49.1928 145.665 49.6232L146.782 50.5962L147.871 51.6005C148.602 52.2597 149.311 52.9457 150.019 53.6227L151.696 55.2279C152.252 55.7346 152.781 56.2726 153.31 56.8197C153.539 57.0573 153.759 57.268 154.001 57.5371C154.79 58.51 154.956 58.8822 154.799 59.3306C154.772 59.4359 154.735 59.5381 154.687 59.6355C154.512 59.9135 153.992 59.6848 153.342 59.0705C152.893 58.6221 152.373 58.1737 151.893 57.685L151.171 56.9721L150.427 56.2681C149.45 55.3086 148.423 54.3715 147.419 53.4075C146.647 52.7125 145.903 51.9906 145.109 51.3136L143.939 50.2823L142.728 49.3048L142.751 49.2735Z" fill="black"/>
<path d="M152.086 39.8126C152.475 39.1364 152.825 38.4388 153.135 37.7231L153.584 36.647L153.96 35.535C154.057 35.2647 154.14 34.9893 154.207 34.71C154.265 34.432 154.328 34.1495 154.4 33.876C154.656 32.8947 154.853 31.8991 154.992 30.8943L155.117 29.3743C155.144 29.1197 155.153 28.8635 155.144 28.6076V27.8454V27.1638C155.144 26.9352 155.09 26.7155 155.059 26.4868C154.996 26.0384 154.938 25.59 154.857 25.1417C154.709 24.5857 154.566 24.0252 154.409 23.4647C154.252 22.9043 154.036 22.3752 153.902 21.8057C153.812 21.4515 154.045 21.3932 154.386 21.5905C154.871 21.9108 155.248 22.3682 155.471 22.9043C156.358 25.2712 156.693 27.8089 156.453 30.3249C156.332 31.8523 156.117 33.3708 155.808 34.8714C155.717 35.2825 155.603 35.6881 155.467 36.0865C155.341 36.4901 155.225 36.8936 155.086 37.2927L154.606 38.4585C154.455 38.8511 154.282 39.2344 154.086 39.6063L153.377 40.9873L152.566 42.3145C152.458 42.4804 152.364 42.6508 152.252 42.8122L151.898 43.283L151.198 44.2201C150.705 44.8299 150.171 45.3993 149.665 45.9912C149.216 46.4171 148.817 46.8431 148.405 47.2825C147.992 47.7219 147.508 48.0806 147.06 48.4752L146.755 48.7353C146.652 48.816 146.54 48.8877 146.428 48.9639C145.576 49.4885 145.239 49.5513 144.854 49.2688C144.763 49.2089 144.676 49.143 144.594 49.0715C144.36 48.816 144.558 48.3676 145.073 47.9282C146.645 46.624 148.101 45.1852 149.423 43.6282C149.682 43.3444 149.923 43.045 150.145 42.7315L150.849 41.8033L151.467 40.8124C151.688 40.4902 151.885 40.1531 152.059 39.8036L152.086 39.8126Z" fill="black"/>
<path d="M0.274741 66.527C0.126776 66.5898 0.0460682 66.406 0.00123054 66.0787C-0.00673766 65.9241 0.0240883 65.7699 0.0909045 65.6303C0.174074 65.56 0.264222 65.4984 0.359933 65.4464C0.413739 65.4195 1.20288 65.4106 1.47639 65.4016C1.73301 65.3984 1.98904 65.427 2.23863 65.4868L3.73621 65.8007C3.84759 65.8233 3.95491 65.8626 4.05456 65.9172C4.3976 66.0951 4.76958 66.2105 5.15308 66.258C5.21697 66.2802 5.28648 66.2802 5.35037 66.258C5.7708 66.269 6.1875 66.34 6.58789 66.4687C6.8883 66.6346 7.1932 66.7557 7.48464 66.9171C7.52948 66.9171 7.58328 66.9171 7.61019 66.9978C7.68193 67.1637 7.78954 67.1548 7.8837 67.1861C8.02352 67.2216 8.1589 67.2727 8.28724 67.3386C8.3605 67.3939 8.42284 67.4623 8.47107 67.5404C8.4875 67.5905 8.4932 67.6436 8.48779 67.6961C8.48239 67.7487 8.466 67.7995 8.43968 67.8453C8.36794 67.908 8.4083 68.0156 8.39933 68.1098C8.40197 68.1411 8.40197 68.1726 8.39933 68.204C8.07906 68.3525 7.73943 68.4552 7.39048 68.5089L6.72688 68.4685C6.39508 68.4326 6.04984 68.3923 5.9781 68.3923C5.90281 68.3778 5.83208 68.3455 5.77184 68.2981C5.73597 68.2981 4.75402 68.1681 4.71815 68.1546C4.52535 68.0874 4.31462 68.0919 4.1532 67.9125C4.12234 67.8847 4.08261 67.8688 4.04111 67.8677C3.70461 67.7852 3.37486 67.6772 3.05468 67.5448C2.88821 67.4926 2.71908 67.4492 2.54801 67.4148C2.51768 67.4001 2.4891 67.3821 2.46282 67.361C2.42932 67.3387 2.39318 67.3206 2.35521 67.3072C1.96236 67.1873 1.56256 67.0915 1.15804 67.0202C1.06388 67.0202 0.655861 66.7736 0.548251 66.7692C0.44064 66.7647 0.33303 66.5001 0.274741 66.527Z" fill="black"/>
<path d="M15.219 62.0432C15.4028 62.1418 15.2683 62.3615 14.95 62.6709C14.7951 62.8039 14.6106 62.8977 14.4119 62.9444C14.2732 62.9153 14.138 62.8717 14.0084 62.8144C13.6871 62.4655 13.3877 62.0971 13.1116 61.7114C12.9155 61.4486 12.7556 61.1605 12.6364 60.855C12.3898 60.2407 12.1342 59.6354 11.919 59.0122C11.8692 58.8676 11.8405 58.7166 11.8338 58.5638C11.7957 58.0619 11.6854 57.568 11.5064 57.0976C11.4795 57.0169 11.4706 56.9317 11.3854 56.8734C11.145 56.3649 10.9933 55.8189 10.937 55.2592C10.9818 54.8109 10.9684 54.3625 11.0222 53.9141C11.0222 53.8469 10.9953 53.7841 11.067 53.7168C11.2329 53.5599 11.1881 53.4343 11.1881 53.2998C11.1875 53.1085 11.207 52.9176 11.2464 52.7304C11.2913 52.6252 11.3535 52.5282 11.4302 52.4434C11.4975 52.3538 11.7575 52.3762 11.7889 52.4031C11.8203 52.43 11.9952 52.4031 12.1028 52.3807C12.1415 52.3764 12.1806 52.3764 12.2194 52.3807C12.3546 52.5294 12.472 52.6934 12.5691 52.8694C12.6947 53.0478 12.8071 53.2351 12.9054 53.4299C12.9054 53.4299 12.9278 53.5285 12.9726 53.6675C13.0175 53.8065 13.0668 53.9859 13.1206 54.1742C13.2282 54.5508 13.3493 54.9364 13.3851 55.0126C13.4076 55.0994 13.4076 55.1904 13.3851 55.2772C13.3851 55.322 13.7977 56.4161 13.8335 56.4609C13.8739 56.6985 14.0039 56.9093 13.9142 57.1873C13.8962 57.2334 13.8962 57.2846 13.9142 57.3307C14.0411 57.729 14.1429 58.1349 14.2191 58.5458C14.2802 58.7498 14.352 58.9503 14.4344 59.1467C14.4389 59.1869 14.4389 59.2275 14.4344 59.2677C14.4275 59.3168 14.4275 59.3666 14.4344 59.4157C14.5872 59.8954 14.7792 60.3618 15.0083 60.8101C15.0666 60.9088 15.1204 61.4917 15.2056 61.5993C15.2907 61.7069 15.1473 61.9939 15.219 62.0432Z" fill="black"/>
<path d="M20.9136 94.6357C20.6221 89.3986 20.6177 84.184 20.8194 78.9425C20.9001 77.0369 20.9764 75.1313 21.1826 73.2257C21.3069 71.9775 21.497 70.7368 21.752 69.5086C21.8809 68.8695 22.0639 68.2425 22.2991 67.6344C22.4322 67.2861 22.6165 66.9597 22.8461 66.6659C22.9965 66.4576 23.2022 66.2956 23.4399 66.1981C23.6776 66.1006 23.9379 66.0717 24.1912 66.1144L30.4057 67.6927L36.5485 69.2262C39.4271 69.9256 42.337 70.5713 45.2111 71.1945C47.0584 71.5757 48.9102 71.9568 50.762 72.3244C51.6902 72.4948 52.6138 72.6921 53.5375 72.849C54.4611 73.006 55.3893 73.1808 56.295 73.2974C57.3801 73.3781 57.3218 73.6561 56.295 73.9117C54.6017 74.1565 52.8789 74.1095 51.2014 73.7727C47.3723 73.1181 43.6015 72.2572 39.8351 71.3604C36.0687 70.4637 32.3113 69.5041 28.5494 68.4953L26.3076 67.9034L24.0926 67.3475C24.0621 67.3401 24.0305 67.3391 23.9996 67.3445C23.9688 67.3499 23.9394 67.3616 23.9132 67.3788C23.8876 67.3978 23.8649 67.4204 23.846 67.4461C23.8031 67.4942 23.7655 67.5468 23.7339 67.603C23.5609 67.9037 23.4254 68.2245 23.3303 68.5581C23.1142 69.2933 22.9479 70.0423 22.8326 70.8C22.5905 72.3469 22.447 73.9386 22.3305 75.5079C22.0008 80.7144 21.9335 85.9341 22.1287 91.1473C22.187 92.7525 22.2677 94.3577 22.4022 95.9494C22.4336 96.3485 22.4739 96.7475 22.5143 97.1421C22.5143 97.2632 22.5143 97.2721 22.5412 97.3304C22.5533 97.3793 22.578 97.4241 22.6129 97.4604C22.7188 97.5645 22.8361 97.6563 22.9627 97.734C23.6287 98.1268 24.3296 98.457 25.0566 98.7204C27.2985 99.5723 29.6569 100.245 32.0064 100.891C34.3559 101.536 36.7189 102.106 39.0773 102.644C42.7451 103.473 46.3724 104.137 50.0312 104.796L52.439 105.213C53.9365 105.509 54.923 105.715 55.6045 105.912C56.0813 106.039 56.5352 106.241 56.9496 106.509C57.0882 106.59 57.2215 106.68 57.3487 106.778C57.4787 106.912 57.2231 106.979 56.6582 106.997C55.7977 107.01 54.9375 106.959 54.0845 106.845C52.4255 106.657 50.7531 106.397 49.0716 106.096C47.3902 105.796 45.6909 105.486 43.9871 105.137C40.5794 104.442 37.1403 103.657 33.7103 102.783C31.1635 102.124 28.6212 101.438 26.0879 100.572C25.4556 100.357 24.8234 100.124 24.1912 99.8772C23.5294 99.621 22.8891 99.3121 22.2766 98.9535C22.0963 98.84 21.924 98.7141 21.761 98.5769C21.5158 98.3764 21.3298 98.1129 21.223 97.8147C21.1712 97.6704 21.141 97.5193 21.1333 97.3663L21.1019 97.1152L21.0526 96.6175C20.9898 95.9539 20.9405 95.2724 20.8956 94.6312L20.9136 94.6357Z" fill="black"/>
</svg>
