<svg width="179" height="134" viewBox="0 0 179 134" fill="none" xmlns="http://www.w3.org/2000/svg">
<circle cx="113" cy="67" r="15" fill="#FDC4C4"/>
<path opacity="0.3" d="M135.033 35.5611C135.033 35.5611 134.111 32.1015 133.171 32.0943C132.231 32.087 122.037 33.9057 121.467 34.0509C120.897 34.1961 118.918 37.0785 118.918 37.0785C118.918 37.0785 128.19 37.5577 132.038 36.1891C135.887 34.8205 135.03 35.5611 135.03 35.5611H135.033Z" fill="#231F20"/>
<path d="M130.611 32.2647C130.161 32.3446 134.311 32.6858 134.042 35.6844C133.988 36.2943 132.927 35.8841 132.927 35.8841H135.661C135.661 35.8841 133.94 32.5297 133.556 32.3119C133.171 32.0941 130.611 32.2647 130.611 32.2647Z" fill="#231F20"/>
<path d="M129.926 32.9722C128.891 33.1102 127.86 33.259 126.833 33.4224L125.711 33.6329C124.386 33.8435 123.068 34.0903 121.747 34.3227C121.162 34.4279 120.578 34.5659 120 34.6857C119.26 34.849 118.516 35.0124 117.764 35.1395C117.528 35.1794 117.55 35.1249 117.724 35.0088C117.902 34.8999 118.233 34.7038 118.65 34.555C120.12 34.025 121.612 33.5785 123.166 33.328C124.092 33.1755 125.039 32.9287 125.98 32.7435C127.014 32.5402 128.056 32.3587 129.094 32.1808C129.733 32.0719 130.376 31.9739 131.019 31.8759L131.389 31.8178C131.523 31.7997 131.657 31.7888 131.788 31.7852C132.05 31.7779 132.304 31.7924 132.547 31.8033L132.906 31.8142H133.081C133.131 31.8106 133.2 31.8106 133.277 31.8142C133.556 31.796 133.912 31.9195 134.137 32.1482C134.485 32.5185 134.58 32.9323 134.703 33.2881C134.816 33.6511 134.928 33.9887 135.074 34.2973C135.132 34.4388 135.219 34.5477 135.284 34.6748C135.52 35.1431 135.615 35.2847 135.567 35.5352C135.556 35.5896 135.556 35.655 135.542 35.7021C135.517 35.782 135.437 35.8074 135.302 35.7747C135.237 35.7566 135.153 35.7276 135.063 35.6804C134.976 35.6295 134.885 35.5569 134.78 35.4698C134.478 35.2121 134.26 34.8563 134.119 34.5042C133.966 34.152 133.865 33.7927 133.77 33.4732C133.683 33.1574 133.563 32.867 133.484 32.8052C133.473 32.798 133.469 32.7835 133.462 32.7798C133.451 32.7798 133.444 32.7798 133.44 32.7726C133.44 32.7544 133.393 32.7689 133.375 32.7508C133.349 32.7399 133.287 32.7508 133.244 32.7435C133.229 32.7435 133.226 32.7435 133.204 32.7435H133.128L132.979 32.7508C132.398 32.7508 131.904 32.6927 131.498 32.7544L129.94 32.9976V32.9759L129.926 32.9722Z" fill="#231F20"/>
<path opacity="0.3" d="M60.6922 113.008C60.3146 113.106 62.0753 116.043 62.0753 116.043C62.0753 116.043 75.4168 114.093 82.8589 113.008L79.2903 110.928L60.6377 112.14L60.6922 113.008Z" fill="#231F20"/>
<path d="M60.6335 114.061L78.3494 111.371C78.3494 111.371 60.4519 111.461 60.3104 111.803C60.1688 112.144 60.6371 114.061 60.6371 114.061H60.6335Z" fill="#231F20"/>
<path d="M67.1608 114.579C68.6638 114.34 70.1704 114.115 71.6733 113.897C72.2215 113.813 72.7661 113.704 73.3143 113.636C75.2528 113.392 77.1987 113.182 79.1409 112.986C80.0049 112.906 80.8726 112.808 81.7257 112.71C82.2775 112.648 82.8293 112.59 83.3884 112.579C83.6679 112.572 83.9438 112.557 84.2234 112.572C84.5029 112.605 84.7825 112.634 85.0656 112.666C85.4141 112.713 85.3633 112.808 85.0765 112.971C84.9313 113.055 84.7316 113.156 84.492 113.269C84.3722 113.323 84.2452 113.385 84.1036 113.436C83.9656 113.483 83.8168 113.523 83.6607 113.548C83.3848 113.599 83.1161 113.639 82.8402 113.697L82.43 113.781L82.0161 113.839L80.3571 114.071C79.2498 114.238 78.1317 114.333 77.0027 114.427C75.6522 114.532 74.2727 114.823 72.904 115.037C71.4011 115.273 69.8945 115.501 68.3952 115.759C67.4694 115.912 66.551 116.079 65.6288 116.249C65.0589 116.362 64.478 116.46 63.9117 116.587C63.6285 116.649 63.3381 116.703 63.0622 116.776L62.6447 116.881L62.4269 116.939L62.1292 117.033C61.9659 117.059 61.8025 117.106 61.6428 117.117C61.4758 117.088 61.3596 116.961 61.2579 116.834C61.0438 116.547 60.884 116.097 60.7969 115.886L60.4956 115.113C60.3032 114.608 60.1071 114.104 59.9147 113.599C59.8276 113.381 59.7405 113.167 59.6497 112.949C59.352 112.133 59.3593 111.846 59.5299 111.552C59.5698 111.486 59.6025 111.407 59.6461 111.356C59.784 111.189 60.1434 111.432 60.5101 112.02C60.9603 112.786 61.2725 113.625 61.5956 114.445C61.7517 114.855 61.9041 115.269 62.0639 115.647L62.0784 115.683H62.0857C62.0857 115.683 62.0893 115.679 62.0893 115.676C61.9767 115.708 62.3761 115.592 62.5975 115.53C64.1186 115.117 65.6143 114.804 67.1318 114.539L67.1391 114.572L67.1608 114.579Z" fill="#231F20"/>
<path opacity="0.3" d="M39.9375 44.0667C39.9375 44.0667 45.6153 60.6059 46.3269 64.1671C46.8751 66.9224 43.9345 43.2354 43.9345 43.2354L39.9411 44.0667H39.9375Z" fill="#231F20"/>
<path d="M40.9284 49.6714L42.6093 54.0312C42.8126 54.5612 43.0413 55.084 43.2337 55.6176C43.9017 57.509 44.5297 59.4148 45.1178 61.3352C45.3828 62.1847 45.6442 63.0414 45.8802 63.8945C46.2069 64.9835 46.4501 66.1089 46.5482 67.2488C46.5772 67.6046 46.4719 67.5719 46.2868 67.3069C46.1089 67.0382 45.8076 66.5482 45.5825 65.9419C45.3792 65.4046 45.2049 64.8638 45.0234 64.3229L44.4644 62.7001C44.1267 61.6038 43.7891 60.5039 43.4515 59.3967C43.0522 58.068 42.4749 56.743 41.9703 55.4143C41.4185 53.955 40.8558 52.4957 40.2786 51.0399C39.9228 50.1433 39.5671 49.2503 39.2076 48.3536C38.9317 47.6784 38.6776 46.9886 38.4199 46.3025C38.2892 45.9468 38.173 45.6309 38.0459 45.2316C37.9733 44.9848 37.8898 44.727 37.9334 44.5128C37.9516 44.462 37.9552 44.393 38.0024 44.3604C38.0387 44.3168 38.0968 44.2987 38.144 44.2696C38.2492 44.2188 38.3582 44.1643 38.4816 44.128C38.7865 44.0482 39.0878 43.9683 39.3892 43.8884C39.6578 43.8158 39.9228 43.736 40.1878 43.6561C40.7142 43.4964 41.2334 43.3185 41.7489 43.1297C41.9776 43.0499 42.1918 42.9518 42.4205 42.872C43.2518 42.538 43.5386 42.5017 43.8073 42.6106C43.869 42.636 43.9452 42.6542 43.9888 42.6868C44.065 42.7413 44.0324 42.8393 43.9089 42.9736C43.7855 43.1079 43.5677 43.2749 43.2627 43.4456C42.3479 43.9102 41.3641 44.2769 40.3548 44.5818C39.9119 44.7125 39.469 44.8468 39.0225 44.9775C39.0225 44.9775 39.0225 44.9811 39.0225 44.9848C39.0225 44.9848 39.0225 44.9848 39.0225 44.9884L39.1568 45.3369C39.44 46.0411 39.7522 46.7599 40.0571 47.4751L40.9393 49.6532L40.9139 49.6641L40.9284 49.6714Z" fill="#231F20"/>
<path d="M35.385 99.202C35.385 99.202 37.1747 97.6591 38.5579 95.5572C38.5579 95.5572 42.3734 93.3864 43.8182 92.9253C45.2631 92.4643 42.3153 92.3735 42.3153 92.3735L38.2094 94.2758L34.2378 98.5703L35.385 99.202Z" fill="#231F20"/>
<path d="M34.2548 86.5365C34.2548 86.5365 41.0217 86.9975 45.1204 84.7432L43.3705 87.0302C43.3705 87.0302 37.896 88.9832 34.7231 87.1936C33.3363 86.4094 34.2584 86.5401 34.2584 86.5401L34.2548 86.5365Z" fill="#231F20"/>
<path d="M42.3154 43.5403C42.3154 43.5403 45.7279 58.9941 45.5718 61.3283C45.452 63.1506 45.7388 58.1627 45.7388 58.1627L43.9309 43.2354L42.3154 43.5403Z" fill="#231F20"/>
<path opacity="0.2" d="M116.017 76.0303C116.017 76.0303 114.805 74.5927 116.017 72.0843C117.23 69.5722 127.547 65.0417 128.996 65.1252C130.444 65.2087 132.401 66.4829 132.401 66.4829L120.443 74.0845C120.443 74.0845 119.956 73.2713 119.078 74.1607C118.199 75.0501 118.196 75.562 118.196 75.562L116.021 76.0303H116.017Z" fill="#231F20"/>
<path opacity="0.2" d="M129.327 74.1867C129.327 74.1867 132.268 76.2305 132.809 78.0021C133.35 79.7736 133.916 80.1257 132.282 80.7066C132.282 80.7066 126.978 79.6102 123.286 76.1325C119.591 72.6511 119.957 73.2755 119.079 74.1649C118.2 75.0543 118.581 77.0364 119.395 78.8443C120.208 80.6485 128.43 87.5277 132.01 89.056C135.589 90.5843 139.746 93.0384 142.759 92.3813C145.773 91.7242 147.007 91.5354 147.007 91.5354C147.007 91.5354 153.665 100.745 153.643 101.667C153.621 102.589 160.196 91.9566 159.778 90.8167C159.361 89.6768 153.443 88.3626 150.764 83.6398C148.089 78.9169 141.888 71.769 140.374 70.6799C138.86 69.5872 137.869 69.2642 137.869 69.2642L129.327 74.2012V74.1867Z" fill="#231F20"/>
<path d="M112.849 68.774L111.143 52.6958C111.143 52.6958 103.261 53.9192 100.303 59.3899C97.3439 64.8606 98.1426 69.6706 98.1426 69.6706L112.849 68.7703V68.774Z" fill="#231F20"/>
<path d="M110.714 69.0788L105.755 69.5071C105.152 69.5616 104.549 69.6487 103.947 69.6995C101.816 69.8738 99.6775 70.019 97.5392 70.1279C96.5917 70.186 95.6369 70.2477 94.6967 70.3167C93.4878 70.3602 92.268 70.549 91.0518 70.284C90.6743 70.2041 90.7251 70.088 91.0409 69.8774C91.2007 69.7758 91.4221 69.616 91.6944 69.5035C91.8287 69.4454 91.9739 69.3801 92.13 69.3401C92.2861 69.3075 92.4495 69.2821 92.6238 69.2748C95.0633 69.1114 97.5065 69.0062 99.9861 68.919C101.471 68.8755 103.003 68.6577 104.513 68.5124L109.508 68.0405C110.536 67.9498 111.563 67.859 112.591 67.7682C114.148 67.6448 115.713 67.5214 117.259 67.4016C117.862 67.358 118.457 67.3 119.049 67.2346C119.644 67.1802 120.236 67.1257 120.831 67.0713C121.093 67.0495 121.351 67.0168 121.616 67.0095C121.862 67.0023 122.066 66.9987 122.236 67.0059C122.407 67.0168 122.545 67.0458 122.661 67.0785C122.774 67.1112 122.864 67.1511 122.941 67.2019C123.017 67.26 123.075 67.329 123.126 67.398C123.173 67.4633 123.238 67.5178 123.264 67.5722C123.358 67.7174 122.959 68.0187 122.251 68.1204C120.145 68.36 117.931 68.5015 115.702 68.6867C114.046 68.821 112.38 68.9517 110.714 69.1114V69.0824V69.0788Z" fill="#231F20"/>
<path d="M97.8809 62.9331C98.3275 61.3213 99.0753 59.793 100.059 58.4462C101.039 57.0958 102.248 55.9341 103.595 54.9685C104.583 54.2751 105.632 53.6652 106.746 53.2114C107.73 52.8157 108.743 52.5108 109.778 52.293C110.812 52.0861 111.861 51.9699 112.91 51.9445C115.012 51.8792 117.118 52.2168 119.1 52.9065C120.854 53.5382 122.52 54.4566 123.929 55.6691C124.832 56.4459 125.66 57.3317 126.314 58.3373C126.47 58.5914 126.619 58.8528 126.767 59.1105C126.913 59.3719 127.029 59.6478 127.16 59.9164C127.301 60.1778 127.366 60.4755 127.45 60.7623C127.537 61.0454 127.595 61.3395 127.653 61.6299C127.788 62.3559 127.664 62.2761 127.268 61.7751C127.167 61.648 127.047 61.4992 126.913 61.3322C126.753 61.1725 126.604 60.9837 126.426 60.7913C126.259 60.5916 126.096 60.3738 125.929 60.1415C125.765 59.9092 125.591 59.6623 125.413 59.4082C125.268 59.1759 125.097 58.9581 124.931 58.7402L124.687 58.4099L124.422 58.0977L124.157 57.7855L123.87 57.4914C123.682 57.2918 123.489 57.0994 123.282 56.9215C122.473 56.1846 121.565 55.5565 120.589 55.0411C118.632 54.021 116.439 53.3929 114.17 53.2296C112.812 53.1316 111.411 53.2405 110.039 53.5309C108.67 53.8322 107.338 54.3186 106.096 54.943C103.377 56.3298 101.054 58.5878 99.7869 61.3939C99.3803 62.247 99.1044 63.1618 98.8865 64.0839C98.676 65.0096 98.5925 65.9643 98.5707 66.9155C98.5526 69.8015 99.3875 72.7202 100.934 75.1524C101.54 76.0926 102.255 76.9493 103.047 77.7117C103.439 78.1001 103.867 78.4413 104.292 78.7898L104.96 79.2654C105.182 79.4288 105.421 79.5558 105.653 79.7047L105.958 79.8934L106.278 80.0568C106.492 80.1621 106.699 80.2819 106.917 80.3871C107.73 80.7719 108.278 80.9897 108.645 81.2039C108.83 81.3056 108.979 81.3818 109.095 81.4762C109.211 81.5706 109.298 81.665 109.375 81.763C109.444 81.8537 109.542 81.9481 109.578 82.0207C109.64 82.1442 109.476 82.1913 109.117 82.195C108.935 82.2022 108.71 82.1768 108.438 82.1333C108.173 82.0752 107.868 81.9953 107.527 81.89C105.537 81.2003 103.639 80.0169 102.067 78.4486C101.286 77.6609 100.575 76.7932 99.9611 75.853C99.3549 74.9092 98.843 73.9 98.4255 72.8508C97.8229 71.2862 97.4526 69.6272 97.34 67.9464C97.2347 66.2657 97.4126 64.5595 97.8555 62.9295H97.8882L97.8809 62.9331Z" fill="#231F20"/>
<path d="M114.715 85.0591C114.722 85.3422 114.744 85.629 114.773 85.9376C114.773 86.0538 114.802 86.1627 114.795 86.2788C114.773 86.6927 114.733 87.1029 114.704 87.4986C114.697 87.6765 114.704 87.8507 114.719 88.025C114.73 88.1375 114.726 88.2464 114.719 88.3589C114.722 88.4715 114.646 88.584 114.602 88.7002C114.566 88.7728 114.508 88.7655 114.406 88.7111C114.356 88.6857 114.287 88.6457 114.214 88.6022C114.178 88.5804 114.141 88.555 114.105 88.5296C114.087 88.515 114.072 88.5005 114.05 88.4896C114.043 88.4751 114.032 88.4606 114.029 88.4461C113.989 88.3372 113.941 88.2283 113.909 88.1194C113.891 88.0105 113.876 87.9015 113.865 87.789C113.843 87.5712 113.84 87.3498 113.858 87.1247C113.887 86.856 113.782 86.5947 113.734 86.3297C113.705 86.1845 113.691 86.032 113.687 85.8795L113.665 85.404C113.665 85.2079 113.658 85.0119 113.655 84.8195C113.647 84.5255 113.669 84.235 113.644 83.9483C113.629 83.7268 113.553 83.5126 113.509 83.2948C113.498 83.2476 113.48 83.2004 113.477 83.1496C113.466 83.0589 113.484 83.0008 113.546 82.9572C113.575 82.9354 113.607 82.9173 113.647 82.9064C113.698 82.8919 113.76 82.881 113.814 82.8701L113.941 82.8447C114.025 82.8265 114.316 82.8955 114.385 83.0226C114.577 83.4037 114.632 83.803 114.671 84.1951C114.701 84.4891 114.711 84.7759 114.744 85.0591H114.719H114.715Z" fill="#231F20"/>
<path d="M112.159 66.1784C112.039 64.5194 111.905 62.8567 111.759 61.1977C111.716 60.5915 111.64 59.9889 111.6 59.3826C111.454 57.2444 111.298 55.1026 111.113 52.9644C111.033 52.017 110.924 51.0658 110.819 50.1256C110.685 48.9204 110.572 47.7006 110.612 46.4809C110.619 46.0997 110.678 46.1469 110.808 46.4555C110.924 46.7677 111.179 47.334 111.32 48.0201L111.614 49.8534C111.69 50.4669 111.763 51.084 111.839 51.6975C111.981 52.9281 112.111 54.166 112.21 55.4112C112.322 56.9032 112.562 58.4424 112.729 59.9635L112.859 61.2195L112.961 62.4792L113.15 64.9986C113.219 66.0332 113.291 67.0678 113.36 68.0988C113.451 69.667 113.542 71.2389 113.629 72.7962C113.716 74.0051 113.8 75.1922 113.883 76.3865C113.901 76.6515 113.923 76.9093 113.927 77.1743C113.941 77.668 113.927 77.9947 113.865 78.2234C113.84 78.3396 113.807 78.4267 113.763 78.5029C113.712 78.5792 113.651 78.6372 113.596 78.6881C113.545 78.7353 113.502 78.8006 113.469 78.826C113.386 78.9204 113.092 78.5174 113.019 77.8023C112.819 75.6786 112.678 73.446 112.514 71.199C112.398 69.5291 112.275 67.8519 112.133 66.182H112.159V66.1784Z" fill="#231F20"/>
<path d="M149.929 96.1201C150.031 96.2726 144.691 103.155 146.596 106.016C148.067 108.22 153.636 101.66 153.636 101.66L149.925 96.1201H149.929Z" fill="#231F20"/>
<path d="M117.311 75.9148C117.336 76.2378 117.445 78.0094 118.185 78.8407C118.926 79.672 119.884 78.8407 119.884 78.8407L118.2 75.0508L117.311 75.9148Z" fill="#231F20"/>
<path d="M142.585 60.7108C142.585 60.7108 144.154 62.0395 142.959 63.4226C141.42 65.1977 123.468 75.2244 122.553 75.3442C121.638 75.464 124.361 76.6401 124.361 76.6401C124.361 76.6401 144.226 66.3558 145.217 64.2139C146.887 60.6019 142.585 60.7108 142.585 60.7108Z" fill="#231F20"/>
<path d="M119.067 78.0015C119.067 78.0015 112.638 81.9765 112.108 81.9838C111.578 81.9911 112.438 83.4068 112.438 83.4068L120.102 79.272L119.067 78.0015Z" fill="#231F20"/>
<path opacity="0.3" d="M2.42773 115.124C2.42773 115.124 5.13596 116.213 6.15608 114.318C7.06003 112.637 4.34455 111.28 4.34455 111.28L2.42773 115.124Z" fill="#231F20"/>
<path opacity="0.3" d="M13.9088 119.644C13.4042 119.542 12.8633 119.666 12.4349 120.105C11.6907 120.867 11.825 122.279 12.6563 122.929C13.6946 123.742 15.4553 122.744 15.4444 121.466C15.4372 120.544 14.7184 119.807 13.9088 119.644Z" fill="#231F20"/>
<path opacity="0.3" d="M6.5273 122.011C6.08803 121.923 5.61972 122.029 5.24579 122.41C4.5996 123.071 4.71577 124.298 5.4382 124.864C6.34215 125.568 7.87052 124.704 7.85963 123.593C7.85237 122.795 7.23158 122.152 6.5273 122.011Z" fill="#231F20"/>
<path opacity="0.3" d="M21.1109 125.463C21.1109 125.463 19.0852 124.977 18.2647 126.106C17.4443 127.235 17.6258 129.489 19.6878 130.052C19.6878 130.052 21.0383 127.231 21.1109 125.463Z" fill="#231F20"/>
<path d="M5.65625 107.806C5.65625 107.806 8.02322 112.38 15.4436 116.67C17.1136 117.636 6.9668 108.06 6.71994 106.473C6.47307 104.887 5.65625 107.806 5.65625 107.806Z" fill="#231F20"/>
<path d="M14.4092 115.015C14.4092 115.015 20.8603 119.578 22.3015 118.9C24.0187 118.09 16.2207 111.28 16.2207 111.28L14.4092 115.019V115.015Z" fill="#231F20"/>
<path d="M88.9912 48.0999C88.9912 48.0999 89.6047 48.4593 90.3744 48.2524C91.144 48.0454 95.7545 46.1505 99.9076 38.1568C99.9076 38.1568 104.932 37.0968 106.366 35.9024C107.8 34.7081 107.582 33.9385 107.582 33.9385C107.582 33.9385 100.056 37.4779 99.3667 37.1258C98.6805 36.7737 95.1954 43.0938 93.6235 44.5968C92.4074 45.7584 88.9948 48.0999 88.9948 48.0999H88.9912Z" fill="#231F20"/>
<path d="M117.368 30.6241C117.368 30.6241 118.443 28.8817 119.223 29.1575C120.004 29.4334 119.75 31.0489 118.802 31.5644C117.855 32.0835 117.139 31.9419 117.368 30.6241Z" fill="#231F20"/>
<path d="M123.381 23.9949C123.381 23.9949 124.651 26.2492 124.905 25.0186C125.16 23.788 124.593 20.9274 124.143 20.372C123.693 19.8165 125.196 19.3301 125.196 19.3301C125.196 19.3301 126.336 25.5486 125.61 26.9934C124.884 28.4383 123.751 27.6432 123.667 26.605C123.584 25.5668 122.916 24.3361 122.916 24.3361L123.377 23.9949H123.381Z" fill="#231F20"/>
<path d="M120.124 9.22394C120.375 9.53613 125.29 16.5678 125.552 21.4904C125.813 26.4093 125.533 27.6908 125.533 27.6908C125.533 27.6908 132.696 25.411 135.081 24.0134C137.466 22.6158 143.736 18.6988 144.295 18.3394C144.854 17.98 143.729 15.5949 141.318 14.2627C138.908 12.9304 139.013 12.6218 139.525 10.4183C140.037 8.21474 140.044 5.55017 137.659 4.83139C135.274 4.11261 134.718 2.54436 135.339 1.31009C135.96 0.075826 127.541 5.19441 127.334 5.29606C127.127 5.3977 120.121 9.22394 120.121 9.22394H120.124Z" fill="#231F20"/>
<path d="M22.3124 84.4635C19.9019 87.2515 17.6511 90.1847 15.5092 93.2014C14.7541 94.3195 13.9953 95.434 13.262 96.5666C10.6337 100.531 8.18318 104.622 6.01951 108.862C5.07199 110.75 4.14626 112.663 3.36211 114.605C3.10799 115.226 2.82845 115.843 2.59974 116.475C2.3674 117.106 2.13869 117.742 1.89546 118.366C1.37632 119.611 1.0024 120.903 0.486892 122.149C0.174684 122.929 0.011319 122.769 0.000427986 122.018C-0.00320234 121.644 0.0149493 121.118 0.105707 120.497C0.200096 119.88 0.319897 119.15 0.592171 118.413C2.41459 113.142 4.83239 108.103 7.70761 103.308C8.54258 101.859 9.45017 100.411 10.3178 98.9335C10.7535 98.1966 11.229 97.4778 11.6828 96.7481C12.1439 96.0221 12.5904 95.2888 13.0841 94.5881L14.6778 92.2612L16.3369 89.9778C16.8814 89.2118 17.4659 88.4749 18.0431 87.7307C18.6204 86.9901 19.1903 86.2387 19.8039 85.5235C20.5481 84.6378 21.2705 83.7302 22.0619 82.8807L23.2236 81.5884C23.6121 81.1564 24.0296 80.7535 24.4325 80.336L25.3546 79.3921C25.6668 79.0836 26.0008 78.7931 26.3239 78.4918L27.3005 77.5988C27.6308 77.3048 27.9902 77.0434 28.3315 76.7638C28.68 76.4916 29.014 76.2084 29.377 75.9434C29.7509 75.6821 30.143 75.4425 30.5496 75.2464C31.3628 74.8435 32.2305 74.5676 33.109 74.3933C34.474 74.1211 35.8499 74.0666 37.204 74.132C38.5617 74.1937 39.8977 74.3788 41.2228 74.6257C41.8073 74.7382 42.3772 74.8435 42.9544 74.9778C43.4917 75.1049 43.931 75.2174 44.3013 75.319C44.668 75.4243 44.9548 75.5332 45.1907 75.624C45.6627 75.8055 45.9168 75.9761 46.1165 76.1649C46.2072 76.2484 46.3379 76.3319 46.3887 76.4008C46.5848 76.6114 45.6046 76.7312 44.0181 76.4371C41.6875 75.9652 39.3277 75.4715 36.939 75.3662C35.7519 75.319 34.5611 75.3662 33.4176 75.5877C32.2813 75.8164 31.1922 76.2084 30.2628 76.8473L30.0014 77.0252L29.7364 77.2394L29.2064 77.6641C28.8543 77.9509 28.4912 78.2232 28.1463 78.5245C27.4747 79.1525 26.785 79.7551 26.1279 80.405C25.4853 81.0693 24.8282 81.7227 24.1965 82.3979L22.3415 84.4744L22.316 84.4562L22.3124 84.4635Z" fill="#231F20"/>
<path d="M39.5558 93.0448C40.8409 92.5003 42.1115 92.0356 43.364 91.5347C44.6128 91.0301 45.8507 90.5182 47.0052 89.9047C47.4263 89.6796 47.8293 89.4328 48.1923 89.1569C48.5553 88.8846 48.8893 88.5906 49.1108 88.2856C49.3104 88.0134 49.3903 87.7665 49.354 87.5306C49.3213 87.3019 49.1144 86.9679 48.9002 86.79C48.6788 86.6049 48.3774 86.5032 48.0108 86.4851C47.6441 86.4705 47.2448 86.5141 46.8382 86.5867C45.2009 86.9171 43.5164 87.5306 41.7739 87.8827C40.231 88.2058 38.6082 88.38 37.0218 88.1658C34.9961 87.9154 32.9703 87.0695 31.5836 85.5811C31.1915 85.0729 31.2459 85.1528 31.7651 85.3379C31.8994 85.3779 32.0482 85.4396 32.2261 85.4976C32.4113 85.5448 32.5964 85.6283 32.8033 85.7082C33.0066 85.7953 33.2208 85.8861 33.4568 85.9732C33.6891 86.0603 33.9215 86.1765 34.1756 86.2672C35.0541 86.623 35.9508 86.9134 36.8875 87.0296C37.8168 87.1567 38.768 87.1458 39.7155 87.0369C40.6666 86.9461 41.625 86.7573 42.5871 86.5214C43.5491 86.2854 44.5184 85.9986 45.524 85.7481C46.1303 85.6029 46.7547 85.4541 47.4372 85.3924C47.6042 85.3706 47.7893 85.3778 47.9636 85.3706C48.1451 85.3778 48.3302 85.3924 48.5154 85.4214C48.8929 85.494 49.2887 85.6356 49.6154 85.897C49.7824 86.0168 49.9131 86.1765 50.0438 86.3253C50.149 86.4923 50.2688 86.6339 50.3487 86.8299C50.5447 87.1929 50.5919 87.6867 50.5012 88.1005C50.4141 88.5325 50.1962 88.8701 49.9748 89.1605C49.8586 89.3021 49.7424 89.4437 49.6154 89.5598C49.492 89.6869 49.3613 89.7994 49.2306 89.9047C48.0725 90.834 46.8055 91.4294 45.5458 92.0066C44.2788 92.5693 42.9937 93.063 41.7267 93.5676C40.9462 93.8798 40.1693 94.1883 39.4287 94.5405C39.0657 94.7184 38.6954 94.8962 38.4195 95.1249C38.3505 95.183 38.2815 95.2339 38.2125 95.2992L37.9983 95.5134C37.8568 95.6513 37.7115 95.8074 37.5663 95.9563C36.6951 96.882 35.7802 97.8186 34.7782 98.6462C33.7726 99.4703 32.709 100.233 31.5618 100.843C29.7938 101.808 27.8879 102.498 25.8912 102.777C25.4556 102.872 25.0199 102.883 24.5734 102.919C24.1595 102.934 23.8147 102.973 23.5279 102.937C23.2411 102.908 23.0087 102.879 22.8236 102.828C22.6348 102.777 22.4896 102.719 22.3698 102.65C22.25 102.574 22.1629 102.487 22.083 102.396C22.0104 102.316 21.916 102.24 21.8761 102.175C21.8107 102.062 21.945 101.975 22.2427 101.852C22.5404 101.721 22.9869 101.67 23.5496 101.663C25.2269 101.547 26.9113 101.278 28.5268 100.723C30.1459 100.175 31.6816 99.3432 33.0756 98.2905C34.1175 97.5136 35.0759 96.617 36.0089 95.6441L36.7205 94.8999C36.8366 94.7764 36.9673 94.6458 37.1017 94.5151L37.2977 94.319C37.3703 94.2501 37.4647 94.1775 37.5482 94.1085C37.8931 93.8108 38.2416 93.6438 38.5683 93.4732C38.8987 93.3026 39.2218 93.1574 39.5449 93.0158L39.563 93.0448H39.5558Z" fill="#231F20"/>
<path d="M15.4647 111.08C15.6934 110.558 15.9258 110.039 16.1726 109.519C16.2634 109.331 16.3142 109.127 16.4231 108.942C16.7789 108.292 17.1819 107.661 17.5993 107.051C17.7772 106.775 17.9551 106.499 18.1185 106.22C18.231 106.045 18.3363 105.864 18.4525 105.69C18.5832 105.526 18.6921 105.345 18.928 105.265C19.0769 105.218 19.1386 105.29 19.2294 105.497C19.2729 105.599 19.3383 105.744 19.3637 105.875C19.3855 106.002 19.3673 106.118 19.3092 106.212C18.8917 106.891 18.4997 107.57 18.035 108.242C17.7518 108.641 17.6102 109.138 17.4142 109.596C17.1927 110.1 16.9677 110.608 16.7644 111.128C16.6337 111.447 16.5102 111.767 16.3941 112.093C16.2198 112.587 16.031 113.077 15.8749 113.578C15.7551 113.966 15.7225 114.373 15.6136 114.761C15.5881 114.845 15.5736 114.932 15.5301 115.012C15.3812 115.313 15.265 115.386 15.0254 115.379C14.971 115.379 14.9165 115.379 14.8657 115.375C14.6987 115.353 14.5971 115.175 14.5644 114.914C14.5063 114.522 14.5208 114.141 14.5971 113.778C14.6588 113.407 14.7495 113.041 14.8439 112.674C15.0109 112.137 15.2287 111.607 15.4284 111.07L15.4574 111.08H15.4647Z" fill="#231F20"/>
<path d="M13.8347 113.81C15.0255 114.848 16.2925 115.807 17.6393 116.623C18.1331 116.921 18.6522 117.157 19.1604 117.411C19.7195 117.687 20.2931 117.938 20.8631 118.108C21.1462 118.192 21.4294 118.253 21.6835 118.275C21.963 118.282 22.0429 118.286 22.1518 118.195C22.2099 118.144 22.2498 118.079 22.2716 117.996C22.3007 117.894 22.3079 117.752 22.2934 117.604C22.268 117.302 22.1591 116.957 22.0284 116.627C21.7017 115.825 21.1862 115.062 20.6634 114.329C20.3294 113.854 19.9664 113.396 19.6142 112.921L19.3528 112.561L19.1278 112.173C18.9789 111.911 18.8373 111.643 18.7066 111.36C18.5505 110.989 18.7575 110.953 19.1241 111.073C19.3093 111.131 19.5489 111.225 19.8103 111.356C19.941 111.421 20.0789 111.498 20.2132 111.588C20.2786 111.635 20.3476 111.683 20.4165 111.73C20.4746 111.788 20.5327 111.85 20.5835 111.915C21.3314 112.83 22.101 113.766 22.7073 114.866C23.0122 115.418 23.3026 115.988 23.4987 116.663C23.5931 117.005 23.6693 117.371 23.6548 117.8C23.6511 117.908 23.6439 118.014 23.6185 118.134L23.5822 118.308C23.564 118.373 23.5422 118.435 23.5168 118.497C23.4297 118.751 23.2627 118.965 23.0884 119.157C23.0195 119.212 22.9505 119.273 22.8779 119.321C22.7436 119.404 22.5984 119.469 22.4459 119.513C22.3007 119.557 22.1155 119.582 22.003 119.586C21.7489 119.6 21.5201 119.578 21.306 119.546C20.8739 119.484 20.4855 119.371 20.1043 119.248C19.3456 118.998 18.634 118.682 17.9552 118.319C16.474 117.513 15.1017 116.558 13.8093 115.516C13.0143 114.874 12.2556 114.191 11.5222 113.48C10.4113 112.401 9.39486 111.229 8.4546 110.013C7.72491 109.069 7.00973 108.129 6.4071 107.09C6.27278 106.862 6.15298 106.633 6.04044 106.393C5.84077 105.943 5.74275 105.628 5.72097 105.392C5.70644 105.152 5.76453 104.992 5.85892 104.847C5.90248 104.782 5.94242 104.702 5.98961 104.658C6.06948 104.582 6.18565 104.622 6.33086 104.749C6.47607 104.876 6.66848 105.087 6.83548 105.381C7.09323 105.816 7.39455 106.23 7.65956 106.666C7.93184 107.098 8.21863 107.526 8.51632 107.951C9.11169 108.8 9.76152 109.635 10.4585 110.438C11.4932 111.628 12.6186 112.757 13.8384 113.785L13.8202 113.81H13.8347Z" fill="#231F20"/>
<path d="M21.9562 125.398C21.7747 126.091 21.5968 126.792 21.3754 127.481C21.2991 127.735 21.2519 127.993 21.1612 128.244C20.849 129.126 20.4787 129.983 20.1011 130.825C19.9378 131.202 19.7962 131.587 19.651 131.965C19.4513 132.444 19.2988 132.952 18.8741 133.33C18.7325 133.442 18.6526 133.38 18.5328 133.177C18.4021 132.967 18.2279 132.618 18.2969 132.331C18.3731 132.084 18.4493 131.834 18.5219 131.587C18.6018 131.344 18.7144 131.112 18.8124 130.872C19.0084 130.396 19.2262 129.928 19.4549 129.456C19.7381 128.894 19.8506 128.251 20.0285 127.641C20.21 126.966 20.4097 126.291 20.5767 125.601C20.682 125.18 20.7836 124.751 20.878 124.323C21.0196 123.673 21.183 123.02 21.2991 122.366C21.4008 121.858 21.4444 121.346 21.5387 120.838C21.5569 120.726 21.5823 120.617 21.6186 120.508C21.6549 120.406 21.6912 120.326 21.7239 120.261C21.7638 120.196 21.8183 120.148 21.8655 120.112C21.9599 120.036 22.0579 120.007 22.1741 119.992C22.2285 119.985 22.2793 119.974 22.3265 119.974C22.4754 119.974 22.5806 120.185 22.6641 120.519C22.6714 120.751 22.7041 120.994 22.6896 121.223C22.6787 121.455 22.6569 121.684 22.6351 121.916C22.6024 122.381 22.5226 122.846 22.4245 123.307C22.2902 123.996 22.1341 124.693 21.9816 125.398H21.949H21.9562Z" fill="#231F20"/>
<path d="M92.9504 44.4623C94.7148 42.5383 96.3157 40.3929 97.8332 38.1784L98.3705 37.3834L98.5084 37.1801L98.5811 37.0785L98.6936 36.9224C98.7807 36.8135 98.8606 36.6973 98.9731 36.6247L99.0639 36.5848C99.0748 36.5376 99.122 36.5557 99.151 36.5376C99.2164 36.5158 99.2817 36.5049 99.3434 36.4795L99.9678 36.4033C100.131 36.3815 100.298 36.367 100.465 36.3379C103.758 35.8297 106.949 34.305 109.261 31.8401C110.311 30.7692 111.109 29.4623 111.734 28.1191C112.162 27.2624 112.46 26.344 112.743 25.4292L112.924 24.7322L113.139 24.0388L113.298 23.3309C113.356 23.0949 113.433 22.8626 113.498 22.6266C113.683 22.0385 113.705 22.1184 113.778 22.6521C113.854 23.1821 114.046 24.1985 113.799 25.3457C113.741 25.5961 113.705 25.8539 113.629 26.1007L113.4 26.8449L113.168 27.5891C113.073 27.8324 112.968 28.0719 112.87 28.3115C112.772 28.5548 112.663 28.7907 112.554 29.0303C112.445 29.2663 112.3 29.4877 112.173 29.7164L111.777 30.3953C111.647 30.6204 111.476 30.8273 111.327 31.0415C110.111 32.7549 108.517 34.1997 106.702 35.2525C105.62 35.8515 104.495 36.425 103.29 36.8135C102.996 36.9296 102.691 37.0095 102.386 37.0966C102.081 37.1801 101.779 37.2818 101.467 37.3362C101.159 37.4016 100.846 37.4705 100.538 37.5286L99.7101 37.6412C99.7101 37.6412 99.6883 37.6412 99.681 37.6412C99.652 37.6412 99.6302 37.6593 99.6121 37.6811L99.5504 37.761L99.2672 38.1712L98.6972 39.0134C98.316 39.5761 97.9312 40.1424 97.5355 40.6978C96.7405 41.8123 95.9309 42.9195 95.027 43.9577C94.4715 44.6003 93.8943 45.2247 93.2771 45.8127C92.6564 46.4008 91.9993 46.9599 91.2478 47.4209C90.6778 47.7585 90.0462 48.0671 89.3165 48.1288C88.5831 48.1833 87.8062 47.9292 87.3125 47.2902C87.2581 47.2031 87.1964 47.1232 87.1564 47.0289L87.0548 46.7457C87.0185 46.5533 86.9931 46.3573 87.0076 46.1758C87.0257 45.8055 87.1165 45.4679 87.2327 45.1521C87.465 44.5204 87.7772 43.9541 88.1003 43.4023C89.1132 41.7034 90.2059 40.1242 91.059 38.4434C91.2478 38.0768 91.4003 37.7065 91.5818 37.3399C92.1989 35.9604 92.2244 35.5248 92.5402 35.2053C92.5983 35.1327 92.6527 35.0274 92.6999 34.9802C92.7798 34.9004 92.8524 35.0165 92.9577 35.3323C93.0557 35.6445 93.0557 36.1564 92.9214 36.7699C92.8197 37.2201 92.689 37.6702 92.5257 38.0986C92.3659 38.5342 92.1518 38.9371 91.9448 39.3437C91.5164 40.1496 91.0372 40.9229 90.5508 41.6852C90.0643 42.4439 89.567 43.1954 89.1132 43.9468C88.8917 44.3207 88.6812 44.6983 88.5033 45.0722C88.329 45.4425 88.1947 45.82 88.1584 46.1249C87.9769 46.8328 88.9752 47.2793 90.0062 46.7893C90.529 46.5715 91.0372 46.1939 91.5237 45.791C92.0102 45.3808 92.4712 44.9197 92.9177 44.4405L92.9432 44.4587L92.9504 44.4623Z" fill="#231F20"/>
<path d="M115.716 12.4874C112.895 13.9758 110.082 15.4678 107.297 17.0143C106.281 17.577 105.286 18.1759 104.277 18.7495C100.73 20.7788 97.1941 22.848 93.9014 25.2439C92.4565 26.3149 91.0371 27.4729 89.908 28.8015C89.7374 29.0194 89.5486 29.2299 89.3889 29.4514C89.2437 29.6837 89.0876 29.8979 88.946 30.1411C88.6665 30.6384 88.4087 31.143 88.1655 31.6549C87.6826 32.6822 87.2797 33.735 86.8658 34.7986C86.5754 35.4521 86.4556 35.3432 86.3431 34.6752C86.285 34.3412 86.2741 33.8766 86.3176 33.3175C86.3757 32.7657 86.5427 32.1377 86.815 31.4988C87.0582 30.9325 87.3269 30.3807 87.6173 29.8398L87.8387 29.4368C87.9186 29.3025 88.0166 29.1609 88.1038 29.023L88.376 28.6091L88.6774 28.2352C89.4869 27.2478 90.4018 26.4238 91.3456 25.6614C93.2298 24.1258 95.2446 22.8117 97.2994 21.5702C99.7607 20.0891 102.291 18.5135 104.836 17.0615C107.635 15.4678 110.463 13.9359 113.298 12.4148C115.044 11.4855 116.791 10.5525 118.537 9.62318C121.18 8.21103 123.841 6.8134 126.436 5.36858C128.455 4.24685 130.39 3.06703 132.339 1.89084C132.768 1.62947 133.185 1.37172 133.617 1.11035C134.419 0.627533 134.96 0.329856 135.367 0.162867C135.781 0.010398 136.06 -0.0150135 136.307 0.00676769C136.42 0.0140281 136.554 0.00313704 136.627 0.0176579C136.75 0.0466995 136.667 0.191908 136.438 0.471433C136.209 0.754589 135.806 1.13213 135.225 1.50604C131.82 3.80759 128.041 5.89133 124.244 7.96417C121.412 9.47797 118.569 11.0027 115.731 12.5201L115.712 12.4947L115.716 12.4874Z" fill="#231F20"/>
<path d="M125.435 17.7006C125.798 19.0184 126.066 20.358 126.248 21.712C126.31 22.2057 126.404 22.6958 126.429 23.1968C126.48 24.0789 126.491 24.9647 126.371 25.8722C126.31 26.326 126.226 26.7761 126.019 27.2662L125.932 27.4477C125.892 27.5095 125.845 27.5748 125.794 27.651C125.747 27.7273 125.678 27.7708 125.616 27.8289L125.525 27.9124L125.417 27.9741C125.279 28.0576 125.09 28.1121 124.905 28.123C124.716 28.123 124.527 28.0867 124.386 28.0141C123.87 27.7454 123.641 27.3715 123.402 27.0303C123.177 26.6818 122.991 26.326 122.843 25.9666C122.643 25.5056 122.458 25.0445 122.309 24.569L122.204 24.2132L122.142 23.8466C122.102 23.5997 122.08 23.3529 122.073 23.1024C122.073 22.7866 122.186 22.8011 122.436 22.9971C122.559 23.0951 122.741 23.2294 122.908 23.4037C122.995 23.4908 123.082 23.5852 123.169 23.6868C123.213 23.7377 123.249 23.7921 123.296 23.8466C123.325 23.9047 123.355 23.9664 123.38 24.0281C123.561 24.471 123.75 24.9066 123.954 25.3241C124.055 25.531 124.164 25.7307 124.269 25.9267C124.364 26.1263 124.469 26.3115 124.574 26.4748C124.676 26.6346 124.792 26.7798 124.857 26.8342C124.872 26.8451 124.886 26.8596 124.886 26.8596C124.886 26.8596 124.886 26.8778 124.879 26.8887L124.872 26.9068C124.861 26.9323 124.854 26.9613 124.85 26.994C124.832 27.0593 124.865 27.0593 124.807 26.9214C124.792 26.8959 124.818 26.9105 124.821 26.9068L124.847 26.8996C124.847 26.8996 124.847 26.8996 124.872 26.8814C124.89 26.8596 124.912 26.8197 124.934 26.787C124.981 26.729 125.014 26.6237 125.057 26.5402L125.152 26.2353C125.286 25.7198 125.315 25.1317 125.3 24.5472C125.289 23.9591 125.224 23.3638 125.162 22.7757C125.021 21.4761 124.785 20.1764 124.454 18.8986C124.255 18.1109 124.022 17.3304 123.747 16.5644C123.336 15.4027 122.868 14.252 122.273 13.1847C121.815 12.3497 121.249 11.6055 120.679 10.8722C120.563 10.7052 120.432 10.5528 120.309 10.3858C120.196 10.2297 120.109 10.099 120.04 9.98283C119.975 9.86667 119.949 9.7505 119.92 9.65611C119.869 9.46734 119.877 9.32939 119.92 9.18782C119.938 9.12247 119.949 9.04987 119.971 8.99905C120.051 8.83569 120.378 8.97726 120.9 9.31487C121.216 9.62344 121.543 9.93564 121.841 10.2805C122.131 10.629 122.389 11.0029 122.65 11.3841C123.158 12.1501 123.601 12.9705 124.001 13.8091C124.592 15.0579 125.064 16.3647 125.449 17.6898L125.42 17.7006H125.435Z" fill="#231F20"/>
<path d="M132.779 24.4382C133.796 23.9808 134.798 23.4689 135.792 22.9389C136.155 22.7429 136.496 22.5142 136.856 22.3181C138.127 21.6175 139.393 20.9024 140.646 20.1545C141.205 19.8315 141.753 19.4793 142.29 19.1272C142.995 18.6952 143.677 18.2233 144.487 17.9619C144.734 17.8711 144.73 17.9329 144.61 18.147C144.53 18.2814 144.443 18.4302 144.356 18.5863C144.302 18.6734 144.247 18.7751 144.175 18.8622C144.098 18.9457 144.019 19.0256 143.924 19.1018C143.594 19.3668 143.271 19.6427 142.933 19.8932C142.588 20.1328 142.236 20.3687 141.884 20.5974C141.183 21.0657 140.443 21.4832 139.684 21.8789C138.78 22.3544 137.905 22.9571 136.997 23.4726C136.003 24.0461 134.983 24.5834 133.952 25.0989C133.636 25.2622 133.309 25.4038 132.99 25.5563C132.67 25.7088 132.347 25.8612 132.02 25.9992C131.53 26.217 131.033 26.4312 130.528 26.6163C130.278 26.7107 130.027 26.816 129.773 26.9067C129.519 26.9975 129.265 27.0846 129.011 27.1717C128.622 27.3242 128.227 27.4476 127.835 27.5856C127.446 27.7344 127.043 27.8433 126.637 27.9486C126.459 27.9922 126.284 28.0575 126.099 28.0902C125.406 28.1773 125.174 28.1011 125.01 27.8252C124.974 27.7598 124.927 27.6981 124.905 27.6364C124.832 27.4186 125.086 27.2008 125.54 27.0628C126.887 26.6853 128.281 26.2678 129.679 25.7342C130.194 25.5236 130.717 25.3385 131.229 25.1061L132.002 24.7722L132.765 24.4091L132.779 24.4346V24.4382Z" fill="#231F20"/>
<path d="M121.641 21.6897C121.103 21.962 120.581 22.2596 120.061 22.5755C119.876 22.6953 119.706 22.8405 119.52 22.9566C119.194 23.1672 118.86 23.3741 118.537 23.5956C118.203 23.8061 117.88 24.0276 117.556 24.2563C117.277 24.4632 117.008 24.6919 116.758 24.9278C116.42 25.2183 116.104 25.5305 115.672 25.7229C115.542 25.7846 115.469 25.6829 115.451 25.4905C115.44 25.3054 115.433 24.9787 115.585 24.7572C115.73 24.5757 115.886 24.3978 116.043 24.2236C116.202 24.053 116.384 23.9078 116.562 23.7553C116.918 23.454 117.299 23.1781 117.702 22.9312C118.188 22.6408 118.624 22.2524 119.103 21.9366C119.626 21.5844 120.174 21.265 120.722 20.9491C121.063 20.764 121.405 20.5752 121.749 20.401C122.269 20.1251 122.813 19.8891 123.329 19.6241C123.735 19.4245 124.109 19.1703 124.512 18.9562C124.599 18.909 124.683 18.8509 124.774 18.8109C125.126 18.6875 125.267 18.7275 125.434 18.9634C125.471 19.0179 125.514 19.0687 125.547 19.1268C125.648 19.3155 125.572 19.537 125.358 19.7112C124.719 20.2013 123.986 20.5135 123.267 20.8838C122.733 21.1561 122.185 21.4138 121.662 21.7187L121.648 21.697L121.641 21.6897Z" fill="#231F20"/>
<path d="M118.61 21.8211C118.457 20.3436 118.192 18.8588 117.8 17.4104C117.658 16.8804 117.466 16.3685 117.295 15.8494C116.998 14.9346 116.653 14.0343 116.257 13.1667C115.851 12.3099 115.386 11.4568 114.754 10.7998C114.482 10.4985 114.155 10.2734 113.821 10.1245C113.48 9.97933 113.157 9.98296 112.816 10.1064C112.387 10.2734 111.988 10.6037 111.636 10.9849C111.458 11.1737 111.295 11.3842 111.135 11.5948C110.982 11.8126 110.794 12.0122 110.634 12.2373C110.427 12.5132 110.343 12.4333 110.322 12.0885C110.311 11.9142 110.314 11.6746 110.358 11.3879C110.409 11.1047 110.539 10.8034 110.739 10.5057C111.113 10.0011 111.552 9.47836 112.231 9.15891C112.562 8.99555 112.961 8.89027 113.375 8.90116C113.582 8.90842 113.796 8.93747 113.97 8.99918C114.159 9.05 114.344 9.11171 114.496 9.20247C115.146 9.53645 115.626 10.0047 116.025 10.4912C116.413 10.9849 116.755 11.5004 117.023 12.0377C117.695 13.3119 118.312 14.6478 118.755 16.02C119.238 17.5265 119.59 19.0694 119.826 20.6303C119.971 21.5924 120.065 22.5616 120.102 23.5345C120.134 24.2714 120.116 25.0193 120.029 25.7635C119.942 26.5076 119.808 27.2591 119.499 27.9888C119.387 28.2719 119.227 28.5478 119.045 28.8128C118.936 28.9363 118.846 29.0669 118.693 29.2049C118.544 29.3428 118.337 29.4227 118.156 29.4844C117.452 29.6841 116.725 29.5534 116.148 29.194C115.901 29.0343 115.665 28.8636 115.473 28.6458C114.776 27.829 114.845 27.4334 115.03 27.1284C115.07 27.0594 115.092 26.9868 115.125 26.9469C115.193 26.8235 115.651 27.0377 116.036 27.4551C116.627 28.0759 117.459 28.2356 117.829 28.094C117.829 28.094 117.833 28.0795 117.836 28.0759C117.844 28.0541 117.909 27.9779 117.96 27.9271C118.047 27.7782 118.149 27.6366 118.221 27.4479C118.377 27.0885 118.497 26.6529 118.566 26.1955C118.791 24.8305 118.74 23.3167 118.573 21.8356L118.606 21.8283L118.61 21.8211Z" fill="#231F20"/>
<path d="M119.656 31.2514C119.496 31.491 119.3 31.6943 119.067 31.8649C118.832 32.0283 118.552 32.1699 118.214 32.2062C117.975 32.2352 117.71 32.2279 117.485 32.1227C117.074 31.9375 116.838 31.56 116.744 31.2369C116.646 30.9066 116.642 30.5871 116.69 30.2785C116.74 30.0063 116.828 29.7376 116.969 29.5017C117.056 29.3492 117.169 29.1967 117.329 29.0806C117.499 28.9753 117.728 28.9499 117.913 29.008C118.029 29.0515 117.986 29.1314 117.92 29.2548C117.888 29.3165 117.855 29.3964 117.844 29.4799C117.83 29.5597 117.837 29.6469 117.837 29.6941C117.782 29.8139 117.706 29.9954 117.688 30.1769C117.681 30.3475 117.619 30.5508 117.626 30.7541C117.626 30.8775 117.677 30.9792 117.739 31.0409C117.8 31.099 117.862 31.1207 117.928 31.1389C118.055 31.1897 118.331 31.0917 118.534 30.8594C118.657 30.7214 118.752 30.5617 118.802 30.3729C118.882 30.0898 118.861 29.7921 118.715 29.6251C118.632 29.5162 118.418 29.5525 118.316 29.6142C118.294 29.6287 118.283 29.6541 118.265 29.6505C118.233 29.6505 118.207 29.6324 118.156 29.6215C118.102 29.6033 118.022 29.5924 117.913 29.5779C117.862 29.5706 117.811 29.5743 117.761 29.5706C117.677 29.5634 117.612 29.5343 117.565 29.4472C117.514 29.3637 117.503 29.2221 117.575 29.066C117.681 28.8337 117.88 28.6522 118.105 28.5723C118.327 28.4816 118.566 28.4525 118.821 28.4888C119.067 28.5215 119.354 28.6522 119.561 28.8591C119.746 29.037 119.892 29.2621 119.968 29.4908C120.066 29.8356 120.059 30.1587 120 30.4491C119.942 30.7396 119.841 31.0082 119.685 31.2659L119.659 31.2514H119.656Z" fill="#231F20"/>
<path d="M124.948 67.4017C123.964 67.8156 122.991 68.2621 122.026 68.7195C121.674 68.8901 121.336 69.0861 120.987 69.2604C119.757 69.8666 118.504 70.4692 117.361 71.188L117.005 71.4421C116.9 71.5365 116.827 71.5873 116.736 71.6999C116.566 71.9249 116.417 72.1718 116.286 72.4295C116.126 72.7599 115.981 73.1011 115.85 73.446L115.665 73.9651C115.64 74.0522 115.6 74.1357 115.556 74.2229C115.513 74.3064 115.487 74.3935 115.433 74.4806C115.281 74.6912 115.215 74.6694 115.019 74.4298C114.918 74.31 114.827 74.1357 114.743 73.9179C114.678 73.7037 114.674 73.4605 114.74 73.2209C114.863 72.7962 114.99 72.3715 115.219 71.9903C115.328 71.7979 115.444 71.6091 115.575 71.4276C115.64 71.3369 115.709 71.2461 115.778 71.1553C115.858 71.0646 115.905 70.9847 116.025 70.8831C116.126 70.7923 116.25 70.6762 116.344 70.6144L116.62 70.4329C116.805 70.3059 116.983 70.2151 117.168 70.1098C117.528 69.8993 117.891 69.7142 118.257 69.5326C119.136 69.1043 119.993 68.5706 120.871 68.1132C121.841 67.6123 122.821 67.1403 123.808 66.6757C124.418 66.3925 125.032 66.1203 125.645 65.848C126.113 65.6447 126.585 65.4487 127.068 65.2672C127.304 65.1728 127.562 65.0965 127.805 65.0094C128.067 64.9368 128.339 64.8569 128.6 64.8243C129.421 64.7008 130.259 64.6936 131.072 64.8715C131.25 64.9114 131.428 64.9441 131.599 65.013C131.915 65.1437 132.107 65.2563 132.22 65.3797C132.329 65.5104 132.368 65.6302 132.372 65.7717C132.372 65.8371 132.387 65.9024 132.379 65.9569C132.365 66.0476 132.281 66.0985 132.147 66.1239C132.009 66.1457 131.817 66.1565 131.599 66.113C130.945 66.0186 130.328 65.8915 129.704 65.9024C129.395 65.9024 129.087 65.9278 128.782 65.9787L128.553 66.0222L128.346 66.0839C128.219 66.1166 128.056 66.182 127.896 66.24C126.948 66.5922 125.939 67.0024 124.963 67.4416L124.948 67.4162V67.4017Z" fill="#231F20"/>
<path d="M152.532 84.4344C154.166 86.3403 156.065 88.0029 158.232 89.2735C158.624 89.5095 159.016 89.7454 159.434 89.9342L160.701 90.5513C163.67 92.0397 166.625 93.5644 169.551 95.1435C170.855 95.8405 172.165 96.5375 173.457 97.2309C174.285 97.6811 175.12 98.1276 175.926 98.6285C176.739 99.115 177.542 99.6377 178.195 100.36C178.584 100.832 178.493 100.81 177.948 100.716C177.672 100.676 177.317 100.582 176.87 100.494C176.438 100.382 176.006 100.16 175.541 99.9027C172.278 97.9969 168.912 96.1782 165.54 94.3122C163.518 93.1941 161.332 92.2031 159.208 91.154C158.918 91.0087 158.617 90.8635 158.326 90.7002L157.462 90.1956L156.602 89.691L155.789 89.1138C155.52 88.9214 155.244 88.7326 154.979 88.533L154.217 87.8904C153.966 87.6726 153.701 87.4693 153.462 87.2406L152.754 86.5436C152.155 85.9882 151.646 85.3529 151.098 84.7503C150.841 84.4381 150.59 84.1186 150.336 83.8028C150.078 83.4906 149.831 83.1711 149.595 82.8408C148.125 80.8841 146.851 78.804 145.439 76.8727C144.335 75.3771 143.166 73.9831 141.841 72.7525C141.565 72.462 141.242 72.2442 140.952 71.972C140.407 71.4674 140.029 71.1697 139.801 70.9011C139.685 70.7704 139.605 70.6506 139.55 70.5344C139.507 70.4037 139.485 70.2803 139.467 70.1678C139.452 70.0625 139.409 69.9536 139.401 69.8882C139.351 69.7031 140.091 69.7321 141.042 70.3965C142.415 71.4057 143.707 72.6181 144.836 73.9722C145.969 75.3226 146.996 76.7675 147.987 78.2123C149.465 80.3505 150.873 82.5032 152.547 84.4018L152.525 84.4272L152.532 84.4344Z" fill="#231F20"/>
<path d="M131.97 65.8548C133.476 64.9364 134.986 64.0216 136.511 63.1213L138.809 61.7854C139.582 61.3461 140.352 60.9105 141.183 60.5075C141.343 60.4349 141.477 60.3587 141.659 60.2897C141.844 60.2244 142.036 60.1445 142.218 60.1082C142.581 60.0247 142.969 59.9848 143.369 60.0138C143.768 60.0429 144.182 60.1518 144.549 60.3551C144.915 60.5547 145.224 60.8342 145.463 61.1392C145.569 61.2735 145.663 61.4151 145.75 61.553C145.827 61.6837 145.906 61.8144 145.983 61.9632C146.128 62.25 146.288 62.6348 146.266 63.0741C146.248 63.5061 146.088 63.8437 145.939 64.1268C145.783 64.41 145.616 64.6641 145.449 64.9037C145.373 65.0162 145.231 65.1869 145.122 65.2994C145.006 65.4119 144.89 65.5317 144.774 65.6225C144.538 65.8258 144.302 66 144.062 66.1706C143.583 66.5119 143.097 66.8168 142.603 67.1181C140.635 68.2979 138.628 69.3543 136.616 70.4071C134.83 71.3364 133.044 72.2875 131.294 73.2386C129.036 74.4548 126.844 75.787 124.513 76.8543C123.783 77.1847 123.827 77.0576 124.299 76.5312C124.542 76.2771 124.854 75.8596 125.315 75.493C125.769 75.1082 126.321 74.698 126.956 74.3096C131.523 71.6994 136.217 69.3761 140.828 66.8822C141.51 66.5046 142.193 66.1053 142.85 65.6733C143.176 65.4591 143.496 65.234 143.797 64.9981C143.942 64.8819 144.091 64.7585 144.215 64.6387C144.273 64.577 144.349 64.5153 144.389 64.4572C144.436 64.3955 144.48 64.3519 144.538 64.2612C144.752 63.9417 144.966 63.6113 145.068 63.3246C145.166 63.0341 145.151 62.8889 145.006 62.5767C144.937 62.4352 144.832 62.2609 144.737 62.1121C144.643 61.9705 144.538 61.8398 144.425 61.7309C144.197 61.5095 143.935 61.3606 143.641 61.288C143.318 61.2082 142.955 61.219 142.585 61.3025C142.49 61.3207 142.399 61.3461 142.32 61.3824C142.236 61.4187 142.156 61.4369 142.066 61.4768L141.492 61.7418C140.719 62.1339 139.942 62.555 139.176 62.9906C137.637 63.8618 136.115 64.773 134.598 65.6914C132.728 66.8204 130.866 67.964 129.011 69.1184C126.219 70.8572 123.438 72.5888 120.668 74.3676C120.636 74.3894 120.603 74.4039 120.57 74.4257C120.367 74.5383 120.127 74.5492 119.902 74.5165C119.801 74.502 119.721 74.4838 119.645 74.4693C119.568 74.4548 119.543 74.4511 119.496 74.4475C119.311 74.4221 119.162 74.5709 119.1 74.7307C118.988 74.9557 118.958 75.3115 118.657 75.6927C118.581 75.7798 118.483 75.8597 118.396 75.9177L118.2 76.0484L117.804 76.3134C116.751 77.0141 115.698 77.7074 114.635 78.3899C114.166 78.6912 113.713 78.9925 113.237 79.2902C111.469 80.3865 110.877 80.6624 110.329 80.637C110.206 80.6297 110.053 80.6443 109.966 80.6152C109.661 80.5208 110.271 79.8747 111.534 79.0216C114.297 77.1919 117.165 75.2897 120.084 73.3584C121.021 72.7558 121.972 72.1423 122.923 71.5252C125.914 69.6121 128.935 67.7171 131.962 65.8367L131.984 65.8621L131.97 65.8548Z" fill="#231F20"/>
<path d="M110.141 80.2377L110.199 80.205C110.232 80.1941 110.268 80.1869 110.301 80.1796L110.351 80.1724H110.377L110.391 80.1687C110.391 80.1615 110.399 80.2413 110.395 80.2087H110.402L110.638 80.2268C110.714 80.2268 110.794 80.2559 110.874 80.2849C110.954 80.3067 111.03 80.3611 111.11 80.4047C111.186 80.4483 111.266 80.5027 111.342 80.5572C111.419 80.6116 111.495 80.6624 111.564 80.735L111.774 80.9347C111.847 80.9892 111.923 81.0872 111.956 81.1235C112.123 81.3231 112.29 81.5373 112.41 81.7878C112.475 81.9112 112.526 82.0419 112.569 82.1726L112.606 82.2706C112.606 82.2706 112.606 82.2851 112.606 82.2924V82.3287C112.617 82.3614 112.606 82.4158 112.606 82.463L112.591 82.5356C112.591 82.5356 112.635 82.5247 112.653 82.5175C112.697 82.4957 112.733 82.4739 112.773 82.463L112.893 82.4267C112.893 82.4267 113.002 82.3795 113.067 82.3505L113.292 82.2452L114.192 81.8168C114.791 81.5264 115.39 81.2324 115.986 80.9311C116.516 80.6624 117.024 80.3575 117.536 80.0671C117.863 79.8783 118.186 79.6787 118.516 79.4935C118.864 79.3374 119.228 79.2104 119.623 79.145C119.914 79.1813 119.87 79.1704 119.79 79.4427C119.707 79.7041 119.536 80.1506 119.217 80.4628C118.904 80.6915 118.57 80.8803 118.244 81.0835C117.913 81.2832 117.587 81.4829 117.242 81.6607C116.559 82.0201 115.862 82.3614 115.143 82.6736C114.715 82.8587 114.294 83.0838 113.873 83.3161L113.063 83.7735C112.715 83.9696 112.323 84.1874 112.039 84.1837C111.916 84.1946 111.811 84.1837 111.716 84.1583C111.673 84.1511 111.6 84.1184 111.6 84.0821L111.553 83.9804L111.411 83.6864C111.393 83.6682 111.393 83.6174 111.39 83.5702L111.379 83.4323C111.379 83.3379 111.357 83.2544 111.368 83.1491L111.303 82.7534L111.23 82.5901C111.175 82.4848 111.117 82.3759 111.052 82.2634L110.943 82.1036C110.925 82.0782 110.903 82.0528 110.881 82.0238C110.867 82.0056 110.86 81.9984 110.849 81.9802C110.805 81.9258 110.758 81.8749 110.7 81.8241C110.664 81.7914 110.627 81.7588 110.584 81.7297C110.562 81.7152 110.54 81.697 110.518 81.6934C110.497 81.7007 110.482 81.7225 110.468 81.737C110.402 81.806 110.333 81.8822 110.264 81.962L110.21 82.0238L110.112 82.1436L109.908 82.394L109.026 83.5122C108.859 83.7263 108.681 83.9587 108.543 84.1801C108.518 84.2237 108.493 84.2636 108.474 84.3035C108.464 84.3253 108.456 84.3435 108.449 84.3652C108.431 84.3943 108.489 84.3834 108.511 84.387C108.634 84.3834 108.754 84.3507 108.867 84.3181C109.092 84.2527 109.273 84.1728 109.415 84.1148C109.447 84.1002 109.476 84.0857 109.502 84.0712C109.502 84.0676 109.553 84.053 109.589 84.0385L109.709 84.0022C110.006 83.9224 110.21 83.8824 110.362 83.9224C110.518 83.9732 110.627 84.0785 110.718 84.2164C110.762 84.2781 110.812 84.3326 110.838 84.387C110.885 84.4814 110.856 84.5794 110.769 84.7174C110.685 84.8553 110.54 84.9969 110.33 85.0659L109.858 85.2365C109.807 85.2583 109.625 85.2982 109.484 85.3381L109.03 85.4507C108.725 85.5233 108.424 85.5814 108.126 85.6249C107.854 85.6467 107.596 85.6467 107.396 85.6104C107.189 85.5777 107.059 85.4906 106.979 85.3599L106.946 85.3091V85.3018H106.939C106.866 85.3454 107.037 85.2401 107.019 85.251L107.004 85.2365L106.982 85.2183L106.91 85.1494C106.888 85.1276 106.859 85.1058 106.837 85.0768C106.823 85.0441 106.815 85.0114 106.808 84.9715C106.783 84.8227 106.819 84.6048 106.979 84.3435C107.128 84.0821 107.345 83.8171 107.469 83.5376C107.596 83.3306 107.727 83.1128 107.872 82.8986C107.908 82.8442 107.944 82.7934 107.984 82.7389L108.05 82.6482L108.166 82.4884L108.645 81.8568L109.132 81.2288L109.593 80.6298C109.669 80.5245 109.749 80.4228 109.839 80.3502C109.93 80.2813 110.025 80.245 110.108 80.1941L110.119 80.2304L110.141 80.2377Z" fill="#231F20"/>
<path d="M150.593 95.9528C150.847 96.403 151.097 96.8531 151.362 97.296C151.457 97.4594 151.576 97.6046 151.671 97.7643C152.001 98.3379 152.335 98.9151 152.665 99.4886C152.814 99.7428 152.985 99.986 153.156 100.218C153.362 100.531 153.58 100.835 153.729 101.191C153.776 101.304 153.678 101.355 153.519 101.351C153.362 101.344 153.123 101.293 152.956 101.144L152.535 100.737C152.404 100.596 152.292 100.44 152.172 100.287C151.939 99.9787 151.725 99.6593 151.555 99.3071C151.344 98.8897 151.028 98.523 150.77 98.1273C150.484 97.6917 150.208 97.2488 149.932 96.8096L149.42 95.9964C149.162 95.5862 148.923 95.1578 148.647 94.7658C148.436 94.4572 148.167 94.1958 147.95 93.8909C147.902 93.8255 147.848 93.7638 147.804 93.6948C147.663 93.4226 147.674 93.2991 147.812 93.1358C147.844 93.0995 147.87 93.0559 147.906 93.0269C148.019 92.9216 148.2 92.9506 148.393 93.0886C148.966 93.4988 149.358 94.0687 149.765 94.6314C149.914 94.842 150.059 95.0562 150.2 95.274L150.607 95.9383L150.585 95.9528H150.593Z" fill="#231F20"/>
<path d="M155.179 100.847C154.195 102.059 153.157 103.232 151.98 104.288C151.548 104.673 151.138 105.079 150.659 105.424C150.242 105.729 149.802 106.016 149.319 106.259C148.848 106.506 148.31 106.709 147.7 106.753C147.551 106.775 147.388 106.753 147.228 106.738C147.069 106.735 146.909 106.666 146.753 106.615C146.448 106.499 146.183 106.303 145.976 106.06C145.558 105.562 145.442 104.974 145.388 104.448C145.315 103.504 145.417 102.607 145.562 101.74C145.656 101.184 145.744 100.632 145.871 100.088L146.078 99.2819L146.183 98.8826C146.219 98.7483 146.274 98.6212 146.314 98.4869C146.426 98.1566 146.455 98.1965 146.56 98.5051C146.687 98.8136 146.836 99.4017 146.804 100.052C146.796 100.197 146.793 100.338 146.778 100.48L146.727 100.901L146.629 101.736C146.568 102.288 146.528 102.832 146.484 103.355C146.455 103.874 146.462 104.393 146.575 104.807C146.687 105.217 146.876 105.49 147.207 105.598C147.228 105.609 147.25 105.62 147.276 105.628L147.355 105.635C147.41 105.635 147.461 105.657 147.526 105.653C147.653 105.638 147.777 105.638 147.915 105.588C147.983 105.566 148.049 105.555 148.118 105.53L148.325 105.439C148.463 105.388 148.601 105.297 148.739 105.225C149.29 104.902 149.81 104.466 150.314 104.027C150.87 103.54 151.403 103.01 151.915 102.458C152.431 101.91 152.939 101.348 153.422 100.759C154.017 100.041 154.594 99.3001 155.139 98.5377C155.959 97.3797 156.751 96.189 157.415 94.9475C157.923 93.9782 158.334 92.9835 158.704 91.9852C158.787 91.7674 158.867 91.5532 158.951 91.3318C159.125 90.9325 159.223 90.6675 159.368 90.5005C159.532 90.3408 159.673 90.2609 159.822 90.1992C159.891 90.1738 159.956 90.1302 160.007 90.1157C160.094 90.0939 160.145 90.1774 160.207 90.3662C160.239 90.4605 160.265 90.584 160.294 90.7292C160.33 90.878 160.287 91.0232 160.269 91.1975C159.953 93.2522 158.998 95.1834 157.902 96.9877C157.085 98.3308 156.174 99.6196 155.204 100.865L155.175 100.847H155.179Z" fill="#231F20"/>
<path d="M156.079 112.532C157.197 113.058 158.348 113.537 159.513 113.984C159.942 114.144 160.377 114.274 160.806 114.43C162.316 114.986 163.83 115.559 165.358 116.1C166.037 116.343 166.72 116.583 167.395 116.823C168.255 117.138 169.156 117.44 169.9 118.053C170.132 118.242 170.045 118.286 169.776 118.271C169.519 118.235 169.032 118.26 168.542 118.119C167.678 117.839 166.781 117.603 165.888 117.349C164.999 117.077 164.117 116.761 163.234 116.427C162.178 116.028 161.042 115.719 159.949 115.327C158.747 114.899 157.557 114.434 156.384 113.926C155.662 113.614 154.946 113.28 154.239 112.931C153.168 112.401 152.126 111.795 151.124 111.145C150.347 110.633 149.574 110.132 148.869 109.497C148.717 109.355 148.55 109.232 148.412 109.069C148.281 108.923 148.176 108.796 148.096 108.684C148.016 108.571 147.987 108.455 147.958 108.364C147.907 108.176 147.933 108.034 148.009 107.885C148.042 107.82 148.071 107.744 148.111 107.693C148.245 107.526 148.59 107.656 148.982 107.987C149.526 108.513 150.133 108.996 150.768 109.468C151.403 109.94 152.082 110.386 152.794 110.8C153.843 111.421 154.95 111.987 156.086 112.495L156.075 112.525L156.079 112.532Z" fill="#231F20"/>
<path d="M42.7255 40.6938C42.6674 40.1638 42.6129 39.6338 42.573 39.0893C42.5512 38.817 42.5367 38.5447 42.5294 38.2543V38.1273C42.5258 38.0692 42.5294 38.0038 42.5294 37.9457C42.5367 37.8223 42.5294 37.6989 42.5585 37.5827C42.5694 37.4629 42.6021 37.3504 42.642 37.2415C42.6892 37.1398 42.7836 37.06 42.838 36.962L43.4298 36.5772C43.477 36.5445 43.5314 36.5118 43.5822 36.49L43.7275 36.4392L43.9489 36.3666C44.2502 36.2541 44.5225 36.2141 44.8093 36.1452C45.372 36.0363 45.9202 35.9709 46.4647 35.9237C48.6393 35.7495 50.7594 35.7821 52.8831 35.833C54.4297 35.8693 55.9762 35.8911 57.5154 35.96C62.9464 36.2069 68.3556 36.5336 73.772 36.6171C76.1753 36.6534 78.5895 36.6098 80.9673 36.4973C82.4957 36.4501 84.0241 36.3376 85.5524 36.2323C87.0772 36.098 88.6019 36.0036 90.1375 35.9673C91.0959 35.9491 90.9834 36.0326 90.2101 36.3485C89.8217 36.5009 89.2735 36.7623 88.591 36.9656C88.2498 37.0709 87.8831 37.1943 87.4838 37.2887C87.0844 37.3649 86.6597 37.4339 86.2168 37.4847C84.6449 37.6626 83.0693 37.8005 81.4937 37.8949C80.706 37.9494 79.9145 37.9603 79.1268 37.982C78.339 38.0038 77.5476 38.0038 76.7598 38.0111C73.6014 38.0183 70.4467 37.9131 67.281 37.7425C63.4982 37.5355 59.5629 37.423 55.7039 37.2814C53.5838 37.2052 51.4637 37.1398 49.3581 37.1652C48.3053 37.1798 47.2525 37.2124 46.2251 37.325C45.7132 37.3794 45.205 37.4557 44.7258 37.5718C44.6024 37.5936 44.4898 37.6335 44.3809 37.6698L44.2139 37.7243C44.1704 37.7388 44.134 37.7461 44.1123 37.7606L43.9525 37.8405C43.9017 37.8768 43.909 37.9494 43.9017 38.0038C43.9017 38.0401 43.9017 38.0764 43.8981 38.1127V38.316C43.909 38.4721 43.9162 38.6282 43.9271 38.788C43.9489 39.1074 43.9779 39.4269 44.0106 39.75C44.0723 40.3961 44.1486 41.0423 44.2248 41.6921L44.7185 45.5837C44.969 47.5513 45.2231 49.5225 45.4736 51.49C45.5462 51.9801 45.5608 52.4811 45.6189 52.9712L45.7895 54.4486C45.8984 55.4324 46.0073 56.4162 46.1162 57.3927C46.4502 60.4385 46.806 63.4261 46.9258 66.4755C46.9512 67.1471 46.9766 67.8042 46.9657 68.4866C46.8604 71.0169 46.4901 71.8301 46.1198 72.2911C46.0291 72.3964 45.9311 72.5343 45.8585 72.5851C45.7314 72.6686 45.7169 72.4617 45.7278 72.0188C45.7387 71.5687 45.7532 70.8789 45.775 69.9968C45.775 68.6754 45.7423 67.325 45.6769 65.96C45.608 64.5951 45.4991 63.212 45.3756 61.818C45.2522 60.424 45.1106 59.0227 44.9509 57.6106C44.7802 56.202 44.5987 54.7899 44.41 53.3777C44.3773 52.8477 44.1667 52.3395 44.1232 51.8095L43.9199 50.2304C43.7819 49.1776 43.644 48.1212 43.5024 47.0648C43.2265 44.952 42.936 42.8393 42.6855 40.7047L42.7182 40.6938H42.7255Z" fill="#231F20"/>
<path d="M127.341 37.14C125.704 37.2598 124.067 37.3578 122.429 37.3941C121.83 37.4195 121.235 37.4522 120.636 37.4558C118.527 37.4413 116.421 37.3578 114.326 37.14C113.397 37.0565 112.464 36.9766 111.542 36.8931C110.95 36.8314 110.359 36.7842 109.767 36.7152C109.473 36.6717 109.182 36.6027 108.892 36.541C108.601 36.4829 108.318 36.3595 108.031 36.2724C107.676 36.1453 107.737 36.0908 108.068 35.9819C108.264 35.9166 108.496 35.8404 108.75 35.7605C109.03 35.6879 109.349 35.6516 109.687 35.6552C112.072 35.8621 114.446 36.0182 116.853 36.1961C117.213 36.2252 117.576 36.2469 117.942 36.2615C118.309 36.2615 118.679 36.2615 119.05 36.2615C119.79 36.2615 120.534 36.2143 121.271 36.1998C122.084 36.1816 122.894 36.1308 123.707 36.0981C124.517 36.0364 125.33 36.0037 126.14 35.9202C127.138 35.8367 128.136 35.7351 129.131 35.6189C129.886 35.5245 130.641 35.4265 131.393 35.3321C132.144 35.2196 132.896 35.1107 133.64 34.9691C134.794 34.7549 135.909 34.4573 137.038 34.1814C137.288 34.1233 137.528 34.047 137.778 33.9926C138.25 33.9164 138.566 33.8909 138.798 33.9236C139.034 33.9672 139.18 34.047 139.307 34.1668C139.365 34.2213 139.437 34.2685 139.477 34.3229C139.543 34.4137 139.488 34.5153 139.336 34.646C139.183 34.7767 138.94 34.9473 138.606 35.0671C138.116 35.2741 137.604 35.4193 137.085 35.5499C136.566 35.6843 136.039 35.8113 135.509 35.9347C134.446 36.1635 133.357 36.3704 132.264 36.5446C130.638 36.8096 128.993 37.0129 127.348 37.1799L127.341 37.1472V37.14Z" fill="#231F20"/>
<path d="M140.312 50.2018C140.356 49.0074 140.359 47.8022 140.338 46.597C140.327 46.1577 140.283 45.7185 140.276 45.2792C140.251 43.7255 140.196 42.1681 140.174 40.6071C140.163 39.9138 140.113 39.2204 140.094 38.5343C140.08 38.0951 140.051 37.6522 140.047 37.2093C140.029 36.7664 140.094 36.3235 140.131 35.8806C140.163 35.6047 140.24 35.6374 140.37 35.8661C140.436 35.9786 140.519 36.142 140.61 36.3344C140.654 36.4324 140.701 36.5377 140.744 36.6502C140.766 36.7083 140.781 36.7664 140.81 36.8245C140.821 36.8862 140.831 36.9479 140.842 37.0096C140.958 37.9027 141.111 38.7884 141.176 39.6851C141.238 40.5817 141.3 41.482 141.282 42.3896C141.271 43.4786 141.409 44.6004 141.459 45.7112C141.518 46.9346 141.547 48.1616 141.55 49.3886C141.547 50.1437 141.539 50.9024 141.51 51.6575C141.489 52.8046 141.365 53.9518 141.289 55.088C141.245 55.5273 141.224 55.9665 141.202 56.4058C141.176 56.845 141.129 57.277 141.082 57.7127C141.064 57.9051 141.046 58.0938 141.009 58.2862C140.977 58.4641 140.944 58.6093 140.908 58.7328C140.868 58.8525 140.813 58.9469 140.766 59.0232C140.668 59.1756 140.563 59.2519 140.428 59.3027C140.367 59.3281 140.305 59.3608 140.251 59.3717C140.073 59.408 139.953 59.0849 139.898 58.5512C139.927 57.778 139.906 56.983 139.978 56.1952C140 55.7995 140.029 55.4002 140.062 55.0009C140.084 54.6016 140.109 54.2023 140.134 53.7993C140.182 52.605 140.28 51.407 140.283 50.2018H140.316H140.312Z" fill="#231F20"/>
<path d="M139.39 99.9391C139.318 99.2421 139.245 98.5414 139.187 97.8408C139.165 97.5831 139.103 97.3326 139.096 97.0748C139.063 96.1636 139.078 95.2525 139.118 94.3413C139.132 93.9383 139.125 93.5317 139.147 93.1324C139.169 92.8747 139.183 92.6169 139.212 92.3592C139.267 92.1051 139.379 91.8546 139.474 91.6114C139.539 91.4589 139.604 91.4916 139.706 91.6404C139.8 91.7892 139.996 92.0542 140.08 92.341C140.2 93.3466 140.171 94.3231 140.131 95.3505C140.098 95.964 140.236 96.5884 140.301 97.2128C140.37 97.8989 140.439 98.5886 140.53 99.2784C140.585 99.7031 140.639 100.128 140.701 100.553C140.802 101.195 140.875 101.849 141.002 102.48C141.093 102.974 141.274 103.446 141.372 103.936C141.394 104.045 141.427 104.146 141.441 104.259C141.452 104.361 141.449 104.448 141.441 104.52C141.43 104.593 141.405 104.658 141.38 104.709C141.329 104.814 141.26 104.88 141.165 104.938C141.122 104.963 141.082 104.996 141.042 105.014C140.915 105.072 140.741 104.931 140.541 104.662C140.094 103.842 139.906 102.938 139.699 102.019C139.543 101.34 139.466 100.636 139.358 99.9391L139.387 99.9318L139.39 99.9391Z" fill="#231F20"/>
<path d="M83.8172 109.559C86.1733 109.265 88.5257 108.942 90.8854 108.612L94.4322 108.129C95.6121 107.973 96.8355 107.835 98.0444 107.777C99.8088 107.682 101.562 107.635 103.308 107.668C109.465 107.806 115.564 108.328 121.671 108.506C124.379 108.59 127.102 108.568 129.777 108.419C133.211 108.209 136.624 107.719 139.869 106.731C140.897 106.441 140.799 106.506 140.051 107.098C139.869 107.261 139.626 107.41 139.354 107.599C139.089 107.817 138.748 107.965 138.381 108.14C138.014 108.321 137.604 108.484 137.161 108.633C136.94 108.713 136.711 108.789 136.475 108.855C136.235 108.913 135.992 108.967 135.742 109.022C133.963 109.374 132.173 109.574 130.383 109.701C128.597 109.828 126.811 109.882 125.025 109.875C121.456 109.875 117.902 109.693 114.341 109.472C110.083 109.207 105.65 109.062 101.323 109.098C100.135 109.116 98.9447 109.142 97.7685 109.229C96.5923 109.305 95.4233 109.447 94.2362 109.613L87.1135 110.623C84.1838 111.029 81.2505 111.403 78.31 111.73C73.8556 112.22 69.3576 112.558 64.8995 112.659C63.1679 112.699 61.4471 112.703 59.73 112.645C58.0128 112.594 56.2957 112.467 54.5749 112.198C54.3861 112.169 54.1973 112.144 54.0086 112.115L53.4459 112.006C53.0719 111.93 52.6944 111.868 52.3205 111.755C51.972 111.654 51.6561 111.563 51.3657 111.479C51.0753 111.392 50.8175 111.28 50.5815 111.193C50.3456 111.098 50.135 111.018 49.9462 110.928C49.7611 110.83 49.5941 110.742 49.4489 110.652C49.1621 110.467 48.9334 110.332 48.7736 110.158C48.6139 109.991 48.4977 109.839 48.407 109.693C48.3235 109.559 48.2 109.414 48.1637 109.319C48.0476 109.015 49.133 109.392 51.0172 109.947C53.8488 110.724 56.9201 111.015 60.0385 111.12C61.5996 111.164 63.1751 111.171 64.7652 111.124C66.3517 111.091 67.9454 111.022 69.5427 110.928C74.2876 110.641 79.0578 110.136 83.8063 109.508L83.8172 109.545V109.559Z" fill="#231F20"/>
<path d="M48.1384 105.631C48.1203 105.882 48.0985 106.132 48.0803 106.383C48.0731 106.477 48.1021 106.571 48.0949 106.666C48.0586 107.007 48.0005 107.363 47.9025 107.704C47.8807 107.78 47.8734 107.856 47.8589 107.933L47.8081 108.161C47.7827 108.256 47.7645 108.354 47.7282 108.448C47.6737 108.535 47.5794 108.612 47.4922 108.684C47.4305 108.728 47.3652 108.695 47.2599 108.615C47.1619 108.535 46.9767 108.397 46.8969 108.285C46.8642 108.194 46.8533 108.114 46.8351 108.031C46.8206 107.951 46.7879 107.867 46.8025 107.791C46.817 107.639 46.846 107.479 46.9077 107.312C46.9912 107.105 46.9223 106.891 46.9186 106.669C46.9186 106.419 46.9186 106.165 46.9223 105.914C46.9259 105.755 46.9332 105.595 46.9368 105.435C46.9368 105.192 46.9658 104.949 46.944 104.709C46.9295 104.524 46.8351 104.335 46.8279 104.146C46.8279 104.106 46.8134 104.063 46.817 104.023C46.817 103.947 46.8714 103.896 46.9295 103.867C46.9622 103.852 46.9985 103.838 47.0421 103.831C47.0965 103.823 47.1619 103.82 47.22 103.816L47.3615 103.805C47.4596 103.798 47.75 103.878 47.8262 103.987C47.9061 104.067 47.9424 104.143 47.9932 104.223C48.044 104.299 48.0876 104.379 48.0985 104.455C48.1312 104.607 48.1493 104.764 48.1566 104.92C48.1711 105.152 48.1566 105.388 48.1711 105.631H48.1421H48.1384Z" fill="#231F20"/>
<path d="M102.898 87.6945C102.898 87.6945 102.894 87.6945 102.891 87.6945C102.88 87.7126 102.869 87.7163 102.858 87.709C102.578 87.6654 102.299 87.6763 102.016 87.6545C101.733 87.64 101.446 87.6255 101.145 87.6219C100.847 87.6146 100.542 87.6219 100.244 87.6436C99.9501 87.6763 99.6488 87.6436 99.3765 87.8288C99.3656 87.8324 99.3584 87.8542 99.3475 87.8542C99.3475 87.8542 99.3439 87.8542 99.3402 87.8615C99.3221 87.9159 99.3257 88.112 99.3475 88.3007C99.3693 88.4895 99.4092 88.6819 99.4383 88.7291C99.4383 88.7327 99.4419 88.7363 99.4455 88.7363C99.4564 88.7363 99.4673 88.7509 99.4782 88.7545C99.5036 88.769 99.529 88.7944 99.5508 88.8017H99.6198C99.8884 88.8307 100.146 88.7872 100.404 88.7835C100.662 88.7763 100.912 88.7799 101.174 88.7908C101.431 88.8017 101.7 88.8235 101.972 88.8453C102.244 88.8561 102.517 88.907 102.793 88.8852C102.804 88.8779 102.814 88.8852 102.822 88.9033C102.822 88.907 102.825 88.907 102.829 88.907C102.854 88.8525 102.891 88.5367 102.902 88.3007C102.912 88.0648 102.912 87.7489 102.891 87.6908L102.898 87.6945Z" fill="#242021"/>
<path d="M97.1585 87.9448C97.1585 87.9448 97.1549 87.9448 97.1512 87.9485C97.1403 87.9666 97.1294 87.9739 97.1149 87.9702C96.7809 87.9775 96.4542 88.0465 96.1238 88.0828L95.1328 88.2135L94.1417 88.3441C93.815 88.4022 93.4773 88.3841 93.1615 88.5729C93.1506 88.5765 93.1397 88.5983 93.1288 88.5983C93.1288 88.5983 93.1252 88.5983 93.1216 88.6055C93.0998 88.66 93.1034 88.856 93.1252 89.0448C93.147 89.2335 93.1942 89.4259 93.2232 89.4731C93.2232 89.4768 93.2305 89.4804 93.2305 89.4804C93.2414 89.4804 93.2595 89.4949 93.2704 89.4986C93.2995 89.5131 93.3285 89.5385 93.3575 89.5457H93.4374C93.7605 89.5639 94.0763 89.5022 94.3922 89.4731L95.3433 89.3679L96.2945 89.2626C96.6103 89.219 96.9298 89.2118 97.2456 89.1392C97.2565 89.1319 97.271 89.1392 97.2819 89.1537C97.2819 89.1537 97.2892 89.1573 97.2892 89.1537C97.3073 89.092 97.2928 88.7761 97.2674 88.5438C97.242 88.3115 97.1803 87.9993 97.1476 87.9448H97.1585Z" fill="#242021"/>
<path d="M91.3642 88.7658C91.3642 88.7658 91.3606 88.7658 91.3569 88.7694C91.3497 88.7875 91.3388 88.7984 91.3243 88.7912C91.0229 88.8166 90.7361 88.9001 90.4421 88.9436C90.148 88.9981 89.8576 89.0489 89.5672 89.0925C89.2768 89.1397 88.9827 89.1796 88.685 89.2159C88.391 89.2667 88.086 89.2413 87.8028 89.4192C87.792 89.4228 87.7847 89.4446 87.7738 89.4446C87.7738 89.4446 87.7702 89.4446 87.7665 89.4519C87.7484 89.5063 87.7484 89.7024 87.7665 89.8911C87.7847 90.0799 87.8246 90.2723 87.8537 90.3195C87.8537 90.3231 87.8573 90.3268 87.8609 90.3268C87.8718 90.3268 87.8863 90.3413 87.8972 90.3449C87.9226 90.3594 87.9517 90.3848 87.9771 90.3921H88.0533C88.3474 90.4211 88.6378 90.3667 88.9319 90.3413C89.2259 90.3122 89.52 90.2759 89.8104 90.236C90.1045 90.1961 90.3949 90.1525 90.6853 90.1053C90.9758 90.0509 91.2662 90.0291 91.5493 89.942C91.5602 89.9347 91.5711 89.9383 91.5856 89.9528C91.5856 89.9528 91.5893 89.9565 91.5929 89.9528C91.6074 89.8911 91.5675 89.5789 91.5239 89.3466C91.4804 89.1143 91.4005 88.8093 91.3678 88.7549L91.3642 88.7658Z" fill="#242021"/>
<path d="M85.7228 89.4113C85.7228 89.4113 85.7192 89.4113 85.7156 89.4113C85.7083 89.4294 85.6974 89.4367 85.6865 89.4294C85.4106 89.4185 85.1456 89.4694 84.8733 89.4875L84.0601 89.5637L83.2469 89.64C82.9783 89.6799 82.7024 89.64 82.441 89.8142C82.4301 89.8179 82.4229 89.8396 82.412 89.836C82.412 89.836 82.4083 89.836 82.4047 89.8433C82.3866 89.8977 82.3829 90.0938 82.3938 90.2825C82.4047 90.4713 82.4374 90.6637 82.4628 90.7145C82.4628 90.7182 82.4664 90.7218 82.4701 90.7218C82.4809 90.7218 82.4918 90.7363 82.5027 90.7399C82.5245 90.7581 82.5499 90.7835 82.5717 90.7908H82.6407C82.9057 90.8307 83.1671 90.7835 83.4321 90.7726L84.2199 90.7218L85.0077 90.671C85.269 90.6456 85.5341 90.6528 85.7954 90.5984C85.8063 90.5911 85.8172 90.5984 85.8281 90.6129C85.8281 90.6129 85.8317 90.6165 85.8354 90.6129C85.8535 90.5548 85.839 90.239 85.8172 90.003C85.7954 89.767 85.7482 89.4548 85.7228 89.4004V89.4113Z" fill="#242021"/>
<path d="M80.9517 89.5275C80.9517 89.5275 80.9517 89.5275 80.9481 89.5275C80.9409 89.5457 80.9336 89.553 80.9227 89.5457C80.7085 89.5203 80.498 89.5566 80.2838 89.5602L79.6448 89.5893L79.0059 89.6183C78.7917 89.6437 78.5775 89.5893 78.3669 89.7454C78.3597 89.7454 78.3524 89.7708 78.3452 89.7671C78.3452 89.7671 78.3452 89.7672 78.3415 89.7744C78.3234 89.8252 78.3125 90.0213 78.3161 90.21C78.3198 90.3988 78.3343 90.5948 78.3524 90.6457C78.3524 90.6493 78.3561 90.6529 78.3561 90.6529C78.3633 90.6529 78.3742 90.6711 78.3815 90.6747C78.3996 90.6928 78.4178 90.7183 78.4359 90.7291L78.4904 90.7364C78.6973 90.7872 78.9079 90.7546 79.1148 90.7618L79.7392 90.7546L80.3636 90.7473C80.5706 90.7364 80.7811 90.7618 80.988 90.7219C80.9953 90.7146 81.0026 90.7219 81.0135 90.74C81.0135 90.7437 81.0135 90.7437 81.0171 90.74C81.0316 90.682 81.028 90.3661 81.0171 90.1302C81.0062 89.8942 80.9735 89.5784 80.9554 89.5239L80.9517 89.5275Z" fill="#242021"/>
<path d="M91.3967 79.6862C91.3967 79.6862 91.3931 79.6862 91.3894 79.6898C91.3822 79.708 91.3713 79.7189 91.3604 79.7116C91.0591 79.737 90.7723 79.8205 90.4782 79.8641C90.1842 79.9185 89.8937 79.9693 89.6033 80.0129C89.3129 80.0601 89.0188 80.1 88.7211 80.1363C88.4271 80.1871 88.1221 80.1617 87.839 80.3396C87.8281 80.3432 87.8208 80.365 87.8099 80.365C87.8099 80.365 87.8063 80.365 87.8027 80.3723C87.7845 80.4267 87.7845 80.6228 87.8027 80.8115C87.8208 81.0003 87.8608 81.1927 87.8898 81.2399C87.8898 81.2435 87.8934 81.2472 87.8971 81.2472C87.9079 81.2472 87.9225 81.2617 87.9334 81.2653C87.9588 81.2798 87.9878 81.3053 88.0132 81.3125H88.0895C88.3835 81.3416 88.674 81.2871 88.968 81.2617C89.2621 81.2326 89.5561 81.1963 89.8465 81.1564C90.1406 81.1165 90.431 81.0729 90.7215 81.0257C91.0119 80.9713 91.3023 80.9495 91.5855 80.8624C91.5964 80.8551 91.6073 80.8587 91.6218 80.8733C91.6218 80.8733 91.629 80.8769 91.629 80.8733C91.6436 80.8115 91.6036 80.4994 91.5601 80.267C91.5165 80.0347 91.4366 79.7297 91.404 79.6753L91.3967 79.6862Z" fill="#242021"/>
<path d="M85.7526 80.3288C85.7526 80.3288 85.749 80.3288 85.7454 80.3288C85.7381 80.3469 85.7272 80.3542 85.7163 80.3469C85.444 80.336 85.1754 80.3869 84.9031 80.405L84.0899 80.4812L83.2767 80.5575C83.0081 80.5974 82.7322 80.5575 82.4708 80.7317C82.4599 80.7353 82.4527 80.7571 82.4418 80.7535C82.4418 80.7535 82.4381 80.7535 82.4345 80.7608C82.4163 80.8152 82.4127 81.0112 82.4236 81.2C82.4345 81.3888 82.4672 81.5812 82.4926 81.632C82.4926 81.6356 82.4962 81.6393 82.4998 81.6393C82.5107 81.6393 82.5216 81.6538 82.5325 81.6574C82.5543 81.6719 82.5797 81.701 82.6015 81.7082H82.6705C82.9355 81.7482 83.1969 81.701 83.4619 81.6901L84.2497 81.6393L85.0374 81.5884C85.2988 81.563 85.5638 81.5703 85.8252 81.5158C85.8361 81.5086 85.847 81.5158 85.8579 81.5304C85.8579 81.5304 85.8615 81.534 85.8652 81.5304C85.8833 81.4723 85.8688 81.1564 85.847 80.9205C85.8252 80.6845 85.778 80.3723 85.7526 80.3179V80.3288Z" fill="#242021"/>
<path d="M80.982 80.4485C80.982 80.4485 80.982 80.4485 80.9784 80.4485C80.9711 80.4666 80.9639 80.4739 80.953 80.4666C80.7388 80.4412 80.5282 80.4775 80.314 80.4811L79.6751 80.5102L79.0362 80.5392C78.822 80.5646 78.6078 80.5102 78.3972 80.6663C78.39 80.6663 78.3827 80.6917 78.3754 80.6881C78.3754 80.6881 78.3754 80.688 78.3718 80.6953C78.3537 80.7461 78.3428 80.9422 78.3464 81.1309C78.35 81.3197 78.3646 81.5157 78.3827 81.5666C78.3827 81.5702 78.3863 81.5738 78.3863 81.5738C78.3936 81.5738 78.4045 81.592 78.4117 81.5956C78.4299 81.6138 78.448 81.6392 78.4662 81.6501L78.5207 81.6573C78.7276 81.7081 78.9381 81.6755 79.1451 81.6827L79.7695 81.6755L80.3939 81.6682C80.6008 81.6573 80.8114 81.6827 81.0183 81.6428C81.0256 81.6355 81.0328 81.6428 81.0437 81.6609C81.0437 81.6646 81.0437 81.6646 81.0474 81.6609C81.0619 81.6029 81.0583 81.287 81.0474 81.0511C81.0365 80.8151 81.0038 80.4993 80.9856 80.4448L80.982 80.4485Z" fill="#242021"/>
<path d="M118.981 75.1847C118.955 75.4498 118.999 75.7728 119.086 76.0996C119.18 76.4299 119.311 76.7639 119.467 77.0979C119.779 77.7658 120.197 78.412 120.64 79.0437C121.536 80.3033 122.6 81.4686 123.74 82.5541C124.575 83.3454 125.475 84.0679 126.379 84.7794C127.98 86.0354 129.686 87.1499 131.465 88.1555C133.237 89.1647 135.103 89.9996 137.049 90.595C138.773 91.1213 140.577 91.4154 142.363 91.4626C142.65 91.4771 142.937 91.4626 143.224 91.4626C143.511 91.4517 143.797 91.4662 144.084 91.4335C144.658 91.3827 145.231 91.3609 145.798 91.2629C146.945 91.1467 148.056 90.8636 149.221 90.7474C149.962 90.7075 149.878 90.7474 149.337 91.1141C149.203 91.2121 149.036 91.3174 148.847 91.4481C148.8 91.4807 148.749 91.5098 148.698 91.5533C148.644 91.5824 148.593 91.6114 148.535 91.6405C148.423 91.7022 148.306 91.7602 148.179 91.8074C147.925 91.9127 147.646 92.018 147.344 92.1196C147.192 92.1668 147.036 92.2177 146.88 92.2685C146.716 92.3012 146.549 92.3302 146.375 92.3556C143.943 92.744 141.43 92.7368 138.998 92.2612C138.388 92.1632 137.793 91.9962 137.19 91.851C136.602 91.6695 136.003 91.5098 135.43 91.2847C134.264 90.8745 133.146 90.359 132.057 89.7927C129.465 88.4314 126.851 86.8486 124.542 84.9355C123.275 83.8863 122.074 82.7501 120.977 81.5086C119.888 80.2634 118.872 78.9311 118.189 77.352C117.96 76.7929 117.764 76.2048 117.728 75.5514C117.714 75.2247 117.743 74.8798 117.848 74.5422C117.971 74.201 118.167 73.8924 118.454 73.6419C118.694 73.4277 119.05 73.3406 119.34 73.3515C119.623 73.3624 119.866 73.4241 120.091 73.504C120.542 73.6673 120.934 73.8851 121.315 74.1138C122.644 74.9197 123.845 75.8418 125.065 76.7348C126.281 77.6279 127.494 78.5173 128.772 79.2542C129.458 79.6463 130.162 79.9948 130.881 80.1981C131.237 80.2924 131.6 80.3578 131.93 80.336C132.257 80.3251 132.565 80.2017 132.761 80.0347C132.823 79.9802 132.859 79.9113 132.87 79.8241C132.885 79.7298 132.877 79.5991 132.852 79.4647C132.798 79.1889 132.678 78.8948 132.529 78.6117C132.315 78.2051 132.035 77.8312 131.756 77.4464C131.218 76.7385 130.786 76.35 130.51 76.0524C130.242 75.7365 130.086 75.5369 129.959 75.3445C129.901 75.2537 129.806 75.1666 129.77 75.1049C129.705 75.0069 129.872 74.9706 130.256 75.0359C130.634 75.1049 131.218 75.3191 131.785 75.8128C132.115 76.085 132.42 76.3827 132.707 76.7058C132.848 76.8692 132.99 77.0325 133.121 77.2104C133.248 77.3883 133.364 77.577 133.476 77.7695C133.694 78.1615 133.894 78.579 134.014 79.0836C134.068 79.3377 134.108 79.6209 134.065 79.9548C134.021 80.2888 133.839 80.7026 133.527 80.9386C133.389 81.0366 133.328 81.0911 133.215 81.1528C133.113 81.2145 133.008 81.2653 132.899 81.3089C132.681 81.396 132.456 81.4541 132.242 81.4795C131.803 81.534 131.393 81.4977 131.011 81.4178C130.253 81.2581 129.592 80.9677 128.96 80.6482C127.708 80.002 126.582 79.2215 125.479 78.4302C124.328 77.6061 123.214 76.7457 122.084 75.958C121.801 75.762 121.518 75.5695 121.235 75.388C120.948 75.2102 120.651 75.0577 120.364 74.9197C120.077 74.7854 119.786 74.6729 119.551 74.6221C119.434 74.593 119.325 74.5821 119.289 74.5894C119.275 74.5894 119.275 74.5894 119.264 74.5894C119.133 74.7164 119.031 74.9088 119.01 75.1884H118.977L118.981 75.1847Z" fill="#231F20"/>
<path opacity="0.2" d="M68.4114 62.9834C68.4114 62.9834 65.5979 91.3135 53.2693 99.9098C50.9967 101.493 47.8492 101.725 44.9341 101.725C44.9341 101.725 56.4241 108.782 57.9887 105.852C59.5534 102.919 63.9062 81.2252 64.3091 80.7024C64.7121 80.1797 68.4078 62.9834 68.4078 62.9834H68.4114Z" fill="#231F20"/>
<path d="M64.6795 78.9995L63.0422 85.2507L62.4541 87.5341C61.7317 90.2095 60.9874 92.8777 60.2251 95.5387C59.8947 96.7221 59.5607 97.9128 59.2304 99.0854C58.7984 100.592 58.4099 102.117 57.8436 103.583C57.604 104.019 57.633 103.961 57.6294 103.529C57.6294 103.097 57.702 102.327 57.9561 101.46C58.8165 98.3811 59.7023 95.3172 60.599 92.2207C61.1435 90.3729 61.6119 88.4198 62.1165 86.514L63.7574 80.2192C64.0914 78.9269 64.4254 77.6345 64.7594 76.3422C65.264 74.3855 65.7722 72.4179 66.2732 70.4757C66.462 69.717 66.6471 68.9692 66.8286 68.2214C67.021 67.4772 67.2098 66.733 67.4022 65.9852C67.4894 65.6585 67.5729 65.3354 67.66 65.005C67.8306 64.3915 67.9468 63.9922 68.0484 63.7163C68.1537 63.4404 68.2372 63.2879 68.3171 63.1681C68.3534 63.1137 68.3897 63.0375 68.4151 63.0084C68.455 62.9576 68.4514 63.0592 68.4296 63.2916C68.4078 63.5239 68.357 63.8833 68.2517 64.3371C67.9468 65.6839 67.6382 67.0634 67.3224 68.4646C66.9775 69.8586 66.629 71.2708 66.2805 72.6865C65.7504 74.7884 65.2204 76.8976 64.6904 79.0067H64.6759L64.6795 78.9995Z" fill="#231F20"/>
<path d="M68.4112 62.9834L69.5403 62.7583C70.0521 62.7583 61.6153 98.3415 59.5786 104.56C59.4044 105.086 57.9922 105.852 57.9922 105.852L68.4112 62.9834Z" fill="#231F20"/>
<path d="M56.3691 102.698L58.3622 103.805L58.7034 102.585L56.7104 101.725L56.3691 102.698Z" fill="#231F20"/>
<path d="M58.7026 94.6894L60.6921 95.793L61.0369 94.5769L59.0439 93.7129L58.7026 94.6894Z" fill="#231F20"/>
<path d="M61.3291 85.1819L63.3221 86.2891L63.6634 85.0693L61.6704 84.209L61.3291 85.1819Z" fill="#231F20"/>
<path d="M63.5469 75.4963L65.5363 76.5999L65.8775 75.3838L63.8881 74.5234L63.5469 75.4963Z" fill="#231F20"/>
<path d="M56.9536 98.5813L59.5275 99.9099L59.8688 98.6938L57.2949 97.6084L56.9536 98.5813Z" fill="#231F20"/>
<path d="M59.5781 89.9589L62.152 91.2876L62.4969 90.0715L59.9194 88.9824L59.5781 89.9589Z" fill="#231F20"/>
<path d="M61.7935 80.0671L64.371 81.3958L64.7122 80.1797L62.1383 79.0942L61.7935 80.0671Z" fill="#231F20"/>
<path d="M55.6544 70.102C53.7267 71.4089 51.8026 72.7158 49.893 74.0444C49.196 74.5272 48.5244 75.05 47.8274 75.5328C45.3733 77.2426 42.9228 78.9561 40.5195 80.7313C39.4522 81.519 38.4067 82.3467 37.3902 83.178C36.7404 83.7189 36.0942 84.2635 35.4262 84.7862C35.0958 85.0512 34.7655 85.3126 34.4279 85.5703L33.916 85.9479C33.7417 86.0713 33.5421 86.1584 33.3642 86.2746C32.9104 86.5505 32.8523 86.3762 33.0411 85.9079C33.1427 85.6792 33.2553 85.3198 33.4876 85.0004C33.7127 84.6664 34.0031 84.3106 34.3661 83.9839C35.6513 82.8114 37.0235 81.7477 38.3994 80.6877C39.7753 79.6277 41.1911 78.6112 42.6433 77.6347C44.3749 76.4622 46.0921 75.1262 47.8346 73.892C49.7515 72.5343 51.6828 71.202 53.6141 69.8661C54.8012 69.0456 55.992 68.2252 57.1791 67.4084C58.9725 66.1596 60.7876 64.9217 62.5375 63.6403C63.8952 62.642 65.1731 61.5892 66.4836 60.5582C66.7704 60.3295 67.05 60.1045 67.3404 59.8757C67.8813 59.4583 68.2589 59.2078 68.5638 59.0844C68.7126 59.019 68.8433 58.9827 68.9595 58.9682C69.0829 58.9609 69.1991 58.9755 69.308 58.9972C69.406 59.019 69.5186 59.019 69.5876 59.0481C69.8017 59.1134 69.5585 59.7197 68.807 60.3985C66.5744 62.4024 64.0295 64.2683 61.4593 66.1015C59.5497 67.4629 57.6039 68.7952 55.6761 70.1383L55.6544 70.1129V70.102Z" fill="#231F20"/>
<path d="M42.7306 100.923L46.3391 102.389C46.7784 102.567 47.2322 102.712 47.6642 102.901C49.2034 103.558 50.7209 104.27 52.2275 105.003C52.8991 105.319 53.5707 105.649 54.2423 105.954C54.6707 106.161 55.1063 106.357 55.5238 106.582C55.9377 106.818 56.3298 107.101 56.7073 107.399C56.9397 107.588 56.7836 107.766 56.4423 107.864C56.1011 107.958 55.5601 107.998 55.07 107.798C53.3529 107.021 51.643 106.223 49.9404 105.312C48.9203 104.771 47.7804 104.39 46.684 103.947C45.4787 103.46 44.2735 102.977 43.0609 102.502L40.8174 101.638C39.6811 101.213 38.5412 100.767 37.4012 100.378C36.5118 100.077 35.6188 99.8409 34.7293 99.5614C34.5333 99.4997 34.3373 99.4525 34.1412 99.3799C33.4333 99.075 33.2445 98.8971 33.2119 98.5304C33.2046 98.4506 33.1828 98.3671 33.1864 98.2981C33.1973 98.0766 33.5785 97.9568 34.134 98.0621C35.7749 98.3743 37.4194 98.9297 39.0676 99.5215C40.291 99.9571 41.5144 100.429 42.7378 100.886L42.7269 100.919L42.7306 100.923Z" fill="#231F20"/>
<path d="M65.5972 78.7638L63.7748 85.7846C63.5533 86.6377 63.3646 87.5017 63.1286 88.3511C62.2972 91.3497 61.4369 94.3374 60.5728 97.3214C60.188 98.6464 59.8323 99.986 59.4765 101.307C59.2514 102.157 59.0227 103.01 58.794 103.859C58.6778 104.284 58.5471 104.705 58.4019 105.123L58.1841 105.747C58.1042 105.954 57.9989 106.15 57.8937 106.35C57.5887 106.833 57.6032 106.76 57.5234 106.255C57.4108 105.74 57.3491 104.836 57.5996 103.856C58.529 100.396 59.4729 96.9438 60.5111 93.4806C61.1392 91.4114 61.622 89.2115 62.1666 87.0697C62.7692 84.7137 63.3718 82.3577 63.9745 80.0017C64.3339 78.5496 64.6933 77.0939 65.0527 75.6418C65.5863 73.4383 66.1272 71.2238 66.6246 69.0312C66.817 68.1781 66.9876 67.3286 67.1546 66.4792C67.318 65.6297 67.485 64.7839 67.681 63.9417C67.7645 63.5714 67.8371 63.2047 67.9315 62.8308C68.0985 62.1375 68.2401 61.6909 68.3817 61.3824C68.5196 61.0774 68.6431 60.9104 68.7919 60.787C68.8609 60.7326 68.9298 60.6527 68.9879 60.6237C69.1767 60.5256 69.2058 61.1283 69.1041 62.1738C68.7338 65.2594 68.0731 68.454 67.3398 71.6486C66.7916 74.0191 66.2071 76.3933 65.6263 78.7601H65.5936L65.5972 78.7638Z" fill="#231F20"/>
<path d="M54.59 86.8991C55.5593 84.6085 56.4814 82.3105 57.222 79.9582C57.3527 79.5661 57.458 79.1704 57.5669 78.7747L57.7448 78.1213L57.7629 78.0632C57.7738 78.0124 57.8065 77.9579 57.8065 77.9035C57.7738 77.8563 57.7157 77.889 57.6722 77.8962C57.5705 77.9289 57.487 77.9652 57.3563 78.0305C56.6702 78.4008 55.9841 78.8147 55.3052 79.2321C53.9475 80.0707 52.6006 80.9419 51.261 81.8241C50.0703 82.6046 48.894 83.4214 47.7287 84.2273C46.9809 84.7428 46.2366 85.2692 45.4779 85.7774C45.1004 86.0351 44.7119 86.2747 44.3162 86.4998L43.7208 86.8374C43.5175 86.9427 43.2997 87.0225 43.0819 87.1024C42.5156 87.2658 42.5773 87.2186 42.8713 86.7829C43.1472 86.3183 43.7208 85.5922 44.574 84.9969C47.6271 82.924 50.6548 80.7859 53.8531 78.8183C54.6989 78.2992 55.5484 77.7546 56.4306 77.2246L56.7646 77.0286L57.0223 76.8834C57.1167 76.8326 57.2075 76.7781 57.3019 76.7309C57.6722 76.5349 58.0606 76.3643 58.3692 76.328C58.5253 76.3062 58.6633 76.3098 58.7903 76.3389C58.8557 76.3534 58.9174 76.3715 58.9864 76.4115C59.0553 76.4478 59.1207 76.5204 59.1425 76.5712C59.1715 76.6111 59.1642 76.7019 59.1715 76.7709L59.186 76.9887L59.2151 77.4243C59.1606 77.6421 59.1061 77.8599 59.0553 78.0777L58.9755 78.4044C58.95 78.5061 58.9137 78.6404 58.8992 78.6876C58.558 79.911 58.1695 81.1235 57.752 82.3178C57.3273 83.5121 56.8735 84.6956 56.4016 85.8645C55.8207 87.3057 55.2108 88.7324 54.6227 90.159C54.2633 91.0339 53.9039 91.9088 53.559 92.7873C53.3884 93.2266 53.2178 93.6658 53.0544 94.1087L52.8112 94.7694L52.5207 95.608L52.3102 95.9637L52.2557 96.0509C52.2122 96.0363 52.1904 96.069 52.1613 96.0726C52.1033 96.0908 52.0343 96.0799 51.9653 96.0763C51.6858 96.0509 51.3663 95.9129 51.0722 95.8113C50.2082 95.4991 49.3732 95.205 48.5274 94.9255C47.6815 94.6496 46.8429 94.3737 45.997 94.0978C45.6231 93.9816 45.2601 93.8691 44.8862 93.7493C43.4994 93.3209 43.0855 93.0959 42.8278 92.8055C42.7697 92.7365 42.6862 92.6675 42.6571 92.6094C42.5482 92.4243 43.1799 92.3698 44.2726 92.5332C44.9842 92.6639 45.6957 92.8236 46.4109 93.0015C46.7667 93.0922 47.1224 93.1866 47.4819 93.2774C47.8376 93.379 48.1898 93.4916 48.5455 93.6077C49.2534 93.8364 49.9614 94.0797 50.6656 94.3265L51.192 94.5117L51.4534 94.6024C51.5151 94.6242 51.497 94.6169 51.5006 94.6169C51.5042 94.6169 51.5006 94.6097 51.5006 94.6097L51.5442 94.479L51.7366 93.9381C52.597 91.5422 53.6135 89.2152 54.561 86.8955L54.5937 86.9064L54.59 86.8991Z" fill="#231F20"/>
<path d="M161.623 103.649C161.129 104.292 160.621 104.923 160.076 105.526C159.873 105.744 159.702 105.983 159.488 106.194C158.751 106.935 157.938 107.613 157.048 108.169C156.849 108.289 156.656 108.423 156.457 108.539C156.253 108.652 156.05 108.764 155.847 108.877C155.582 109.015 155.299 109.116 155.023 109.229C154.743 109.334 154.438 109.374 154.148 109.421C153.963 109.443 153.963 109.305 154.072 109.124C154.184 108.942 154.391 108.706 154.674 108.583L155.4 108.183C155.633 108.031 155.876 107.904 156.112 107.759C156.341 107.599 156.573 107.446 156.809 107.29C157.03 107.12 157.263 106.953 157.502 106.797C157.775 106.59 158.04 106.357 158.29 106.107C158.53 105.845 158.776 105.591 159.009 105.323C159.267 105.029 159.532 104.746 159.775 104.433C160.025 104.132 160.269 103.823 160.501 103.508C160.795 103.123 161.071 102.724 161.35 102.324C161.757 101.711 162.164 101.09 162.512 100.444C162.777 99.9392 162.988 99.42 163.224 98.9082C163.274 98.7956 163.314 98.6795 163.383 98.5742C163.627 98.1785 163.757 98.0769 163.968 98.0696C164.015 98.0696 164.066 98.0587 164.109 98.066C164.251 98.0841 164.28 98.3128 164.207 98.6613C163.997 99.6959 163.489 100.658 162.951 101.605C162.552 102.31 162.102 102.992 161.641 103.664L161.619 103.649H161.623Z" fill="#231F20"/>
</svg>
