<svg width="269" height="166" viewBox="0 0 269 166" fill="none" xmlns="http://www.w3.org/2000/svg">
<path d="M212.113 122.878C212.158 123.089 236.445 120.677 239.268 117.014C242.091 113.352 223.34 112.479 223.34 112.479L212.113 122.878Z" fill="#231F20"/>
<path d="M101.426 69.4628C103.071 68.6959 104.788 68.1179 106.522 67.6899C107.156 67.5343 107.784 67.3509 108.429 67.2453C110.696 66.8618 112.981 66.7451 115.254 66.7785C116.26 66.8007 117.271 66.8174 118.266 66.8618C118.905 66.8952 119.55 66.923 120.189 66.9897C120.828 67.073 121.456 67.2175 122.062 67.4398C122.434 67.5732 122.373 67.7066 122.006 67.8789C121.823 67.9623 121.573 68.0679 121.267 68.1734C120.967 68.2679 120.628 68.318 120.267 68.3235C117.732 68.1179 115.209 68.0345 112.647 68.1012C111.113 68.1346 109.54 68.4513 108.023 68.7959C106.35 69.1683 104.7 69.674 103.127 70.3521C102.165 70.7856 101.204 71.2413 100.315 71.8026C98.9474 72.6363 97.6413 73.5978 96.5186 74.7204C95.6683 75.6208 94.9236 76.5822 94.2567 77.5993C94.1066 77.8216 93.9621 78.0384 93.7954 78.2551C93.6453 78.4552 93.5286 78.6275 93.4175 78.7609C93.3007 78.8942 93.184 78.9832 93.084 79.0554C92.8784 79.1999 92.7061 79.2499 92.5004 79.2555C92.4115 79.2555 92.3115 79.2777 92.2337 79.2666C91.9836 79.2333 92.0169 78.7609 92.2726 77.9995C93.1951 75.8542 94.8236 73.9201 96.7521 72.3695C98.1693 71.1968 99.7532 70.2242 101.398 69.4239L101.421 69.4573L101.426 69.4628Z" fill="#231F20"/>
<path d="M51.7126 104.765C53.2965 103.476 55.0305 102.381 56.8646 101.503C57.5315 101.175 58.1984 100.853 58.8931 100.592C61.3441 99.6856 63.9173 99.1854 66.4849 98.9909C67.6243 98.902 68.7691 98.8464 69.9029 98.8297L70.9922 98.8186C71.3535 98.8353 71.7203 98.8519 72.0815 98.8853C72.4428 98.9186 72.804 98.9409 73.1597 99.0187C73.5154 99.0965 73.8711 99.1854 74.2212 99.2799C74.6603 99.4022 74.588 99.5133 74.1934 99.6856C73.9934 99.769 73.7155 99.8801 73.382 99.9968C73.2153 100.052 73.0374 100.125 72.8485 100.158C72.6595 100.186 72.465 100.202 72.2594 100.208L71.1812 100.23C70.8199 100.241 70.4642 100.219 70.1085 100.219C69.3916 100.219 68.6802 100.219 67.9688 100.247C66.5405 100.297 65.1177 100.419 63.695 100.63C61.9832 100.869 60.2825 101.492 58.6708 102.181C56.8924 102.937 55.1973 103.909 53.6467 105.082C53.1743 105.443 52.6963 105.81 52.2461 106.21C51.7848 106.594 51.3569 107.016 50.9234 107.433C49.6396 108.717 48.4613 110.134 47.4387 111.635C47.0552 112.229 46.6773 112.818 46.3605 113.441L45.8714 114.363L45.4213 115.303C45.2879 115.581 45.1656 115.853 45.0211 116.125C44.771 116.642 44.5876 116.976 44.4098 117.181C44.2153 117.387 44.043 117.476 43.8373 117.515C43.7429 117.531 43.6428 117.57 43.565 117.57C43.4316 117.57 43.3649 117.442 43.3594 117.203C43.3594 116.964 43.3927 116.614 43.5428 116.209C44.3875 113.774 45.7325 111.362 47.3831 109.156C48.6447 107.539 50.0897 106.049 51.6737 104.732L51.7015 104.76L51.7126 104.765Z" fill="#231F20"/>
<path d="M81.5 99L100 100.5L98 103.5L95 107L94.5 112L93.5 116L91 115L86 114.5L76 114L68 113.5V110L71 102L74 98.5L81.5 99Z" fill="#FDC6C6"/>
<path d="M86.0048 100.803C86.0048 100.803 85.9548 100.797 85.9159 100.797L85.6603 100.858C85.5213 100.88 85.3824 100.953 85.2434 100.997C84.6877 101.192 84.1486 101.492 83.615 101.82C82.5368 102.476 81.5476 103.315 80.2749 103.987C79.8414 104.21 79.3189 104.399 78.7187 104.41H78.3797L78.2296 104.115C78.1796 104.015 78.1407 103.893 78.1296 103.798C78.1296 103.709 78.1296 103.598 78.1407 103.532C78.1574 103.465 78.1741 103.398 78.1963 103.331L78.263 103.187C78.3575 103.015 78.4575 102.887 78.5575 102.77C78.7576 102.542 78.9577 102.353 79.1633 102.181C79.8914 101.564 80.6472 101.053 81.4031 100.541C81.7866 100.297 82.1534 100.025 82.5535 99.8134L83.1426 99.48C83.326 99.3577 83.515 99.2243 83.6706 99.1021L83.7929 99.919C83.3094 99.7467 82.5424 99.9357 81.8755 100.214C81.1919 100.497 80.5083 100.858 79.8191 101.22C79.4912 101.392 79.1578 101.57 78.8132 101.742C78.6353 101.825 78.4631 101.914 78.2741 101.992C78.0796 102.064 77.8906 102.153 77.5794 102.148C77.5071 102.148 77.4015 102.12 77.3071 102.087C77.257 102.059 77.207 102.025 77.1626 101.986C77.1403 101.986 77.0125 101.803 77.0181 101.725C77.0125 101.681 77.0069 101.642 77.0125 101.597L77.0236 101.52C77.0347 101.464 77.0458 101.436 77.0625 101.397C77.0903 101.325 77.1181 101.275 77.1459 101.225C77.257 101.031 77.3738 100.875 77.4905 100.719C77.7072 100.43 78.0296 100.052 78.074 99.9913C78.2074 99.8245 78.3408 99.6689 78.4353 99.5133C78.4575 99.48 78.4631 99.4188 78.4242 99.3855C78.3741 99.3688 78.3186 99.3855 78.2685 99.4022C78.1685 99.4411 78.0796 99.48 77.9907 99.5244L77.7294 99.6467L77.5516 99.7189L77.207 99.8523C76.7457 100.019 76.24 100.125 75.7064 100.119C75.3674 100.102 75.234 99.9968 75.2563 99.9413C75.2785 99.8746 75.4452 99.8245 75.6787 99.7189C75.9121 99.6134 76.2066 99.4411 76.5512 99.2077C76.7235 99.0909 76.918 98.9853 77.1237 98.8686C77.1848 98.8242 77.4404 98.7074 77.6683 98.5852C77.9073 98.4629 78.1574 98.3351 78.4075 98.2295C78.8577 98.0239 79.2411 97.9349 79.4357 97.985C79.5468 98.0016 79.6246 98.035 79.6969 98.0739C79.7747 98.1183 79.8358 98.1572 79.9414 98.2906C79.9636 98.324 79.9859 98.3573 80.0025 98.3851L80.0137 98.4073V98.4185L80.0248 98.424C80.0359 98.4185 79.9081 98.5018 79.9636 98.4685L79.9803 98.5185L80.0303 98.6408C80.0581 98.713 80.1026 98.7853 80.1026 98.8853C80.1026 99.0965 79.8969 99.4411 79.5913 99.8079L78.7187 100.858C78.5687 101.042 78.4186 101.225 78.2852 101.397C78.2185 101.486 78.1574 101.575 78.1074 101.653C78.0796 101.692 78.0629 101.725 78.0462 101.753C78.0462 101.759 78.0296 101.781 78.0351 101.775C78.0018 101.759 77.8962 101.72 77.8239 101.703C77.7461 101.681 77.7128 101.664 77.6461 101.653C77.5794 101.653 77.546 101.642 77.5127 101.642C77.4682 101.653 77.4571 101.653 77.4516 101.653H77.446L77.5683 101.542V101.525C77.5794 101.509 77.6072 101.447 77.6016 101.414C77.6127 101.358 77.6294 101.264 77.6238 101.192C77.6072 101.086 77.6238 101.125 77.6294 101.119C77.635 101.119 77.6405 101.119 77.6628 101.119C77.6961 101.114 77.7239 101.108 77.7683 101.097C78.124 101.003 78.552 100.742 78.9632 100.508C79.3801 100.269 79.8025 100.019 80.2471 99.7801C80.6917 99.5467 81.153 99.3355 81.6476 99.1465C82.1423 98.9687 82.6647 98.8075 83.2816 98.8019C83.5539 98.8019 83.8485 98.8408 84.143 98.9631L85.0767 99.3577L84.282 99.9079C84.0319 100.08 83.7984 100.197 83.5761 100.358L82.9203 100.836C82.4702 101.136 82.02 101.431 81.5754 101.736C81.1307 102.042 80.6973 102.359 80.286 102.687C79.8858 103.004 79.4468 103.376 79.2411 103.682C79.2133 103.709 79.2356 103.754 79.18 103.726C78.9855 103.682 78.9299 103.704 78.9132 103.709L78.7409 103.309C79.1689 103.337 79.708 103.092 80.2082 102.792C80.7139 102.487 81.2086 102.125 81.7199 101.764C82.7314 101.036 83.804 100.297 85.06 99.8468C85.1601 99.8023 85.2657 99.7801 85.3713 99.7523L85.7325 99.6578C86.0326 99.5689 86.3216 99.5856 86.6106 99.5633C86.7551 99.5578 86.8996 99.5411 87.0386 99.5411L87.4165 99.5911C87.661 99.63 87.9556 99.6356 88.0834 99.7467C88.2446 99.8468 88.4391 99.9024 88.5725 100.036C88.6059 100.152 88.5503 100.225 88.5225 100.302C88.4891 100.375 88.4391 100.447 88.3835 100.519C88.1946 100.808 87.7277 101.158 87.222 101.475L86.6551 101.836L86.216 102.103L85.4213 102.576L83.8318 103.509C82.7925 104.126 81.7365 104.782 80.9084 105.571C80.7917 105.688 80.6917 105.81 80.6194 105.916C80.5917 105.96 80.5639 106.021 80.5694 106.021C80.5972 106.021 80.4861 106.021 80.4916 106.021C80.4749 106.021 80.4527 106.021 80.436 106.021C80.3971 106.038 80.436 106.021 80.4472 106.016C80.4583 106.005 80.4638 105.994 80.4694 105.988L80.3193 106.094C80.3416 106.044 80.3638 105.988 80.3749 105.938C80.386 105.888 80.386 105.81 80.3805 105.832C80.3749 105.832 80.3527 105.832 80.3638 105.832L80.4638 105.799C80.525 105.788 80.6194 105.738 80.6972 105.71C80.8584 105.643 81.0307 105.56 81.1974 105.477L82.2089 104.954C82.887 104.604 83.5706 104.254 84.2764 103.937C84.6599 103.765 85.0378 103.593 85.4324 103.443C86.9274 102.898 87.5054 103.009 87.8722 103.209C87.9556 103.254 88.0612 103.293 88.1112 103.343C88.1946 103.42 88.0834 103.52 87.8333 103.659C87.6999 103.726 87.5443 103.809 87.3554 103.904C87.1664 104.004 86.9385 104.076 86.6884 104.182C85.7047 104.56 84.7155 105.004 83.7206 105.51C83.2204 105.766 82.7147 106.021 82.2089 106.277C81.9533 106.405 81.6921 106.538 81.4142 106.666C81.2808 106.733 81.1307 106.794 80.9696 106.861C80.9029 106.894 80.7806 106.927 80.675 106.955L80.5917 106.977L80.5472 106.988L80.4416 107C80.3027 107.011 80.1526 106.994 80.0192 106.961L79.8747 106.927L79.7524 106.805C79.6357 106.694 79.5301 106.544 79.469 106.399C79.419 106.255 79.3912 106.066 79.4023 105.938C79.4134 105.832 79.4412 105.721 79.4746 105.621C79.5023 105.543 79.5357 105.482 79.569 105.416C79.7024 105.171 79.8303 105.027 79.9581 104.882C80.2082 104.61 80.4583 104.393 80.7139 104.182C81.2197 103.771 81.7421 103.409 82.2701 103.059C83.4094 102.309 84.5598 101.686 85.6936 101.036L85.9048 100.914H85.9104L85.927 100.908L85.9659 100.892C86.0215 100.869 85.9771 100.853 85.9493 100.853L85.9826 100.819L86.0048 100.803Z" fill="#231F20"/>
<path d="M76.8181 114.491L80.7697 114.552C81.2532 114.563 81.7367 114.536 82.2202 114.552C83.9264 114.614 85.6382 114.752 87.3389 115.014C88.0947 115.141 88.8561 115.264 89.5953 115.475C90.5345 115.719 91.5349 116.097 92.1963 116.898C92.4019 117.137 92.3408 117.131 92.0629 117.092C91.785 117.037 91.257 117.07 90.7735 116.92C90.3233 116.82 89.8898 116.692 89.4452 116.575C88.9951 116.47 88.5393 116.386 88.078 116.309C87.1555 116.125 86.2106 115.986 85.2436 115.847C84.0876 115.686 82.8705 115.719 81.6756 115.708L77.7074 115.686L75.2509 115.669C74.0115 115.658 72.761 115.603 71.5161 115.508C70.5491 115.425 69.582 115.386 68.5872 115.075C68.3705 114.991 68.1537 114.914 67.937 114.797C67.7424 114.664 67.5813 114.569 67.4645 114.447C67.3534 114.319 67.2756 114.202 67.2256 114.102C67.1311 113.891 67.1644 113.713 67.2422 113.569C67.2811 113.502 67.3145 113.424 67.359 113.38C67.4423 113.302 67.5701 113.307 67.7091 113.352C67.7813 113.374 67.848 113.413 67.9258 113.452C68.0203 113.485 68.1148 113.524 68.2037 113.58C68.7817 113.88 69.5487 114.036 70.3545 114.152C71.1604 114.263 72.0163 114.33 72.8889 114.375C74.1782 114.436 75.501 114.458 76.8237 114.458V114.486L76.8181 114.491Z" fill="#231F20"/>
<path d="M96.2362 155.774C94.2632 156.758 92.1791 157.402 90.1005 158.002C89.3391 158.197 88.5721 158.391 87.8052 158.564C87.4661 158.636 87.1271 158.719 86.7881 158.781L85.7655 158.942L83.7203 159.258C82.3531 159.425 80.9803 159.553 79.6187 159.703C78.4015 159.775 77.1844 159.898 75.9784 159.998C75.2059 160.064 74.4278 160.081 73.6497 160.114C72.8716 160.142 72.0936 160.153 71.3155 160.07C70.8264 159.898 70.8931 159.959 71.2933 159.736C71.4933 159.614 71.7768 159.514 72.1214 159.392C72.4659 159.27 72.8716 159.175 73.3107 159.142L75.656 158.942C76.4341 158.842 77.2178 158.786 78.0014 158.714C79.5687 158.619 81.1248 158.397 82.6976 158.258C83.6425 158.18 84.5817 157.964 85.5321 157.786C86.488 157.625 87.4217 157.352 88.3554 157.119C88.8667 156.98 89.3891 156.885 89.8893 156.719L91.3954 156.241L92.1513 156.002C92.4014 155.913 92.6404 155.807 92.8849 155.713L94.3521 155.124C95.5192 154.568 96.6919 154.012 97.7645 153.29L98.387 152.9C98.5871 152.762 98.776 152.606 98.9706 152.456C99.354 152.156 99.7542 151.872 100.127 151.55L101.188 150.544C101.544 150.211 101.833 149.816 102.161 149.46C102.678 148.91 103.05 148.254 103.478 147.648C103.683 147.337 103.839 146.998 104.039 146.687C104.228 146.365 104.428 146.059 104.595 145.72C104.745 145.431 104.89 145.136 105.051 144.847C105.645 143.769 105.918 143.458 106.268 143.319C106.351 143.286 106.435 143.241 106.501 143.23C106.724 143.197 106.668 143.73 106.412 144.642C105.979 145.965 105.423 147.315 104.634 148.571C104.211 149.177 103.834 149.827 103.328 150.388C103.089 150.677 102.844 150.972 102.594 151.25C102.344 151.533 102.05 151.778 101.777 152.039C100.982 152.839 100.054 153.484 99.1484 154.145C98.1925 154.729 97.2532 155.34 96.2417 155.796L96.2251 155.768L96.2362 155.774Z" fill="#231F20"/>
<path d="M159.022 144.97C160.495 142.808 161.651 140.401 162.568 137.906C162.885 136.989 163.185 136.061 163.452 135.127C164.469 131.842 165.141 128.447 165.641 125.018C165.853 123.495 165.986 121.955 166.108 120.432C166.175 119.454 166.242 118.471 166.308 117.492C166.353 116.509 166.508 115.531 166.62 114.547C166.725 113.924 166.753 114.024 166.825 114.547C166.875 114.853 166.942 115.219 167.009 115.625C167.047 115.858 167.086 116.097 167.125 116.353C167.148 116.481 167.159 116.614 167.181 116.753C167.181 116.892 167.186 117.031 167.192 117.17C167.286 121.211 166.92 125.268 166.108 129.28C165.614 131.676 165.13 134.177 164.391 136.578C163.579 139.212 162.524 141.791 161.14 144.197C160.317 145.692 159.283 147.076 158.172 148.382C156.455 150.333 154.315 151.945 151.953 153.006C150.135 153.884 148.185 154.368 146.201 154.629C145.762 154.668 145.334 154.718 144.889 154.735C143.244 154.746 142.733 154.468 142.421 154.118C142.349 154.034 142.255 153.956 142.216 153.879C142.155 153.751 142.288 153.651 142.583 153.545C142.877 153.445 143.327 153.323 143.894 153.317C147.245 153.156 150.669 152.367 153.565 150.472C155.704 149.066 157.522 147.143 158.983 144.953L159.017 144.97H159.022Z" fill="#231F20"/>
<path d="M225.986 99.7022C227.12 95.7396 228.004 91.6825 228.709 87.5976C228.971 86.1081 229.171 84.602 229.404 83.107C230.227 77.8272 230.816 72.5029 231.166 67.1619C231.322 64.7888 231.383 62.4045 231.411 60.0481C231.411 58.5364 231.422 57.0191 231.427 55.5019L231.483 53.2288C231.494 52.473 231.566 51.7115 231.594 50.9501C231.644 50.0053 231.722 50.122 231.95 50.9168C232.072 51.3503 232.228 51.9116 232.411 52.5619C232.578 53.2455 232.717 54.0569 232.8 54.935C232.833 55.3241 232.872 55.7131 232.894 56.1021L232.928 57.2692L232.961 59.609C232.978 61.1707 232.933 62.7269 232.878 64.2886C232.761 67.4065 232.544 70.5299 232.205 73.6533C231.8 77.3881 231.494 81.284 230.949 85.091C230.343 89.276 229.515 93.4332 228.482 97.5403C227.837 100.069 227.103 102.576 226.247 105.038C224.947 108.767 223.335 112.435 221.195 115.775C219.534 118.348 217.6 120.799 214.96 122.544C214.371 122.911 213.782 123.256 213.137 123.539C211.936 124.045 211.08 124.239 210.475 124.239C209.869 124.278 209.508 124.173 209.219 124.012C209.085 123.939 208.919 123.873 208.841 123.795C208.58 123.511 209.563 123.233 211.125 122.572C212.292 122.111 213.387 121.466 214.398 120.688C215.421 119.932 216.371 119.043 217.238 118.059C218.972 116.081 220.423 113.763 221.646 111.301C223.463 107.644 224.841 103.709 225.953 99.7022H225.997H225.986Z" fill="#231F20"/>
<path d="M82.4803 106.905C81.9912 107.105 81.5021 107.311 81.0186 107.527C80.8407 107.605 80.6796 107.711 80.5017 107.789C79.8737 108.061 79.2457 108.322 78.6232 108.611C78.3453 108.734 78.0786 108.872 77.8174 109.017C77.6506 109.111 77.4783 109.206 77.3116 109.3C77.1338 109.378 76.9448 109.428 76.7503 109.478C76.628 109.506 76.5947 109.417 76.6225 109.261C76.6558 109.111 76.7225 108.856 76.8837 108.683C77.5228 108.217 78.173 107.772 78.9233 107.494C79.368 107.316 79.7681 107.027 80.196 106.799L81.6133 106.06L82.4969 105.616C82.9415 105.388 83.4084 105.182 83.8475 104.949C84.1865 104.765 84.4866 104.521 84.8034 104.304C84.8701 104.254 84.9368 104.204 85.0146 104.165C85.2869 104.009 85.4481 104.115 85.6315 104.348C85.6759 104.404 85.7204 104.454 85.7593 104.51C85.8816 104.693 85.8538 104.932 85.7037 105.154C85.2091 105.688 84.5533 105.982 83.9308 106.294C83.4529 106.505 82.9749 106.722 82.4969 106.933L82.4803 106.905Z" fill="#231F20"/>
<path d="M102.756 151.667C102.756 151.667 106.563 154.573 119.207 154.901C131.85 155.235 141.537 153.884 141.537 153.884C141.537 153.884 134.779 151.678 134.779 143.514C134.779 135.349 138.381 129.341 137.219 120.521C136.058 111.701 135.363 106.088 131.1 103.354C126.832 100.619 122.808 101.069 120.179 103.515C117.55 105.96 114.438 107.066 111.426 120.521C108.414 133.977 108.48 141.096 106.107 145.726C103.734 150.355 102.767 151.661 102.767 151.661L102.756 151.667Z" fill="#231F20"/>
<path d="M166.614 121.744C166.614 121.744 191.646 123.984 199.41 121.405C199.41 121.405 195.064 117.804 195.653 111.134C196.242 104.465 197.565 85.3412 194.113 77.9106C190.668 70.48 189.062 68.5626 183.971 69.5074C178.885 70.4522 173.483 70.5133 169.36 84.4075C166.542 93.9223 168.498 115.075 167.275 118.409C166.053 121.744 166.608 121.744 166.608 121.744H166.614Z" fill="#231F20"/>
<path d="M156.5 18.5H149.5L148 20V22L149 24L149.5 29V34L152 34.5H157.5L162.5 36.5L163 36L164 34.5L164.5 31.5L164 25.5L163.5 22L163 21L156.5 18.5Z" fill="#FA5757" fill-opacity="0.34"/>
<path d="M153.276 27.48C154.759 26.2573 156.288 25.1291 157.755 23.962C158.466 23.3784 159.228 22.7671 159.773 22.1891C159.834 22.1224 159.889 22.0557 159.923 22.0112L159.939 21.9834C160 22.0168 160.067 22.0501 160.134 22.0779C160.267 22.1335 160.334 22.178 160.451 22.2002C160.528 22.228 160.606 22.2335 160.651 22.228C160.762 22.2058 160.651 22.2113 160.623 22.3447C160.606 22.3836 160.59 22.4281 160.584 22.467C160.584 22.5059 160.573 22.5503 160.556 22.6226C160.528 22.7393 160.539 22.8949 160.528 22.9838H160.267C159.906 23.0061 159.522 23.095 159.139 23.2284C158 23.6341 156.91 24.4177 155.838 25.2069C155.36 25.557 154.893 25.9239 154.42 26.3018L153.715 26.8687L153.359 27.1577L152.97 27.4856C152.186 28.1525 151.319 28.7972 150.636 29.0362C150.308 29.1418 150.008 29.2029 149.724 29.1918C149.452 29.1918 149.102 29.0751 148.852 28.7749C148.635 28.5137 148.613 28.1247 148.602 27.7912C148.602 27.4467 148.674 27.0965 148.796 26.7353C149.041 26.0183 149.602 25.2347 150.274 24.5455C150.547 24.2677 150.747 24.0843 150.997 23.8619C151.236 23.6508 151.475 23.4507 151.719 23.2506C152.203 22.856 152.703 22.4892 153.203 22.1335C154.093 21.4999 154.993 20.8886 155.832 20.255C156.038 20.0994 156.243 19.9382 156.421 19.777C156.51 19.6992 156.594 19.6159 156.655 19.5492C156.688 19.5158 156.71 19.4825 156.716 19.4658C156.749 19.488 156.833 19.5214 156.871 19.5381C156.91 19.5603 156.955 19.5714 156.999 19.5825C157.038 19.5936 157.055 19.5992 157.094 19.5992C157.144 19.5992 157.16 19.5881 157.149 19.5992L157.038 19.677L157.033 19.6826L157.021 19.6937C157.021 19.6937 157.01 19.7103 157.005 19.7159C156.988 19.7381 156.944 19.7937 156.933 19.8382C156.933 19.8549 156.916 19.8882 156.894 19.9327C156.871 19.9827 156.888 19.9493 156.883 19.9604C156.871 19.9549 156.782 19.9493 156.694 19.9549C156.499 19.9716 156.271 20.016 156.038 20.0883C154.837 20.4551 153.659 21.1554 152.559 21.8723C151.447 22.6004 150.447 23.4729 149.502 24.3955C148.935 24.9846 148.802 24.8068 148.991 24.0231C149.157 23.2284 149.858 21.8834 151.18 20.8219C152.342 19.8771 153.609 19.099 155.087 18.5432C155.465 18.4098 155.854 18.282 156.332 18.2098C156.588 18.182 156.844 18.1486 157.249 18.2209C157.372 18.2487 157.477 18.2765 157.605 18.332C157.761 18.4098 157.877 18.4654 158.033 18.6099C158.105 18.6822 158.177 18.7544 158.239 18.8378C158.311 18.9267 158.422 19.149 158.45 19.2991C158.489 19.4658 158.494 19.6492 158.478 19.7604C158.472 19.8215 158.461 19.8938 158.444 19.9493L158.405 20.0772C158.283 20.3995 158.166 20.5329 158.072 20.6552C157.977 20.7719 157.888 20.8608 157.805 20.9442C157.638 21.1053 157.488 21.2387 157.338 21.3665C157.038 21.6166 156.744 21.8334 156.455 22.0501C155.293 22.8949 154.165 23.6897 153.087 24.5122C152.814 24.7178 152.553 24.9235 152.297 25.1347L151.92 25.457L151.608 25.7349C151.503 25.8071 151.369 25.9127 151.241 26.0961C151.169 26.2017 151.108 26.3351 151.103 26.4741C151.08 26.6408 151.258 26.6686 151.353 26.6186C151.575 26.5352 151.792 26.3518 152.003 26.1795L152.225 26.0017C152.314 25.935 152.392 25.8627 152.475 25.796L152.975 25.3736L153.987 24.5289C154.671 23.9731 155.382 23.4229 156.138 22.9283C156.971 22.3892 157.855 21.8778 158.883 21.5611C159.395 21.4054 159.945 21.2943 160.528 21.311C160.562 21.311 160.595 21.311 160.673 21.3165C160.74 21.3276 160.784 21.3221 160.89 21.3554C161.017 21.3777 161.395 21.5333 161.534 21.9223C161.562 22.0057 161.579 22.0946 161.584 22.178C161.584 22.2558 161.584 22.3002 161.573 22.3614C161.557 22.4948 161.529 22.5392 161.507 22.617C161.457 22.7449 161.401 22.8338 161.356 22.906C161.162 23.2006 160.984 23.3729 160.795 23.5618C160.067 24.2788 159.328 24.8734 158.583 25.4848L156.377 27.3022C155.476 28.0469 154.587 28.7972 153.715 29.5586C152.853 30.32 151.997 31.1092 151.319 31.9651C151.136 32.1985 150.969 32.443 150.852 32.6764C150.725 32.9043 150.702 33.1322 150.713 33.1544L150.397 33.0321C150.397 33.0321 150.436 32.9543 150.436 32.8487C150.447 32.8487 150.475 32.8487 150.53 32.8376C150.63 32.8154 150.769 32.7598 150.908 32.6876C151.186 32.5431 151.48 32.3541 151.764 32.154C152.336 31.7539 152.903 31.3037 153.47 30.8535C154.609 29.9587 155.727 29.0139 156.999 28.2192C157.594 27.8413 158.216 27.5022 158.856 27.1966C158.933 27.1577 159.017 27.1188 159.094 27.0854L159.383 26.9576C159.617 26.8575 159.845 26.7853 160.078 26.7019C160.545 26.5407 161.012 26.4407 161.44 26.3907C161.857 26.3685 162.24 26.3907 162.551 26.5408C162.629 26.5797 162.701 26.6352 162.779 26.6964C162.84 26.7686 162.946 26.8409 162.952 26.9242L163.029 27.1743C163.046 27.2577 163.002 27.3633 162.985 27.4522C162.907 27.8357 162.801 28.1803 162.562 28.5749C162.479 28.7638 162.296 28.9639 162.157 29.164C162.018 29.3641 161.829 29.5586 161.64 29.7531L161.395 30.0143C161.312 30.1088 161.223 30.181 161.179 30.2255L160.84 30.5367C160.612 30.7368 160.384 30.9369 160.15 31.1258C158.394 32.5319 157.961 32.8598 157.405 33.0266C157.288 33.0655 157.16 33.1655 157.055 33.21C156.966 33.2433 156.905 33.2211 156.877 33.1099C156.849 33.0044 156.844 32.7765 156.933 32.5597C157.083 32.0762 157.505 31.4982 158.089 30.8924C158.516 30.4534 158.944 30.0199 159.378 29.5753C159.589 29.3585 159.795 29.1417 159.995 28.925C160.062 28.8527 160.067 28.8528 160.067 28.8416L160.084 28.8083C160.084 28.8083 160.106 28.7694 160.112 28.7527C160.145 28.6805 160.15 28.6304 160.128 28.5915C160.095 28.5471 159.984 28.6027 159.956 28.6193C159.934 28.6304 159.917 28.6416 159.906 28.6527L159.895 28.6638C159.811 28.6971 159.645 28.7749 159.528 28.8305C159.006 29.0806 158.489 29.3641 157.988 29.6808C157.483 29.9976 157.016 30.3311 156.527 30.709C156.038 31.0869 155.549 31.4815 155.054 31.8872C154.415 32.4041 153.781 32.9321 153.081 33.449C152.725 33.7102 152.364 33.9658 151.92 34.2215C151.692 34.3438 151.453 34.4716 151.108 34.5827C150.919 34.6328 150.736 34.6883 150.43 34.6883C150.147 34.6883 149.73 34.6105 149.38 34.3326L149.08 34.0992L148.963 33.7546C148.841 33.3823 148.846 33.0433 148.885 32.7598C148.929 32.493 149.002 32.2652 149.08 32.0818C149.241 31.6983 149.424 31.4093 149.613 31.1425C149.985 30.609 150.38 30.1755 150.78 29.7531C151.58 28.9194 152.409 28.1803 153.242 27.4522L153.276 27.4856V27.48Z" fill="#231F20"/>
<path d="M105.406 76.4377L110.591 76.5489C111.219 76.56 111.853 76.5378 112.481 76.5655C114.698 76.6545 116.921 76.7823 119.133 76.9046C120.117 76.9546 121.106 77.0046 122.079 77.0268C122.707 77.0435 123.335 77.0546 123.963 77.1158C124.274 77.1491 124.591 77.1658 124.902 77.2325C125.213 77.3047 125.519 77.3714 125.836 77.4437C126.219 77.5437 126.164 77.6271 125.825 77.7938C125.658 77.8772 125.413 77.9883 125.124 78.1106C124.98 78.1662 124.824 78.244 124.658 78.2829C124.491 78.3162 124.319 78.344 124.135 78.3551C121.573 78.5052 119.033 78.3551 116.46 78.1161C114.926 77.9716 113.32 78.0217 111.747 77.9883C110.019 77.955 108.285 77.9216 106.551 77.9105C105.484 77.905 104.416 77.8994 103.349 77.9105C101.738 77.9272 100.109 77.9439 98.5086 78.0272C97.2637 78.0884 96.0466 78.244 94.8239 78.3662C94.5516 78.394 94.2903 78.4163 94.018 78.4274C93.7624 78.4329 93.5567 78.4329 93.3789 78.4274C93.201 78.4107 93.0565 78.3662 92.9343 78.3329C92.6953 78.2551 92.5508 78.1606 92.4341 78.0272C92.3785 77.9661 92.3118 77.9105 92.2785 77.8549C92.1729 77.6826 92.573 77.4548 93.3011 77.2047C94.3904 76.9379 95.5242 76.7934 96.669 76.6823C97.8195 76.5711 98.9866 76.4933 100.154 76.4599C101.893 76.3988 103.644 76.3933 105.384 76.3877V76.4266L105.406 76.4377Z" fill="#231F20"/>
<path d="M99.859 82.868L103.949 83.0014C104.444 83.0181 104.944 83.0014 105.439 83.0292C107.19 83.107 108.94 83.1793 110.691 83.2293C111.469 83.2571 112.247 83.2515 113.02 83.246C113.514 83.246 114.009 83.2126 114.504 83.2348C114.998 83.2571 115.498 83.3015 115.993 83.346C116.304 83.3793 116.265 83.4405 116.004 83.5461C115.748 83.6461 115.27 83.8462 114.698 83.9518C113.687 84.0907 112.675 84.1074 111.658 84.1518C110.641 84.1963 109.624 84.1796 108.607 84.1241C107.384 84.0629 106.117 84.1241 104.866 84.1185C103.494 84.1185 102.121 84.0796 100.748 84.0462L98.2139 83.9962C96.9357 83.9796 95.6518 83.9573 94.3847 83.9851C93.401 84.0074 92.4339 84.1185 91.4613 84.1741C91.2446 84.1852 91.039 84.2074 90.8222 84.213C90.6221 84.2185 90.4554 84.2185 90.3165 84.213C90.1775 84.1963 90.0608 84.1574 89.9719 84.1296C89.7829 84.0574 89.6773 83.974 89.5828 83.8573C89.5439 83.8017 89.4884 83.7517 89.4661 83.7017C89.3828 83.5461 89.7051 83.3627 90.2887 83.1848C92.0282 82.8736 93.8734 82.8402 95.7241 82.818C97.0968 82.8069 98.4751 82.8347 99.8535 82.8458V82.8736L99.859 82.868Z" fill="#231F20"/>
<path d="M93.1802 87.5365C93.8805 87.5587 94.5863 87.6143 95.2866 87.6754C95.5422 87.6921 95.7979 87.6865 96.0535 87.7143C96.9483 87.8088 97.8487 87.9033 98.7435 87.9977C99.1436 88.0366 99.5382 88.07 99.9328 88.1089C100.439 88.1478 100.944 88.1923 101.444 88.2979C101.6 88.3312 101.572 88.409 101.433 88.4979C101.294 88.5813 101.039 88.6924 100.75 88.7091C100.233 88.7369 99.7161 88.7703 99.1992 88.7814C98.6823 88.798 98.171 88.7425 97.6541 88.698C97.0372 88.6313 96.387 88.6813 95.7534 88.6813C95.0587 88.6758 94.3584 88.6813 93.6637 88.6647C93.2358 88.6591 92.8023 88.6535 92.3743 88.6591C91.7241 88.6702 91.0683 88.6702 90.4291 88.7258C89.929 88.7758 89.4454 88.8981 88.9564 88.9703C88.8508 88.987 88.7396 88.9981 88.634 88.9981C88.2227 88.9981 88.0894 88.9203 87.9782 88.6813C87.956 88.6258 87.9226 88.5757 87.906 88.5202C87.8504 88.3423 88.0004 88.1645 88.295 88.0311C89.1564 87.592 90.1124 87.5698 91.0627 87.5198C91.7686 87.492 92.4799 87.5031 93.1913 87.5087V87.5365H93.1802Z" fill="#231F20"/>
<path d="M68.3359 112.618L68.3192 112.935V113.013C68.3192 113.013 68.3137 113.024 68.3137 113.03C68.3137 113.035 68.297 113.052 68.3137 113.057C68.2803 113.091 68.3026 113.124 68.3248 113.141C68.3637 113.163 68.3081 113.163 68.586 113.224C69.0139 113.319 69.5197 113.363 70.0199 113.402C71.0369 113.469 72.0873 113.48 73.1377 113.485L75.6887 113.435C78.6954 113.441 81.7299 113.48 84.7533 113.758C86.0927 113.874 87.4488 113.997 88.7771 114.191C90.4777 114.425 92.2562 114.775 93.7179 115.814C94.1569 116.159 94.0513 116.186 93.5567 116.209C93.0509 116.242 92.1617 116.37 91.2447 116.22C89.6163 115.909 87.9657 115.625 86.2706 115.464C84.581 115.286 82.8637 115.186 81.1353 115.058C79.0622 114.897 76.8947 115.019 74.7495 115.036C73.5712 115.042 72.3875 115.047 71.1981 115.014C70.6034 114.997 70.0032 114.969 69.3919 114.908C69.0862 114.875 68.7805 114.836 68.4637 114.78C68.3026 114.747 68.1469 114.714 67.9746 114.664C67.7579 114.597 67.5411 114.514 67.3522 114.402C67.1688 114.291 67.002 114.147 66.8909 113.958C66.8353 113.863 66.802 113.763 66.7797 113.658C66.7631 113.552 66.7686 113.441 66.752 113.341L66.8131 112.335C66.8298 112.04 66.8353 111.74 66.8853 111.446C66.9687 110.857 67.0076 110.262 67.1466 109.678C67.5689 107.466 68.3804 105.31 69.6031 103.432C70.5367 101.97 71.6094 100.608 72.9265 99.48C73.2267 99.2466 73.499 98.9909 73.8213 98.7797C74.3993 98.3685 74.8217 98.1517 75.133 98.035C75.4609 97.9405 75.6721 97.9405 75.8721 97.9905C75.9611 98.0128 76.0722 98.0239 76.1333 98.0572C76.339 98.1573 75.961 98.6297 75.2108 99.2688C74.6439 99.7301 74.1103 100.23 73.599 100.753C73.0766 101.264 72.5653 101.792 72.1096 102.364C71.1759 103.498 70.3867 104.76 69.7976 106.121C68.8972 108.133 68.4637 110.356 68.3804 112.607H68.3415L68.3359 112.618Z" fill="#231F20"/>
<path d="M97.5583 104.738C97.1415 105.282 96.7358 105.843 96.4023 106.449C96.2801 106.672 96.1911 106.905 96.0855 107.133C95.8855 107.527 95.7076 107.933 95.5075 108.339C95.3352 108.756 95.1741 109.178 95.0629 109.617C95.0018 109.812 94.974 110.012 94.9351 110.206C94.9018 110.406 94.8573 110.601 94.8406 110.801C94.8073 111.312 94.7517 111.829 94.6183 112.352C94.5738 112.513 94.4738 112.502 94.3349 112.363C94.2015 112.229 93.9792 111.968 93.8847 111.651C93.7735 111.09 93.7624 110.518 93.7902 109.945C93.8625 109.378 93.9903 108.811 94.2015 108.278C94.3182 107.955 94.4293 107.622 94.5294 107.288C94.6405 106.955 94.7795 106.633 94.924 106.31C95.2741 105.627 95.6632 104.965 96.1133 104.354C96.3745 103.965 96.6747 103.615 96.9581 103.248C97.4027 102.709 97.8862 102.198 98.342 101.681C98.6976 101.281 98.9867 100.825 99.3423 100.43C99.4202 100.341 99.498 100.258 99.5813 100.175C99.7481 100.03 99.8648 99.9468 99.9926 99.9357C100.137 99.9412 100.254 99.9857 100.382 100.058C100.443 100.091 100.504 100.119 100.548 100.152C100.626 100.214 100.665 100.302 100.676 100.43C100.687 100.558 100.698 100.747 100.609 100.875C100.182 101.753 99.5091 102.409 98.9088 103.131C98.4476 103.654 98.0029 104.193 97.5861 104.749L97.5583 104.732V104.738Z" fill="#231F20"/>
<path d="M88.8546 103.832C87.4207 104.371 86.048 105.049 84.6585 105.76C84.1472 106.016 83.6637 106.321 83.1413 106.583C82.7856 106.799 82.3521 106.877 81.9464 107.055C81.7407 107.138 81.5184 107.222 81.2517 107.272C80.9905 107.322 80.607 107.294 80.3235 107.122C79.1564 106.344 78.4506 105.232 77.8448 104.165C77.3946 103.381 76.9389 102.614 76.3887 101.953C75.6884 101.092 74.8548 100.414 73.9044 99.7578C73.6098 99.5466 73.6432 99.58 73.9544 99.6244C74.2545 99.6744 74.9048 99.6633 75.555 99.9968L75.9608 100.247L76.3442 100.53C76.611 100.714 76.8222 100.947 77.0389 101.181C77.4502 101.659 77.8115 102.159 78.1338 102.67C78.7785 103.687 79.312 104.693 80.0068 105.504C80.129 105.649 80.268 105.766 80.4013 105.899C80.5403 106.016 80.7126 106.132 80.8404 106.221C80.8849 106.333 81.3851 106.199 81.7797 105.938C82.1576 105.627 82.6022 105.377 83.0301 105.099C84.364 104.232 85.809 103.47 87.2873 102.815C88.1988 102.409 89.1269 102.053 90.0662 101.725C91.4889 101.236 92.9562 100.864 94.4067 100.525C95.5349 100.252 96.6465 99.9968 97.7802 99.8134C98.0303 99.78 98.2749 99.73 98.5305 99.7189C99.4753 99.6744 99.7866 99.7856 100.003 100.086C100.053 100.158 100.12 100.225 100.148 100.291C100.253 100.519 99.8866 100.764 99.2308 100.953C98.2638 101.275 97.2689 101.47 96.2797 101.747C95.785 101.881 95.2848 101.992 94.7791 102.092C94.2789 102.214 93.7732 102.32 93.273 102.453C91.7835 102.826 90.3107 103.287 88.8824 103.859L88.8657 103.826L88.8546 103.832Z" fill="#231F20"/>
<path d="M83.7152 108.834C83.8542 109.023 83.9987 109.206 84.1599 109.384C84.221 109.45 84.2988 109.489 84.3599 109.556C84.5711 109.789 84.7879 110.034 85.0157 110.262C85.1158 110.362 85.2381 110.445 85.3548 110.523C85.5104 110.623 85.6827 110.695 85.7716 110.879C85.8272 110.996 85.2158 111.523 85.0435 111.418C84.7379 111.223 84.4655 110.996 84.2321 110.684C84.0932 110.495 83.882 110.401 83.7041 110.245C83.5096 110.078 83.3206 109.901 83.1428 109.706C83.0316 109.589 82.9261 109.467 82.8149 109.35C82.6593 109.167 82.5037 108.984 82.348 108.8C82.2202 108.667 82.0646 108.561 81.9201 108.439C81.8868 108.411 81.8479 108.395 81.8367 108.35C81.7812 108.206 81.8201 108.117 81.9646 107.967L82.0646 107.867C82.1758 107.766 82.3203 107.733 82.4648 107.75C82.7037 107.766 82.8149 107.872 82.9594 107.955C83.0872 108.05 83.2262 108.139 83.3151 108.261C83.4596 108.439 83.593 108.622 83.7375 108.8L83.7208 108.817L83.7152 108.834Z" fill="#231F20"/>
<path d="M128.287 155.857C126.247 155.946 124.196 155.968 122.146 155.979C121.395 155.968 120.645 155.996 119.9 155.979C117.26 155.863 114.626 155.624 112.02 155.19L110.291 154.873C109.713 154.768 109.135 154.684 108.574 154.545C107.846 154.384 107.107 154.24 106.395 154.018C105.684 153.784 104.978 153.523 104.289 153.239C103.861 153.062 103.983 152.895 104.422 152.789C104.861 152.695 105.623 152.623 106.445 152.784C107.924 153 109.352 153.373 110.825 153.573L111.92 153.762C112.286 153.817 112.659 153.851 113.026 153.912C113.765 154.018 114.498 154.162 115.249 154.245C116.138 154.357 117.055 154.451 117.977 154.451C118.9 154.479 119.828 154.49 120.751 154.479C122.779 154.501 124.813 154.423 126.853 154.34C128.109 154.273 129.36 154.206 130.616 154.118C132.516 153.99 134.434 153.867 136.323 153.701C137.796 153.573 139.23 153.362 140.697 153.234C141.02 153.206 141.331 153.156 141.659 153.156C142.87 153.112 143.259 153.295 143.515 153.678C143.576 153.767 143.648 153.856 143.687 153.945C143.798 154.234 143.315 154.512 142.448 154.679C139.886 155.068 137.185 155.257 134.445 155.49C132.411 155.651 130.36 155.802 128.298 155.907V155.868L128.287 155.857Z" fill="#231F20"/>
<path d="M188.256 123.578C186.622 123.6 184.988 123.645 183.348 123.639C182.748 123.639 182.153 123.684 181.553 123.673C179.441 123.628 177.324 123.567 175.217 123.339C174.284 123.267 173.344 123.156 172.416 123.078C171.822 122.995 171.221 122.944 170.632 122.822C170.043 122.694 169.465 122.528 168.893 122.355C168.537 122.244 168.615 122.128 168.954 122.022C169.293 121.922 169.899 121.788 170.571 121.822C171.171 121.822 171.766 121.866 172.361 121.922L174.145 122.027C175.34 122.089 176.535 122.127 177.746 122.222C179.191 122.339 180.703 122.222 182.187 122.178L187.105 122.033L190.14 121.933C191.674 121.877 193.219 121.861 194.742 121.8C195.931 121.766 197.092 121.633 198.276 121.6C198.537 121.6 198.793 121.577 199.054 121.594C200.027 121.644 200.333 121.788 200.51 122.194C200.549 122.289 200.605 122.378 200.627 122.472C200.699 122.772 200.288 123.022 199.588 123.106C199.071 123.161 198.543 123.222 198.021 123.283C197.493 123.322 196.965 123.328 196.425 123.361C195.353 123.406 194.264 123.434 193.169 123.467C191.535 123.517 189.895 123.567 188.256 123.617V123.578Z" fill="#231F20"/>
<path d="M44.3388 113.246C45.8283 110.178 47.6846 107.2 50.2355 104.782C50.5579 104.482 50.8691 104.176 51.197 103.887L52.2419 103.081L52.7643 102.681L53.3256 102.331C53.7035 102.109 54.0648 101.853 54.4538 101.653C55.9933 100.814 57.6162 100.191 59.2501 99.6689C61.651 98.9464 64.0964 98.4517 66.5474 98.1738C70.8713 97.6848 75.2007 97.657 79.4968 97.7959C83.7985 97.9293 88.0723 98.2516 92.3406 98.574C96.1254 98.8685 99.9324 99.1186 103.684 99.302C108.508 99.5521 113.315 99.4854 118.106 99.4354C118.862 99.4743 119.201 99.5244 119.19 99.6022C119.179 99.68 118.829 99.8022 118.217 100.08C117.006 100.669 114.633 101.397 111.804 101.47C106.791 101.558 101.833 101.264 96.8979 100.869C91.9627 100.48 87.033 100.03 82.0867 99.7189C76.1788 99.3632 69.982 99.4521 64.0853 100.458C63.2683 100.58 62.4791 100.786 61.6788 100.947L60.495 101.264L59.9059 101.425L59.3279 101.62C57.7662 102.086 56.2879 102.764 54.8873 103.543L53.8647 104.171C53.5424 104.404 53.2256 104.654 52.9032 104.893C52.2419 105.349 51.6917 105.949 51.0914 106.488C50.8024 106.766 50.5468 107.088 50.2745 107.383C50.0132 107.689 49.7187 107.978 49.4853 108.311C48.9962 108.961 48.4849 109.6 48.0625 110.301C47.49 111.129 47.0176 112.024 46.523 112.907C46.0784 113.819 45.606 114.714 45.2225 115.658C44.8001 116.586 44.4555 117.542 44.0887 118.493C43.7608 119.46 43.4218 120.421 43.1384 121.399C42.238 124.362 41.5378 127.396 40.9375 130.453C40.3484 133.537 39.5703 136.605 38.4366 139.54C37.5807 141.824 36.5136 144.025 35.152 146.048C33.7959 148.071 32.1286 149.916 30.1111 151.367C29.6554 151.667 29.233 152.011 28.7551 152.272C28.2715 152.528 27.7936 152.784 27.3045 153.039C26.3597 153.428 25.5538 153.729 24.8591 153.884C24.1589 154.018 23.5975 154.118 23.1307 154.168C22.1859 154.218 21.6301 154.073 21.1966 153.945C20.9965 153.884 20.7409 153.84 20.6242 153.795C20.4296 153.712 20.7353 153.584 21.4078 153.334C21.7413 153.201 22.1803 153.084 22.6916 152.956C23.1918 152.767 23.7809 152.584 24.4367 152.384C26.343 151.678 28.1771 150.761 29.7832 149.471C31.395 148.193 32.751 146.57 33.9182 144.808C35.0853 143.041 36.0523 141.107 36.8193 139.073C37.5974 137.044 38.2198 134.932 38.7033 132.782L39.1924 130.364C39.348 129.536 39.5092 128.702 39.6815 127.874C40.0261 126.212 40.404 124.556 40.8486 122.911C41.7267 119.615 42.8105 116.347 44.2999 113.23L44.3444 113.241L44.3388 113.246Z" fill="#231F20"/>
<path d="M175.011 73.9646C173.044 76.082 171.693 78.8109 170.665 81.6286C170.432 82.3456 170.176 83.0625 169.959 83.7794L169.67 84.8632L169.431 85.9636C169.137 87.442 168.909 88.9536 168.759 90.482C168.137 96.601 168.175 102.859 168.042 109.117C167.92 115.375 167.736 121.672 166.953 127.958C166.558 131.098 165.991 134.232 165.146 137.311C164.735 138.856 164.207 140.373 163.635 141.874C163.001 143.363 162.362 144.82 161.49 146.242C160.217 148.299 158.544 150.105 156.593 151.528C154.631 152.95 152.397 153.962 150.063 154.557L149.163 154.757C148.862 154.812 148.568 154.846 148.273 154.89C147.695 154.962 147.112 155.04 146.517 155.085C145.333 155.185 144.116 155.201 142.877 155.023C141.643 154.862 140.387 154.462 139.27 153.773C138.986 153.612 138.736 153.401 138.47 153.212C138.231 152.995 137.969 152.789 137.753 152.55L137.114 151.828C136.891 151.594 136.747 151.305 136.563 151.044C135.93 150.105 135.546 149.055 135.235 148.01C134.974 146.959 134.79 145.892 134.735 144.842C134.596 142.735 134.74 140.668 134.957 138.645C135.179 136.622 135.48 134.632 135.685 132.665C135.891 130.675 136.069 128.691 136.18 126.707C136.385 122.744 136.363 118.754 135.757 114.88C135.457 112.946 135.002 111.04 134.29 109.261C133.935 108.372 133.518 107.516 133.001 106.733C132.506 105.938 131.906 105.221 131.222 104.615C129.889 103.365 128.11 102.653 126.32 102.459C124.525 102.325 122.708 102.842 121.152 103.882C120.752 104.115 120.39 104.426 120.012 104.704C119.662 105.021 119.29 105.321 118.962 105.666C118.284 106.333 117.667 107.077 117.106 107.861C116.539 108.639 116.055 109.462 115.6 110.334C115.144 111.196 114.733 112.085 114.36 112.996C112.865 116.631 111.971 120.521 111.259 124.451C110.548 128.38 110.031 132.37 109.308 136.35C108.653 139.873 107.858 143.43 106.424 146.815C105.007 150.177 102.8 153.356 99.6769 155.474C96.5479 157.524 93.0188 158.614 89.5119 159.425C85.9883 160.214 82.4258 160.642 78.8744 160.931C74.3116 161.304 69.732 161.37 65.1636 161.298C60.5952 161.226 56.0268 161.004 51.4695 160.665C46.9177 160.32 42.3715 159.892 37.842 159.342C33.318 158.786 28.8052 158.141 24.3146 157.43C18.718 156.496 19.5072 156.385 24.3035 156.73C26.7044 156.902 30.1001 157.152 34.2073 157.447C36.2581 157.591 38.4867 157.747 40.8543 157.913C43.2163 158.091 45.7173 158.28 48.3238 158.475C52.9367 158.819 57.5551 159.058 62.1736 159.17C66.7865 159.281 71.3994 159.247 75.99 158.997C80.5751 158.753 85.1491 158.28 89.5563 157.269C93.9302 156.241 98.2986 154.712 101.116 151.5C102.578 149.933 103.673 148.015 104.557 145.987C105.435 143.953 106.052 141.768 106.574 139.556C107.602 135.11 108.169 130.492 108.964 125.868C109.759 121.249 110.72 116.553 112.599 112.096L112.954 111.262L113.349 110.445C113.599 109.895 113.899 109.367 114.188 108.834C114.772 107.755 115.483 106.727 116.261 105.771C117.828 103.876 119.757 102.136 122.208 101.203C123.658 100.641 125.276 100.419 126.843 100.619C128.405 100.814 129.905 101.347 131.217 102.214C132.534 103.076 133.618 104.232 134.462 105.499C135.313 106.772 135.941 108.144 136.43 109.55C137.403 112.368 137.836 115.286 138.058 118.193C138.275 121.099 138.253 124.017 138.097 126.913C137.93 129.808 137.664 132.698 137.291 135.572C136.925 138.428 136.558 141.252 136.636 144.025C136.691 145.403 136.869 146.759 137.275 148.015C137.675 149.271 138.325 150.411 139.231 151.305C140.137 152.178 141.276 152.756 142.554 153.006C143.827 153.278 145.194 153.256 146.567 153.139C147.317 153.067 148.101 152.978 148.829 152.856C149.535 152.7 150.269 152.523 150.974 152.272C152.392 151.794 153.748 151.139 154.981 150.294C157.471 148.627 159.45 146.287 160.745 143.547C162.118 140.812 163.057 137.85 163.757 134.832C164.457 131.809 164.919 128.724 165.235 125.618C165.863 119.399 165.975 113.113 166.075 106.816C166.125 103.665 166.175 100.514 166.297 97.3513C166.419 94.189 166.619 91.0211 167.081 87.8532C167.375 85.9136 167.77 83.9406 168.426 82.0732L168.898 80.6671C169.054 80.2003 169.27 79.7501 169.459 79.2888C169.659 78.8331 169.832 78.3662 170.054 77.9216L170.749 76.5933C171.732 74.8649 172.872 73.1698 174.389 71.8026C175.878 70.4187 177.679 69.3294 179.647 68.7403C181.614 68.1512 183.709 68.079 185.71 68.3846C185.96 68.4291 186.21 68.4569 186.46 68.5236L187.216 68.7348C187.733 68.8459 188.194 69.1127 188.678 69.3183C188.928 69.4128 189.128 69.5795 189.356 69.7129C189.573 69.8574 189.8 69.9908 190.012 70.1464L190.606 70.6577C190.801 70.83 191.006 70.9912 191.168 71.1913C192.601 72.6918 193.569 74.5148 194.285 76.371C195.002 78.2329 195.48 80.1614 195.836 82.0955C196.364 85.0299 196.614 87.9922 196.709 90.9544C196.809 93.9167 196.753 96.8734 196.609 99.8245C196.464 102.776 196.214 105.721 195.925 108.645L195.825 109.734C195.808 110.084 195.769 110.434 195.78 110.784C195.764 111.485 195.831 112.19 195.914 112.885C196.114 114.274 196.481 115.653 197.059 116.931C197.62 118.215 198.393 119.399 199.332 120.41C200.288 121.399 201.422 122.189 202.722 122.655C203.361 122.917 204.039 123.061 204.717 123.195C205.401 123.289 206.096 123.367 206.796 123.345C208.191 123.345 209.58 123.089 210.903 122.644C213.532 121.677 216.022 120.138 218.084 118.204C219.134 117.248 220.062 116.17 220.912 115.025C221.763 113.885 222.513 112.668 223.158 111.401C225.22 107.466 226.264 103.092 227.148 98.713C228.004 94.3279 228.71 89.9207 229.227 85.4912C230.299 76.6434 230.944 67.7566 231.144 58.8365C231.166 56.8691 231.216 54.9295 231.205 52.9843C231.172 51.0391 231.183 49.0883 231.139 47.1098C231.016 39.7681 230.455 34.9773 230.21 31.5983C230.016 29.9198 229.877 28.5916 229.799 27.48C229.782 27.2021 229.766 26.9409 229.749 26.6853C229.721 26.4352 229.699 26.1962 229.671 25.9683C229.627 25.5126 229.593 25.0902 229.571 24.6956C229.527 23.9731 229.421 23.0172 229.427 22.5837C229.438 21.8501 229.838 22.9227 230.627 25.5182C230.722 25.8461 230.827 26.1906 230.938 26.563C231.022 26.9409 231.105 27.3355 231.2 27.7579C231.372 28.6027 231.561 29.5419 231.767 30.559C231.994 31.576 232.089 32.6987 232.261 33.888C232.406 35.0829 232.606 36.3557 232.695 37.7117C233.423 45.7426 233.528 53.9124 233.25 62.1433C232.967 70.3743 232.322 78.6775 231.255 87.0029C231.016 89.087 230.655 91.1656 230.355 93.2498C230.194 94.289 229.988 95.3283 229.81 96.3732C229.621 97.4125 229.449 98.4573 229.204 99.4966L228.521 102.62L227.698 105.738C227.104 107.828 226.337 109.895 225.353 111.874C223.402 115.825 220.523 119.471 216.777 122.027C216.3 122.328 215.833 122.65 215.344 122.933C214.849 123.2 214.365 123.5 213.854 123.734C212.865 124.223 211.759 124.695 210.625 124.99C208.358 125.59 205.951 125.712 203.611 125.179C201.883 124.779 200.171 124.023 198.765 122.833C198.054 122.25 197.448 121.6 196.909 120.894C196.359 120.199 195.897 119.449 195.497 118.671C194.691 117.12 194.169 115.458 193.88 113.758C193.73 112.907 193.663 112.046 193.641 111.179C193.619 110.312 193.707 109.423 193.78 108.656C194.424 102.403 194.847 96.1675 194.591 89.9596C194.452 86.864 194.152 83.7794 193.491 80.8172C193.146 79.3444 192.74 77.8883 192.168 76.5266C191.59 75.1761 190.879 73.9034 189.962 72.8697C189.05 71.836 187.933 71.0634 186.671 70.6688C186.06 70.4743 185.332 70.3243 184.621 70.2687C183.909 70.1909 183.192 70.1964 182.486 70.2409C179.641 70.4354 177.04 71.8582 175.078 73.9812L175.023 73.9646H175.011Z" fill="#231F20"/>
<path d="M113.009 66.495C118.211 66.3727 123.357 66.6283 128.487 66.8951C130.36 66.9952 132.233 67.0507 134.1 67.1674C140.686 67.5787 147.261 68.0344 153.841 68.2012C156.759 68.2734 159.693 68.2512 162.583 68.1234C164.44 68.0511 166.29 67.9011 168.141 67.7399C169.986 67.5454 171.826 67.3786 173.688 67.2953C174.849 67.2508 174.732 67.4175 173.815 67.8844C173.354 68.1067 172.698 68.4902 171.876 68.7569C171.464 68.8959 171.014 69.0571 170.531 69.1793C170.047 69.2794 169.525 69.3572 168.986 69.4183C161.299 70.2353 153.624 70.0297 145.944 69.5461C141.347 69.246 136.568 69.0904 131.871 68.8514C126.714 68.5958 121.556 68.3234 116.416 68.329C113.259 68.3512 110.08 68.4179 107.006 68.9181C105.839 69.0904 104.7 69.3683 103.605 69.7295L102.816 70.0463C102.549 70.1464 102.299 70.3131 102.038 70.4409C101.526 70.7299 100.987 70.9634 100.521 71.3135C98.5475 72.5695 96.7857 74.1646 95.313 75.9875C94.1847 77.4158 93.1844 78.922 92.3507 80.5226C91.5282 82.1232 90.8057 83.7683 90.2166 85.4689C89.972 86.2192 89.7275 86.9584 89.5218 87.7254C89.4051 88.0755 89.2995 88.3978 89.2051 88.6924C89.1161 88.9869 89.0328 89.2593 88.9605 89.5038C88.7938 89.9929 88.6882 90.393 88.5659 90.7154C88.3047 91.3601 88.0991 91.7269 87.8656 92.0214C87.7601 92.1548 87.66 92.3382 87.5822 92.416C87.4488 92.5439 87.3821 92.3049 87.3043 91.7269C87.2543 91.4379 87.2376 91.0711 87.2543 90.632C87.2599 90.193 87.3099 89.6872 87.4044 89.1259C87.5322 88.2922 87.6822 87.453 87.9045 86.6249C88.1491 85.8079 88.377 84.9743 88.6826 84.1629C89.2495 82.5234 89.972 80.9172 90.8112 79.3555C91.6282 77.7826 92.6619 76.2987 93.7568 74.8593L94.646 73.8256L95.0962 73.3087L95.5853 72.8252L96.5634 71.8581L97.625 70.9745C98.1363 70.5132 98.7254 70.1575 99.2923 69.7685C99.848 69.3627 100.47 69.0515 101.076 68.7236C101.388 68.568 101.665 68.3846 102.01 68.2512L103.021 67.8455C103.694 67.6454 104.372 67.4175 105.039 67.2953C107.718 66.7173 110.363 66.5339 112.992 66.4338L113.003 66.4839L113.009 66.495Z" fill="#231F20"/>
<path d="M175.894 14.0193C178.006 14.5639 180.101 15.0363 182.275 15.4254C184.436 15.8311 186.604 16.1979 188.777 16.5369C190.361 16.7759 191.956 16.9593 193.54 17.1538C199.131 17.893 204.761 18.3265 210.396 18.232C211.641 18.182 212.897 18.1653 214.142 18.0375C214.765 17.9819 215.387 17.9263 216.01 17.8708C216.627 17.7874 217.244 17.7096 217.855 17.6262L219.039 17.465L220.211 17.2483C220.995 17.0982 221.779 16.9815 222.557 16.8148C224.124 16.5202 225.675 16.1979 227.292 16.0701C228.298 15.9867 228.209 16.1312 227.475 16.6592C227.108 16.9204 226.58 17.3039 225.93 17.7429C225.602 17.9597 225.224 18.1097 224.824 18.2598C224.418 18.4099 223.985 18.5488 223.529 18.66C217.01 20.155 210.28 20.4829 203.622 19.9938C199.637 19.6992 195.502 19.4269 191.467 18.8823C189.249 18.5821 187.043 18.2431 184.842 17.8596C182.641 17.4873 180.452 17.0871 178.245 16.6203C175.544 16.0145 172.888 15.2586 170.264 14.4583C166.291 13.2468 162.356 11.8962 158.349 11.2126C155.236 10.668 152.13 10.6069 149.051 10.9014C148.373 10.9348 147.711 11.0626 147.028 11.1404C146.394 11.2015 145.866 11.2571 145.427 11.3016C144.988 11.3571 144.627 11.3794 144.327 11.3794C143.726 11.3794 143.36 11.2849 143.037 11.1015C142.893 11.0181 142.704 10.9403 142.609 10.8514C142.287 10.5513 143.271 10.0511 145.16 9.52311C147.978 8.86175 150.996 8.61165 154.041 8.75059C157.087 8.88953 160.138 9.46198 163.084 10.2345C167.463 11.3905 171.648 12.8855 175.905 13.9637V14.0137L175.894 14.0193Z" fill="#231F20"/>
<path d="M145.839 31.1704C145.945 33.6269 145.895 36.0834 145.795 38.5288C145.739 39.4236 145.728 40.3183 145.667 41.2076C145.383 44.3477 144.922 47.4655 144.288 50.5389L143.877 52.5897C143.733 53.2733 143.588 53.9514 143.449 54.6294C143.266 55.4964 143.066 56.3634 142.843 57.2248C142.61 58.0807 142.304 58.9199 141.943 59.7369C141.715 60.2482 141.587 60.126 141.487 59.6147C141.437 59.359 141.387 59.0033 141.348 58.5809C141.326 58.1641 141.36 57.6917 141.454 57.1971C141.587 56.3078 141.832 55.4519 142.015 54.5794L142.56 51.9562C142.727 51.078 142.899 50.1999 143.066 49.3218C143.216 48.4381 143.371 47.5545 143.549 46.6708C143.922 44.5477 144.072 42.308 144.183 40.1072L144.283 38.2898L144.322 36.4724C144.372 35.2608 144.322 34.0493 144.311 32.8321C144.305 32.0874 144.244 31.3371 144.216 30.5924C144.183 29.8476 144.138 29.0974 144.061 28.3582C143.955 27.23 143.872 26.0962 143.705 24.9791C143.566 23.8565 143.41 22.7338 143.188 21.6278C142.888 19.9049 142.388 18.2543 141.954 16.587C141.849 16.2202 141.721 15.8701 141.632 15.4977C141.46 14.8085 141.371 14.3472 141.376 14.0082C141.393 13.6637 141.498 13.4414 141.66 13.2413C141.732 13.1524 141.793 13.0412 141.86 12.9801C141.976 12.88 142.121 12.9523 142.327 13.169C142.538 13.3802 142.755 13.7526 142.938 14.2472C144.077 17.1928 144.7 20.4663 145.194 23.7564C145.361 24.9847 145.528 26.2129 145.622 27.4467L145.783 29.303L145.883 31.1593H145.845L145.839 31.1704Z" fill="#231F20"/>
<path d="M149.834 31.4149L149.817 33.0377C149.806 33.1044 149.745 33.2989 149.889 33.2656H150.051H150.134L150.323 33.2545C150.829 33.2045 151.329 33.1489 151.84 33.1489C153.63 33.1489 155.436 33.3267 157.225 33.6769C158.02 33.838 158.821 34.027 159.582 34.3216C160.065 34.5216 160.577 34.7106 160.999 35.0552C161.433 35.372 161.833 35.7666 162.038 36.2834C162.177 36.5891 162.116 36.5724 161.805 36.5057C161.644 36.4779 161.438 36.4279 161.166 36.4335C160.91 36.4168 160.682 36.3446 160.432 36.2667L160.116 36.15C160.004 36.1222 159.893 36.0945 159.793 36.05C159.593 35.9611 159.371 35.8999 159.16 35.8332C158.732 35.6943 158.276 35.6221 157.826 35.4942C156.925 35.2552 155.969 35.0774 154.991 34.9107C153.813 34.705 152.563 34.8162 151.329 34.8051C151.045 34.8106 150.756 34.8051 150.467 34.8051H150.251L149.934 34.8162L149.295 34.844L148.906 34.7606L148.711 34.7217C148.644 34.7217 148.583 34.6772 148.55 34.6217C148.405 34.416 148.328 34.1437 148.305 33.8269C148.289 33.6713 148.283 33.5157 148.278 33.3545V32.9599L148.266 32.3597C148.266 31.5094 148.278 30.6646 148.255 29.8254C148.228 28.5527 148.194 27.2688 148.044 26.0184C147.927 25.0458 147.683 24.1065 147.455 23.1784C147.411 22.9727 147.349 22.7727 147.311 22.567C147.227 22.1836 147.211 21.9223 147.261 21.7223C147.283 21.6222 147.316 21.5389 147.361 21.4666C147.416 21.3888 147.488 21.3221 147.555 21.261C147.616 21.2054 147.666 21.1387 147.716 21.0998C147.833 20.9887 148.289 21.2054 148.567 21.7723C148.75 22.1947 148.917 22.6282 149.061 23.0672C149.184 23.5118 149.284 23.9676 149.372 24.4289C149.545 25.3514 149.65 26.2907 149.723 27.2299C149.828 28.6249 149.845 30.031 149.862 31.4149H149.823H149.834Z" fill="#231F20"/>
<path d="M159.099 18.7934C159.471 18.9101 159.843 19.0491 160.216 19.1824C160.582 19.3381 160.955 19.4714 161.316 19.6493C161.677 19.8271 162.039 19.9939 162.389 20.2106C162.561 20.3162 162.744 20.4051 162.911 20.533L163.167 20.7108C163.272 20.7942 163.445 20.8775 163.545 20.9943L163.606 21.0554L163.634 21.0887L163.65 21.1054C163.656 21.1054 163.6 21.1443 163.623 21.1276V21.1387L163.717 21.2832C163.773 21.3833 163.8 21.5 163.845 21.6056C163.95 21.8557 163.956 21.9557 163.989 22.1058C164.056 22.3892 164.101 22.6616 164.145 22.945C164.284 23.9287 164.367 24.9069 164.434 25.885C164.495 26.8632 164.49 27.8524 164.49 28.8306C164.467 29.7031 164.467 30.5813 164.401 31.4483C164.373 32.004 164.273 32.5654 164.173 33.1211C164.05 33.6769 163.817 34.2104 163.545 34.7106C163.372 35.0219 163.284 34.9218 163.217 34.5939C163.183 34.4272 163.145 34.2049 163.117 33.9548C163.095 33.6991 162.995 33.3935 163.056 33.11C163.1 32.582 163.128 32.0541 163.133 31.515C163.178 30.987 163.172 30.4423 163.189 29.9032C163.189 28.8195 163.161 27.7246 163.133 26.6186C163.106 25.2959 162.856 23.9232 162.606 22.606L162.511 22.1336C162.5 22.0613 162.489 21.9946 162.417 21.9613L162.372 21.9279L162.266 21.8557L162.05 21.7056L161.588 21.4444C160.972 21.0943 160.293 20.8164 159.604 20.5663C158.754 20.2662 157.87 20.0217 156.976 19.8271C155.619 19.5381 154.23 19.3158 152.846 19.2213C151.768 19.1491 150.706 19.2102 149.645 19.2547C149.412 19.2547 149.184 19.2825 148.945 19.2769C148.506 19.2769 148.217 19.2269 148.017 19.1435C147.811 19.0268 147.689 18.899 147.594 18.7489C147.55 18.6767 147.489 18.6156 147.461 18.5544C147.416 18.4544 147.483 18.3599 147.639 18.2376C147.8 18.1154 148.05 17.9375 148.378 17.8819C148.867 17.7763 149.362 17.7097 149.867 17.6596C150.367 17.6207 150.879 17.6096 151.39 17.6096C152.418 17.6096 153.458 17.6763 154.497 17.8041C156.042 17.9987 157.581 18.3154 159.104 18.7601L159.093 18.799L159.099 18.7934Z" fill="#231F20"/>
<path d="M204.372 31.7762C202.332 31.4483 200.298 31.0426 198.286 30.5479C197.552 30.359 196.808 30.2145 196.091 29.9977C193.551 29.2474 191.083 28.3693 188.577 27.669C187.465 27.3523 186.331 27.1133 185.209 26.9299C184.847 26.8687 184.486 26.8187 184.125 26.7743C183.764 26.7131 183.402 26.6631 183.041 26.6131C182.68 26.5519 182.319 26.5242 181.957 26.4463C181.596 26.363 181.235 26.3018 180.868 26.2296C180.412 26.1351 180.474 26.0073 180.868 25.8128C181.068 25.7183 181.352 25.5905 181.702 25.4682C181.874 25.4126 182.069 25.3515 182.269 25.3126C182.469 25.2848 182.685 25.2626 182.902 25.2737C184.469 25.2737 185.998 25.6016 187.498 25.935C188.999 26.2852 190.472 26.7242 191.922 27.2078C193.656 27.7913 195.502 28.2304 197.291 28.675C199.253 29.1641 201.248 29.5475 203.26 29.8477C204.499 30.0422 205.744 30.1922 206.989 30.3201C208.879 30.5035 210.785 30.6535 212.675 30.6591C214.142 30.6646 215.581 30.5368 217.015 30.3923C217.332 30.3645 217.638 30.3089 217.96 30.2867C219.144 30.2589 219.527 30.3423 219.822 30.8314C219.889 30.9314 219.972 31.0259 220.016 31.1204C220.155 31.3983 219.7 31.8484 218.81 32.0429C218.16 32.2041 217.488 32.3042 216.81 32.3709C216.132 32.4487 215.448 32.4876 214.759 32.5209C213.381 32.5765 211.975 32.5598 210.58 32.4653C208.501 32.3431 206.422 32.0985 204.355 31.804V31.7595L204.372 31.7762Z" fill="#231F20"/>
<path d="M203.916 41.1186C201.859 40.7074 199.82 40.2405 197.791 39.7625C197.052 39.5847 196.302 39.4513 195.562 39.2679C192.967 38.6232 190.383 37.9452 187.782 37.3727C186.626 37.1338 185.459 36.9226 184.303 36.7836C182.819 36.5335 181.329 36.5113 179.851 36.1834C179.39 36.0889 179.445 35.9389 179.851 35.7277C180.051 35.6221 180.34 35.4942 180.696 35.372C180.873 35.3108 181.068 35.2386 181.274 35.1997C181.479 35.1608 181.696 35.1663 181.918 35.1719C182.702 35.2219 183.502 35.2442 184.275 35.3497C185.053 35.4498 185.831 35.5721 186.592 35.7277C188.126 36.0222 189.644 36.3835 191.155 36.7947C192.961 37.2838 194.868 37.634 196.718 38.0452C198.758 38.5065 200.798 38.9567 202.843 39.3568C204.099 39.6125 205.366 39.8181 206.628 40.0293C207.589 40.1516 208.551 40.3072 209.512 40.4128C210.479 40.4962 211.441 40.6184 212.397 40.6351C213.141 40.6518 213.881 40.6462 214.614 40.624C215.348 40.5629 216.076 40.5073 216.81 40.4462C217.132 40.4295 217.443 40.3683 217.765 40.3294C218.36 40.2572 218.755 40.2461 219.044 40.3128C219.188 40.3461 219.305 40.3906 219.405 40.4573C219.505 40.5351 219.588 40.624 219.666 40.724C219.738 40.813 219.827 40.8963 219.872 40.9741C220.022 41.2076 219.572 41.6577 218.666 41.8411C217.321 42.1468 215.92 42.2079 214.503 42.2802C213.086 42.2635 211.646 42.2357 210.224 42.0801C208.101 41.8967 206 41.5355 203.916 41.1631V41.1242V41.1186Z" fill="#231F20"/>
<path d="M207.54 53.3789C205.9 53.1955 204.266 52.9787 202.644 52.7175C202.049 52.6342 201.454 52.5619 200.865 52.4508C198.787 52.0673 196.725 51.606 194.685 51.0891C193.774 50.8724 192.868 50.6445 191.967 50.4111C191.395 50.2555 190.817 50.0999 190.239 49.9442C189.672 49.7497 189.122 49.5107 188.572 49.2829C188.233 49.1328 188.299 49.0772 188.633 49.0495C188.966 49.0272 189.583 48.9661 190.267 49.0495C191.45 49.2884 192.623 49.5385 193.801 49.7886C194.968 50.0665 196.141 50.3444 197.325 50.6223C198.737 50.9724 200.243 51.1336 201.71 51.3392C203.327 51.5671 204.944 51.756 206.573 51.9005L208.073 52.0284L209.58 52.1173C211.097 52.1951 212.631 52.2396 214.142 52.1951C214.732 52.1729 215.31 52.1284 215.888 52.0728C216.466 52.0173 217.038 51.9283 217.616 51.8783C217.872 51.8561 218.122 51.8339 218.377 51.8061C218.85 51.7672 219.167 51.7894 219.394 51.8672C219.622 51.9394 219.756 52.0506 219.872 52.2118C219.928 52.284 219.995 52.3563 220.028 52.4285C220.139 52.662 219.767 52.9287 219.072 53.151C218.555 53.2733 218.027 53.39 217.488 53.4789C216.949 53.5456 216.404 53.6123 215.854 53.6512C215.304 53.6901 214.748 53.7124 214.192 53.7346C213.637 53.7513 213.075 53.7346 212.52 53.7235C210.858 53.6901 209.191 53.5623 207.534 53.4122V53.3789H207.54Z" fill="#231F20"/>
<path d="M214.22 72.5919C213.331 72.6085 212.447 72.603 211.569 72.5808C211.246 72.5808 210.93 72.603 210.607 72.5863C209.474 72.4974 208.351 72.364 207.228 72.2251C206.734 72.175 206.233 72.125 205.744 72.0694C205.111 72.0194 204.483 71.8805 203.871 71.6915C203.682 71.6304 203.716 71.5526 203.894 71.4581C204.071 71.3636 204.394 71.2136 204.761 71.1691C205.083 71.1302 205.405 71.0913 205.728 71.0968C206.044 71.0968 206.367 71.0635 206.684 71.0857C207.317 71.1135 207.951 71.158 208.59 71.2191C209.357 71.308 210.152 71.1969 210.935 71.1913C211.797 71.1802 212.658 71.1635 213.52 71.1191C214.047 71.0913 214.581 71.0579 215.109 71.0024C215.909 70.9246 216.715 70.8356 217.499 70.6744C218.11 70.5466 218.683 70.3243 219.266 70.1298C219.394 70.0853 219.516 70.0409 219.65 70.0075C219.772 69.9797 219.878 69.9631 219.961 69.9575C220.05 69.9575 220.133 69.9964 220.2 70.0298C220.339 70.102 220.433 70.2076 220.528 70.3632C220.572 70.4355 220.622 70.5022 220.65 70.5689C220.756 70.7856 220.611 71.0746 220.289 71.3692C219.783 71.6748 219.227 71.8805 218.66 72.0472C218.088 72.2084 217.504 72.3473 216.904 72.414C216.02 72.5363 215.12 72.5863 214.231 72.6363V72.5974L214.22 72.5919Z" fill="#231F20"/>
<path d="M213.137 81.7676C212.409 81.7676 211.681 81.7454 210.958 81.7065C210.697 81.7009 210.43 81.7176 210.169 81.6954C209.241 81.6231 208.324 81.4564 207.418 81.3119C207.012 81.2619 206.612 81.173 206.212 81.1118C205.7 81.0229 205.195 80.9173 204.7 80.7506C204.544 80.7006 204.578 80.645 204.722 80.5894C204.867 80.5338 205.134 80.4449 205.428 80.4282C205.951 80.406 206.467 80.3838 206.995 80.3616C207.512 80.3616 208.024 80.4227 208.54 80.4783C209.157 80.5561 209.808 80.4783 210.441 80.4783C211.136 80.4727 211.836 80.456 212.531 80.4116C212.959 80.3838 213.392 80.356 213.815 80.306C214.459 80.2282 215.115 80.1726 215.749 80.0281C216.238 79.9058 216.699 79.7113 217.172 79.5612C217.277 79.5279 217.372 79.4834 217.483 79.4556C217.677 79.389 217.827 79.4445 217.938 79.4834C218.05 79.5334 218.133 79.6168 218.211 79.7446C218.25 79.8002 218.289 79.8558 218.316 79.9114C218.411 80.0892 218.3 80.3226 218.044 80.5672C217.649 80.884 217.205 81.0618 216.755 81.2619C216.293 81.412 215.81 81.5231 215.326 81.612C214.609 81.7621 213.865 81.7676 213.131 81.8065V81.7732L213.137 81.7676Z" fill="#231F20"/>
<path d="M212.113 90.6765C211.613 90.6543 211.107 90.6265 210.607 90.6042C210.424 90.5931 210.246 90.6209 210.062 90.6042C209.423 90.5598 208.762 90.4653 208.106 90.3097C207.817 90.2374 207.523 90.1874 207.239 90.0874C206.878 89.9651 206.517 89.7817 206.261 89.4816C206.183 89.3871 206.261 89.3093 206.417 89.2593C206.567 89.2093 206.783 89.1481 206.967 89.1815C207.6 89.2704 208.223 89.3538 208.906 89.4482C209.318 89.5094 209.768 89.4482 210.207 89.4316C210.69 89.4204 211.18 89.4093 211.669 89.3927C211.969 89.3816 212.269 89.3704 212.569 89.3482C213.025 89.326 213.48 89.3149 213.925 89.2315C214.27 89.1759 214.592 89.0092 214.931 88.9369C215.003 88.9203 215.075 88.898 215.153 88.8869C215.437 88.8591 215.542 88.9314 215.653 89.1926C215.681 89.2537 215.709 89.3093 215.731 89.3704C215.798 89.5705 215.715 89.7706 215.526 89.9095C214.964 90.3819 214.292 90.4764 213.625 90.5987C213.125 90.6765 212.619 90.7209 212.113 90.7154V90.682V90.6765Z" fill="#231F20"/>
<path d="M64.8466 131.87C63.0681 131.692 61.3174 131.403 59.589 131.175C58.9554 131.086 58.3274 131.07 57.6938 130.986C55.4819 130.753 53.2421 130.647 50.9912 130.697C49.9964 130.697 48.9905 130.797 48.0068 130.881C47.3732 130.914 46.734 130.981 46.1005 131.031C45.4669 131.103 44.8166 131.042 44.1719 131.031C43.7718 131.009 43.8107 130.898 44.1275 130.697C44.2887 130.597 44.511 130.47 44.7889 130.331C44.9278 130.264 45.0779 130.192 45.239 130.125C45.3224 130.092 45.4058 130.064 45.4891 130.025C45.578 130.008 45.667 129.986 45.7559 129.969C46.4061 129.858 47.0508 129.742 47.7066 129.658C48.3624 129.58 49.0183 129.536 49.6741 129.486C50.9912 129.419 52.3195 129.38 53.6534 129.447C55.2429 129.503 56.9102 129.514 58.533 129.68C60.317 129.858 62.0677 130.131 63.8128 130.32L65.4301 130.475L67.0474 130.581L69.5095 130.67C70.332 130.67 71.149 130.67 71.966 130.647C73.2331 130.575 74.4725 130.447 75.7174 130.292C75.9897 130.258 76.2621 130.208 76.5399 130.203C77.5681 130.158 77.9071 130.253 78.1517 130.614C78.2073 130.697 78.2795 130.77 78.3129 130.848C78.4296 131.098 78.0294 131.398 77.2736 131.559C76.1565 131.837 75.0005 131.953 73.8167 132.031C73.2276 132.07 72.6329 132.104 72.0327 132.131C71.4324 132.137 70.8322 132.142 70.2264 132.154C68.4368 132.159 66.6306 132.054 64.8354 131.903V131.865L64.8466 131.87Z" fill="#231F20"/>
<path d="M61.0286 136.839L56.8103 136.533C56.299 136.5 55.7821 136.511 55.2708 136.472C53.4646 136.333 51.6639 136.177 49.8632 136.089C49.0629 136.05 48.257 136.039 47.4678 136.061C46.9565 136.072 46.4507 136.105 45.945 136.094C45.4337 136.083 44.9335 136.077 44.4166 135.983C44.0943 135.927 44.1221 135.755 44.3722 135.494C44.6223 135.244 45.1058 134.821 45.706 134.749C46.762 134.549 47.8235 134.56 48.8739 134.543C49.9299 134.527 50.9803 134.632 52.0362 134.738C53.2978 134.883 54.6094 134.838 55.8988 134.894L60.1449 135.116C61.0175 135.166 61.8845 135.216 62.757 135.249C64.0742 135.299 65.3969 135.366 66.703 135.338C67.72 135.31 68.7093 135.183 69.7041 135.071C69.9209 135.044 70.1376 135.027 70.3599 135.01C71.1769 134.988 71.4492 135.144 71.6493 135.505C71.6938 135.588 71.7549 135.672 71.7827 135.755C71.8827 136.027 71.5604 136.3 70.9546 136.5C70.0543 136.789 69.115 136.867 68.1702 136.939C67.2198 137.006 66.2639 137.011 65.3024 137.011C63.8741 137 62.4513 136.933 61.0286 136.878V136.833V136.839Z" fill="#231F20"/>
<path d="M55.0808 142.508C54.2361 142.341 53.4024 142.169 52.5632 142.024C52.2575 141.974 51.9519 141.963 51.6462 141.907C50.5735 141.73 49.5065 141.557 48.4338 141.479C48.1949 141.468 47.9559 141.468 47.7169 141.468C47.4779 141.485 47.2445 141.507 47.0111 141.513C46.4053 141.563 45.8162 141.663 45.2048 141.713C45.0103 141.724 44.9936 141.591 45.1103 141.396C45.227 141.207 45.4771 140.924 45.8328 140.779C47.1 140.29 48.4561 140.218 49.7566 140.368C50.5346 140.485 51.3405 140.468 52.1297 140.551C52.9911 140.64 53.847 140.768 54.6974 140.885L56.2646 141.101C57.0538 141.202 57.8486 141.318 58.6322 141.34C59.2435 141.357 59.8438 141.268 60.444 141.213C60.5774 141.202 60.7052 141.168 60.8386 141.163C61.3277 141.163 61.4833 141.285 61.6056 141.679C61.6334 141.768 61.6667 141.857 61.6834 141.946C61.7445 142.246 61.5444 142.502 61.1665 142.635C60.0438 143.002 58.8434 142.974 57.6763 142.88C56.8037 142.808 55.9367 142.691 55.0864 142.546V142.508H55.0808Z" fill="#231F20"/>
<path d="M114.755 9.46696C114.261 10.4451 113.394 11.0731 112.493 11.3788C112.16 11.4844 111.826 11.6067 111.471 11.6233C110.848 11.6567 110.22 11.5511 109.642 11.2621C109.059 10.9675 108.586 10.5062 108.336 9.93937C108.103 9.45029 107.964 8.91119 108.008 8.35542C108.064 7.99973 108.186 7.6496 108.403 7.3606C108.636 7.08827 108.925 6.87152 109.248 6.79371C109.448 6.73258 109.503 6.95488 109.509 7.23833C109.509 7.51621 109.52 7.86635 109.492 8.03864C109.453 8.19425 109.442 8.32208 109.481 8.45546C109.509 8.58329 109.509 8.71667 109.57 8.85561C109.681 9.1335 109.853 9.40583 110.087 9.67815C110.226 9.83377 110.465 9.92269 110.715 9.94492C110.965 9.97271 111.232 9.93381 111.487 9.88934C112.054 9.77819 112.638 9.52254 113.016 9.07792C113.249 8.81115 113.399 8.47214 113.466 8.09421C113.571 7.544 113.399 6.97711 112.938 6.73813C112.577 6.55473 112.149 6.66588 111.799 6.81038C111.721 6.84929 111.649 6.89375 111.554 6.90486C111.221 6.97711 111.054 6.96044 110.787 6.74925C110.726 6.70479 110.659 6.66588 110.609 6.61586C110.437 6.46581 110.448 6.18236 110.704 5.82667C111.076 5.27646 111.793 4.95967 112.566 5.00413C112.955 5.00969 113.355 5.13752 113.727 5.32648C114.088 5.54323 114.433 5.82667 114.661 6.19904C115.011 6.73813 115.15 7.35504 115.144 7.91637C115.117 8.47769 115.016 8.9501 114.789 9.47808L114.75 9.4614L114.755 9.46696Z" fill="#231F20"/>
<path d="M258.025 40.1405C257.325 42.886 253.263 40.0905 256.008 38.5287C257.309 37.7896 258.42 38.6066 258.025 40.1405Z" fill="#231F20"/>
<path d="M108.294 40.5229C107.227 43.952 102.048 40.3284 104.793 38.3054C105.888 37.4995 108.984 38.3054 108.294 40.5229Z" fill="#231F20"/>
<path d="M8.87391 125.062C8.16808 124.328 7.46226 123.6 6.72864 122.889C6.46187 122.628 6.16731 122.411 5.90054 122.15C4.96685 121.233 4.0276 120.316 3.07724 119.415C2.65485 119.015 2.19356 118.654 1.74339 118.298C1.15983 117.843 0.604063 117.348 0.0705247 116.825C-0.0906484 116.659 0.0482943 116.525 0.320621 116.486C0.598506 116.442 1.00422 116.509 1.39326 116.703C1.72672 116.892 2.06574 117.076 2.39364 117.276C2.70487 117.492 3.0161 117.715 3.32177 117.943C3.92756 118.404 4.52224 118.887 5.07245 119.421C5.7227 120.077 6.50633 120.621 7.22328 121.233C8.00135 121.905 8.76831 122.6 9.52416 123.3L10.908 124.606C11.6083 125.262 12.2919 125.951 13.0144 126.574C13.5813 127.057 14.1759 127.48 14.7539 127.935C14.8818 128.035 15.0152 128.124 15.1263 128.247C15.5431 128.686 15.5932 128.913 15.4153 129.286C15.3764 129.369 15.3431 129.464 15.293 129.536C15.1319 129.786 14.7762 129.803 14.3594 129.608C13.1311 129.014 12.0751 128.147 11.0748 127.207C10.3356 126.507 9.59085 125.801 8.84612 125.095L8.87391 125.062Z" fill="#231F20"/>
<path d="M16.5439 123.356C16.5439 122.85 16.5439 122.344 16.5439 121.839C16.5439 121.655 16.505 121.472 16.5105 121.288C16.5439 120.638 16.605 119.988 16.6661 119.343C16.6995 119.06 16.6995 118.771 16.6939 118.487C16.6828 118.126 16.6939 117.754 16.8773 117.404C16.9329 117.292 17.183 117.331 17.4386 117.442C17.6943 117.554 17.9944 117.737 18.0444 117.937C18.15 118.293 18.1556 118.637 18.1556 118.982C18.1667 119.332 18.0889 119.682 18.0222 120.038C17.9277 120.466 18.0389 120.905 18.0556 121.344C18.0778 121.827 18.0945 122.311 18.1278 122.795C18.15 123.095 18.1667 123.395 18.2001 123.689C18.2445 124.139 18.2723 124.601 18.3723 125.045C18.4557 125.39 18.628 125.707 18.7614 126.035C18.7892 126.107 18.8336 126.174 18.8559 126.251C18.9281 126.529 18.8336 126.64 18.4335 126.785C18.3446 126.818 18.2556 126.857 18.1611 126.879C17.8499 126.968 17.5665 126.907 17.4164 126.724C16.9829 126.168 16.8106 125.523 16.6717 124.862C16.5661 124.373 16.5216 123.867 16.4883 123.361H16.5272L16.5439 123.356Z" fill="#231F20"/>
<path d="M6.93506 132.704C6.36817 132.676 5.79573 132.648 5.22884 132.604C5.02321 132.593 4.81757 132.615 4.61194 132.598C3.88388 132.532 3.15582 132.448 2.42777 132.393C2.10542 132.37 1.78307 132.376 1.46073 132.393C1.04946 132.409 0.638189 132.476 0.22692 132.354C-0.0287339 132.282 0.293612 131.309 0.760458 131.259C1.58855 131.192 2.41665 131.17 3.26142 131.287C3.76717 131.359 4.28404 131.264 4.79534 131.253C5.35667 131.237 5.92356 131.242 6.49044 131.253C6.84057 131.253 7.18515 131.259 7.53529 131.253C8.06327 131.242 8.59125 131.248 9.10811 131.181C9.51382 131.126 9.90286 131.003 10.2919 130.914C10.3808 130.892 10.4642 130.859 10.5531 130.848C10.881 130.803 10.9922 130.892 11.0978 131.276C11.12 131.364 11.1533 131.448 11.17 131.537C11.2312 131.831 11.1144 132.087 10.881 132.204C10.1863 132.548 9.43046 132.704 8.65794 132.726C8.0855 132.759 7.51306 132.748 6.94061 132.748V132.709L6.93506 132.704Z" fill="#231F20"/>
<path d="M80.5031 39.857C80.5031 39.857 80.9978 38.7566 80.2086 37.8562C79.4249 36.9559 80.9922 36.8336 81.3868 37.8562C81.7814 38.8789 82.0315 39.6236 81.548 39.857C81.0644 40.0904 80.5031 39.857 80.5031 39.857Z" fill="#231F20"/>
<path d="M81.7188 37.4505C81.8133 37.6061 81.8911 37.7728 81.9634 37.9396C82.0412 38.1063 82.0579 38.2508 82.1023 38.3953C82.1468 38.6398 82.1801 38.8844 82.1579 39.1734C82.1523 39.2734 82.1357 39.4013 82.119 39.5068C82.0912 39.6069 82.0578 39.7069 82.0134 39.8014C81.8355 40.1404 81.541 40.4072 81.2186 40.5406C80.8963 40.6795 80.5684 40.7017 80.2572 40.6573C79.9793 40.6128 79.7014 40.5406 79.4457 40.3349C79.2846 40.2071 79.1567 39.9904 79.1345 39.7681C79.1123 39.5458 79.1845 39.3512 79.2957 39.2123C79.3679 39.1178 79.5013 39.2178 79.6458 39.3457C79.7236 39.4124 79.7959 39.4791 79.857 39.5291C79.9292 39.5847 80.0015 39.6013 80.0126 39.618C80.0237 39.618 80.0348 39.618 80.046 39.618C80.0571 39.6124 80.0682 39.6069 80.0682 39.6013C80.0738 39.5958 80.1071 39.5735 80.1015 39.5791C80.1015 39.5791 80.146 39.6013 80.196 39.6236C80.3072 39.668 80.485 39.6958 80.6518 39.6903C80.8685 39.6736 80.9574 39.4902 81.0074 39.3068C81.0352 39.2234 81.0463 39.1178 81.0186 38.9622C80.9908 38.8066 80.9574 38.6676 80.9352 38.5843C80.9074 38.4787 80.8574 38.3508 80.774 38.2452C80.7129 38.173 80.6295 38.0841 80.5239 38.0674C80.4183 38.0507 80.3238 38.1174 80.2683 38.2008C80.1793 38.3508 80.2182 38.5676 80.2738 38.6899C80.2849 38.7177 80.3072 38.7454 80.3127 38.7677C80.3294 38.7955 80.2961 38.8622 80.2294 38.9122C80.1627 38.9622 80.0515 38.9955 79.8848 39.0233C79.807 39.0344 79.7292 39.0511 79.6569 39.0622C79.4013 39.0845 79.179 39.0178 79.0623 38.8233C78.6843 37.9785 79.2068 36.7669 80.0682 36.6113C80.724 36.4446 81.3409 36.7836 81.7411 37.4227L81.7188 37.4505Z" fill="#231F20"/>
<path d="M12.7151 115.041C12.6762 115.414 12.5261 115.781 12.3261 116.097C11.9426 116.687 11.2312 117.181 10.5587 116.964C10.253 116.864 10.0085 116.631 9.84177 116.359C8.7469 114.552 11.7647 112.357 12.6095 114.297C12.7151 114.536 12.7429 114.791 12.7151 115.047V115.041Z" fill="#231F20"/>
<path d="M256.415 15.5421C255.22 16.1479 253.992 16.6981 252.786 17.2928C252.347 17.5095 251.936 17.7763 251.491 17.9875C249.935 18.7434 248.373 19.4881 246.845 20.2939C246.161 20.6385 245.494 21.0276 244.838 21.4166C244.422 21.6667 244.01 21.9335 243.582 22.178C243.149 22.4114 242.693 22.5948 242.226 22.7671C241.932 22.8672 241.854 22.6671 241.943 22.3114C242.032 21.9613 242.254 21.411 242.676 21.022C244.299 19.8327 245.978 18.7322 247.84 17.9208C248.946 17.4206 249.985 16.7092 251.069 16.1146C252.264 15.4643 253.464 14.8252 254.676 14.2138L256.921 13.0912C258.049 12.5187 259.2 11.9685 260.294 11.3572C261.145 10.8792 261.945 10.3457 262.779 9.85104C262.962 9.73989 263.129 9.61762 263.334 9.54537C264.074 9.24525 264.363 9.25637 264.685 9.50647C264.757 9.56205 264.841 9.61206 264.896 9.67876C265.085 9.88439 264.913 10.2512 264.479 10.6736C263.857 11.3349 263.107 11.8018 262.367 12.3187C261.628 12.8355 260.822 13.2468 260.028 13.6914C258.844 14.3361 257.632 14.9474 256.437 15.581L256.41 15.5366L256.415 15.5421Z" fill="#231F20"/>
<path d="M256.33 25.5238C255.786 25.5794 255.236 25.635 254.691 25.6905C254.491 25.7128 254.302 25.7739 254.102 25.7906C253.396 25.8517 252.69 25.9017 251.995 25.9907C251.684 26.0296 251.384 26.1129 251.078 26.1574C250.689 26.2352 250.306 26.3241 249.889 26.2963C249.761 26.2852 249.739 26.124 249.8 25.9184C249.861 25.7183 249.995 25.4571 250.206 25.3515C250.584 25.1848 250.951 24.9792 251.345 24.8958C251.74 24.8069 252.14 24.7457 252.551 24.7179C253.046 24.6902 253.518 24.4956 254.007 24.3845C254.541 24.2622 255.08 24.1677 255.625 24.0732L256.619 23.8954C257.12 23.7898 257.631 23.7287 258.12 23.5897C258.498 23.473 258.854 23.2952 259.226 23.1729C259.309 23.1451 259.382 23.1062 259.471 23.084C259.782 23.0117 259.904 23.0895 260.06 23.4341C260.093 23.5119 260.132 23.5897 260.16 23.6675C260.254 23.9343 260.182 24.2011 259.976 24.3567C259.676 24.5901 259.354 24.7846 259.02 24.9569C258.681 25.107 258.326 25.1848 257.964 25.2793C257.431 25.4127 256.881 25.4682 256.336 25.5627L256.325 25.5238H256.33Z" fill="#231F20"/>
<path d="M238.773 8.07185C239.162 8.17745 239.528 8.45532 239.723 8.77767C239.923 9.10002 240.001 9.41681 240.034 9.73359C240.056 9.96702 240.079 10.1949 240.034 10.4228C239.956 10.8173 239.784 11.1953 239.506 11.5009C239.217 11.8066 238.85 12.0345 238.389 12.0512C238 12.0512 237.639 11.9344 237.361 11.7121C237.183 11.5732 237.016 11.3953 236.922 11.1619C236.822 10.9341 236.816 10.6339 236.95 10.4116C237.033 10.2671 237.194 10.4061 237.366 10.5395C237.533 10.6895 237.75 10.734 237.794 10.7673C237.861 10.8674 238.056 10.9674 238.189 11.0285C238.261 11.0563 238.317 11.0674 238.372 11.073C238.456 11.073 238.556 11.0397 238.656 10.9896C238.911 10.8563 239.012 10.4728 239.028 10.1449C239.056 9.78362 238.934 9.36123 238.711 9.22229C238.578 9.11669 238.356 9.07779 238.133 9.12225C237.778 9.1945 237.461 9.40014 237.283 9.75583C237.133 10.0226 237.111 10.3505 237.083 10.6728C237.072 10.7451 237.072 10.8173 237.061 10.8896C237.011 11.1564 236.922 11.2397 236.638 11.2508C236.577 11.2508 236.511 11.262 236.449 11.262C236.238 11.2564 236.083 11.1119 236.044 10.884C235.983 10.545 235.977 10.1727 236.083 9.78917C236.188 9.40014 236.36 8.99998 236.722 8.64429C237.261 8.1441 237.978 7.87733 238.789 8.05518V8.08296L238.773 8.07185Z" fill="#231F20"/>
</svg>
